<ttFont>
<head>
    <!-- Most of this table will be recalculated by the compiler -->
    <tableVersion value="1.0"/>
    <fontRevision value="2.004"/>
    <checkSumAdjustment value="0x2adc4ddb"/>
    <magicNumber value="0x5f0f3cf5"/>
    <flags value="00000000 00000011"/>
    <unitsPerEm value="1000"/>
    <created value="Thu Oct  8 10:03:23 2009"/>
    <modified value="Thu Oct  8 10:03:23 2009"/>
    <xMin value="-470"/>
    <yMin value="-316"/>
    <xMax value="1488"/>
    <yMax value="996"/>
    <macStyle value="00000000 00000010"/>
    <lowestRecPPEM value="3"/>
    <fontDirectionHint value="2"/>
    <indexToLocFormat value="0"/>
    <glyphDataFormat value="0"/>
  </head>
          <CharString index="0">
            721 -56 callsubr
            -46 hlineto
            -101 528 rlineto
            34 -6 -20 0 -21 hhcurveto
            -19 hlineto
            -19 -22 0 -33 -18 hvcurveto
            -277 -529 rlineto
            -46 -90 callsubr
            159 -81 callgsubr
            -40 hlineto
            59 111 rlineto
            277 hlineto
            21 -111 rlineto
            -40 -94 callsubr
            159 -104 callgsubr
            -187 203 rmoveto
            -233 hlineto
            170 326 rlineto
            return
          </CharString>
          <CharString index="1">
            rlineto
            -54 -107 callgsubr
            return
          </CharString>
          <CharString index="2">
            -107 callgsubr
            54 hlineto
            return
          </CharString>
          <CharString index="3">
            hlineto
            -16 -24 0 -31 -5 hvcurveto
            -30 -5 25 0 15 hhcurveto
            -59 callgsubr
            return
          </CharString>
          <CharString index="4">
            570 30 rmoveto
            31 5 -24 0 -16 hhcurveto
            -54 hlineto
            55 329 -70 callgsubr
            -36 -213 rlineto
            hintmask 10100000
            -94 -15 -99 -8 -34 hhcurveto
            -91 6 35 31 5 hvcurveto
            45 269 -68 callsubr
            -43 -255 rlineto
            -112 -18 97 -9 55 hhcurveto
            68 47 21 20 29 hvcurveto
            hintmask 01000000
            130 callsubr
            19 5 callgsubr
            return
          </CharString>
          <CharString index="5">
            15 -20 hhcurveto
            0 -8 0 -12 190 callsubr
            -1 -55 callgsubr
            return
          </CharString>
          <CharString index="6">
            809 305 rmoveto
            173 29 -130 144 -196 hhcurveto
            -198 -177 169 callsubr
            198 177 147 169 28 hvcurveto
            -89 callsubr
            return
          </CharString>
          <CharString index="7">
            hintmask 01110000
            455 109 rmoveto
            28 5 -29 0 -6 hhcurveto
            -16 -10 -2 -20 -11 hvcurveto
            -48 -28 -50 -12 -32 hhcurveto
            -75 -62 54 82 hvcurveto
            288 hlineto
            21 19 0 37 6 hvcurveto
            119 20 -51 93 -123 hhcurveto
            -118 -109 -102 -120 -20 hvcurveto
            hintmask 10110000
            -124 -20 82 -100 126 hhcurveto
            127 62 89 26 4 hvcurveto
            -47 142 rmoveto
            -256 hlineto
            75 26 67 53 66 hhcurveto
            50 56 -25 -103 -9 hvcurveto
            return
          </CharString>
          <CharString index="8">
            rmoveto
            2 14 -5 4 -9 9 -61 56 rcurveline
            9 -10 -3 3 -11 hhcurveto
            33 callsubr
            -3 -16 8 -7 9 -8 61 -56 rcurveline
            -9 9 3 -2 9 hhcurveto
            19 21 24 14 2 hvcurveto
            -205 hmoveto
            2 14 -5 4 -9 9 -61 56 rcurveline
            9 -10 -3 3 -11 hhcurveto
            33 callsubr
            -3 -16 8 -7 9 -8 61 -56 rcurveline
            -9 9 3 -2 9 hhcurveto
            19 21 24 14 2 hvcurveto
            endchar
          </CharString>
          <CharString index="9">
            13 80 -52 71 -87 19 -143 31 rcurveline
            -26 6 -67 27 10 62 rrcurveto
            50 8 65 49 84 hhcurveto
            105 35 -53 -68 1 hvcurveto
            -17 1 0 -15 29 hhcurveto
            35 -25 callsubr
            22 132 rlineto
            16 3 4 25 -30 hhcurveto
            -22 -3 -7 -44 -23 hvcurveto
            44 -44 -69 7 -40 hhcurveto
            -125 -95 -80 -84 -14 hvcurveto
            -8 -50 20 -36 19 -22 35 -38 34 -7 88 -19 41 -9 rcurveline
            60 -13 15 -3 28 -28 rrcurveto
            0 27 -28 -7 -43 vhcurveto
            -54 -9 -61 -58 -92 hhcurveto
            -55 -49 12 16 -25 hvcurveto
            -32 22 -12 25 4 45 rrcurveto
            14 2 2 19 -32 hhcurveto
            -35 37 callgsubr
            -22 -132 rlineto
            -16 -3 -4 -25 30 hhcurveto
            22 5 10 38 20 hvcurveto
            return
          </CharString>
          <CharString index="10">
            522 216 rmoveto
            122 20 -82 102 -125 hhcurveto
            -125 -116 -102 -122 -20 hvcurveto
            -124 -21 85 -98 123 hhcurveto
            123 117 98 124 21 hvcurveto
            -68 7 rmoveto
            -91 -15 -82 -77 -86 hhcurveto
            -87 -55 77 91 15 hvcurveto
            90 15 83 66 83 hhcurveto
            83 61 -66 -90 -15 hvcurveto
            return
          </CharString>
          <CharString index="11">
            801 50 callgsubr
            -164 -105 callsubr
            -83 -499 rlineto
            -1 hlineto
            -215 526 rlineto
            34 -14 -22 0 -21 hhcurveto
            -95 -104 callsubr
            164 -52 callsubr
            -54 hlineto
            83 499 rlineto
            1 hlineto
            215 -526 rlineto
            -34 14 22 0 21 hhcurveto
            32 10 6 35 6 hvcurveto
            85 509 -21 callgsubr
            return
          </CharString>
          <CharString index="12">
            rmoveto
            -111 43 -6 2 -7 0 -6 -2 rlinecurve
            -125 -43 -38 -13 9 -54 37 11 rlinecurve
            115 33 103 -33 35 -11 27 54 -33 13 rlinecurve
            return
          </CharString>
          <CharString index="13">
            78 callgsubr
            26 0 15 hhcurveto
            return
          </CharString>
          <CharString index="14">
            -20 -105 callgsubr
            return
          </CharString>
          <CharString index="15">
            64 callsubr
            -141 -107 callgsubr
            41 hlineto
            -148 -301 -13 63 -55 238 rlineto
            38 -52 callsubr
            -140 -94 callsubr
            41 hlineto
            89 -370 -13 -23 0 -2 -19 -37 rlinecurve
            -23 -11 -42 -82 -84 hhcurveto
            -4 -11 0 5 1 hvcurveto
            3 3 5 2 8 vhcurveto
            28 4 -17 16 -23 hhcurveto
            -27 -20 -18 -26 -4 hvcurveto
            -43 -8 34 -39 58 hhcurveto
            92 75 83 62 31 hvcurveto
            231 453 98 callgsubr
            return
          </CharString>
          <CharString index="16">
            rmoveto
            34 callgsubr
            -44 hlineto
            55 329 -53 callsubr
            -78 -94 callsubr
            49 -47 callsubr
            168 -104 callgsubr
            return
          </CharString>
          <CharString index="17">
            hlineto
            -15 176 callgsubr
            16 hhcurveto
            return
          </CharString>
          <CharString index="18">
            -67 12 rmoveto
            -145 -24 -145 -122 -157 hhcurveto
            -158 -102 123 144 24 hvcurveto
            133 22 143 111 157 hhcurveto
            157 105 -111 -133 -22 hvcurveto
            return
          </CharString>
          <CharString index="19">
            -38 callgsubr
            hintmask 00100000
            -25 callgsubr
            hintmask 00010000
            13 -10 -17 21 -34 hhcurveto
            -27 -31 -16 -17 -25 hvcurveto
            -23 -15 -33 -22 -3 -18 rrcurveto
            hintmask 00100000
            -31 callsubr
            hintmask 00010000
            28 35 28 -1 callsubr
            hintmask 00100000
            -61 callsubr
          </CharString>
          <CharString index="20">
            rmoveto
            19 3 7 callgsubr
            -8 -68 0 -42 hhcurveto
            -43 -67 0 20 -2 28 callsubr
            -3 vhcurveto
            -82 -14 110 0 66 hhcurveto
            66 110 0 82 14 hvcurveto
            return
          </CharString>
          <CharString index="21">
            38 225 rlineto
            199 hlineto
            -41 -7 -3 -16 35 hhcurveto
            34 4 22 19 3 hvcurveto
            175 callgsubr
            -199 hlineto
            return
          </CharString>
          <CharString index="22">
            604 41 rmoveto
            15 89 rlineto
            20 3 4 21 -34 hhcurveto
            -35 -4 -20 -21 -3 hvcurveto
            -12 -69 rlineto
            -319 hlineto
            82 489 8 callgsubr
            -201 -104 callsubr
            471 -41 callsubr
            return
          </CharString>
          <CharString index="23">
            52 callgsubr
            hintmask 1100100110011001
            -78 callsubr
            hintmask 0000000001000000
            1 4 4 14 6 10 rrcurveto
            hintmask 0010000000100010
            -2 2 34 -23 49 hhcurveto
            92 85 72 89 15 hvcurveto
            hintmask 0011000010010100
            5 30 -4 29 -12 28 23 12 24 4 14 1 rrcurveto
            -27 1 22 -7 10 hhcurveto
            17 25 12 29 5 hvcurveto
            -199 -111 rmoveto
            -57 -9 -52 -44 -52 hhcurveto
            -54 -34 47 53 9 hvcurveto
            hintmask 1100100101000100
            57 10 51 44 52 hhcurveto
            54 34 -47 -53 -9 hvcurveto
            48 -359 rmoveto
            -44 -7 -82 -43 -100 hhcurveto
            -100 -68 43 44 7 hvcurveto
            3 18 15 32 35 20 rrcurveto
            16 28 9 0 73 hhcurveto
            hintmask 0000000000000001
            89 113 0 -86 -15 hvcurveto
            return
          </CharString>
          <CharString index="24">
            -40 hhcurveto
            -83 -79 callgsubr
            return
          </CharString>
          <CharString index="25">
            -30 callsubr
            -17 -15 -20 -4 hvcurveto
            -2 -11 2 -13 22 -11 124 -59 rcurveline
            -3 5 5 -2 7 hhcurveto
            26 12 32 8 1 hvcurveto
            endchar
          </CharString>
          <CharString index="26">
            42 7 2 13 -83 callsubr
            201 -52 callsubr
            -78 hlineto
            21 127 15 88 52 90 79 9 rlinecurve
            -36 -4 25 -7 13 hhcurveto
            22 23 16 27 5 hvcurveto
            return
          </CharString>
          <CharString index="27">
            -20 171 callsubr
            hintmask 11100100
            -107 callsubr
            return
          </CharString>
          <CharString index="28">
            hlineto
            -15 -25 -67 callsubr
            return
          </CharString>
          <CharString index="29">
            11 -14 -32 19 -46 hhcurveto
            -94 -84 -75 -85 -14 hvcurveto
            -7 -43 12 -33 11 -19 -13 -16 -13 -22 -5 -30 -6 -35 10 -25 7 -12 -82 -45 -11 -68 -2 -11 rrcurveto
            -86 -14 95 -61 128 hhcurveto
            128 115 62 85 14 hvcurveto
            6 37 -9 50 -47 27 rrcurveto
            7 -11 -39 22 -90 hhcurveto
            -70 hlineto
            -8 -13 0 2 -7 hvcurveto
            -15 -6 0 14 -10 hvcurveto
            -9 14 3 22 0 vvcurveto
            return
          </CharString>
          <CharString index="30">
            800 644 rmoveto
            5 30 -6 36 -37 1 -31 -1 -24 -24 -4 -25 -3 -19 7 -17 15 -9 -5 -4 -5 -3 -7 -3 rrcurveto
            3 -4 -5 2 -6 hhcurveto
            -107 108 callsubr
            hintmask 0100000001000000
            -16 -2 10 -12 16 hhcurveto
            66 hlineto
            -58 -346 rlineto
            hintmask 1000001010000000
            -7 -41 -24 -39 -36 -28 rrcurveto
            -30 -37 -46 -16 -45 hhcurveto
            -45 -40 16 30 -27 hvcurveto
            -26 28 -12 39 7 41 rrcurveto
            hintmask 0100000100000000
            58 346 rlineto
            66 hlineto
            16 14 12 16 2 hvcurveto
            hintmask 0010000000000000
            1 5 rlineto
            hintmask 0100000000000000
            15 3 -10 13 -16 hhcurveto
            -201 108 callsubr
            hintmask 0100000100000000
            -16 -2 10 -12 16 hhcurveto
            66 hlineto
            hintmask 1010001001000000
            -58 -346 -10 -59 18 -55 38 -39 rlinecurve
            -41 38 56 -21 62 hhcurveto
            62 64 21 41 52 hvcurveto
            51 39 35 55 10 59 57 342 rcurveline
            46 13 40 38 7 47 rrcurveto
            return
          </CharString>
          <CharString index="31">
            -93 callsubr
            hintmask 00001100
            return
          </CharString>
          <CharString index="32">
            rmoveto
            -18 -3 -29 -11 -24 hhcurveto
            -27 -22 12 17 3 hvcurveto
            18 3 29 11 24 hhcurveto
            27 22 -12 -17 -3 hvcurveto
            66 hmoveto
            36 6 -47 30 -64 hhcurveto
            -69 -54 -31 -35 -6 hvcurveto
            -36 -6 47 -30 64 hhcurveto
            69 54 31 35 6 hvcurveto
            return
          </CharString>
          <CharString index="33">
            44 callgsubr
            48 callgsubr
            hintmask 1100111001100100
            -78 callsubr
            hintmask 0000000100000000
            1 4 4 14 6 10 rrcurveto
            hintmask 0010000010001000
            -2 2 34 -23 49 hhcurveto
            92 85 72 89 15 hvcurveto
            hintmask 0011001001010000
            5 30 -4 29 -12 28 23 12 24 4 14 1 rrcurveto
            -27 1 22 -7 10 hhcurveto
            17 25 12 29 5 hvcurveto
            -199 -111 rmoveto
            -57 -9 -52 -44 -52 hhcurveto
            -54 -34 47 53 9 hvcurveto
            hintmask 1100110100010000
            57 10 51 44 52 hhcurveto
            54 34 -47 -53 -9 hvcurveto
            48 -359 rmoveto
            -44 -7 -82 -43 -100 hhcurveto
            -100 -68 43 44 7 hvcurveto
            3 18 15 32 35 20 rrcurveto
            16 28 9 0 73 hhcurveto
            hintmask 0000000000000100
            89 113 0 -86 -15 hvcurveto
            return
          </CharString>
          <CharString index="34">
            123 callsubr
            363 -65 callsubr
            return
          </CharString>
          <CharString index="35">
            -90 callgsubr
            endchar
          </CharString>
          <CharString index="36">
            -106 callsubr
            177 -104 callgsubr
            return
          </CharString>
          <CharString index="37">
            824 580 rmoveto
            1 callgsubr
            23 hlineto
            -215 -236 -134 236 -31 callgsubr
            174 -306 rlineto
            hintmask 10000100
            -32 callsubr
            hintmask 01000010
            31 183 276 306 79 callsubr
            return
          </CharString>
          <CharString index="38">
            rmoveto
            38 13 -9 54 -38 -11 -115 -33 rcurveline
            -103 33 -34 11 -27 -54 33 -13 rlinecurve
            110 -43 6 -2 7 0 6 2 rlinecurve
            endchar
          </CharString>
          <CharString index="39">
            rlineto
            31 5 -4 10 -34 -54 callsubr
            return
          </CharString>
          <CharString index="40">
            0 -30 -5 hvcurveto
            -31 -5 return
          </CharString>
          <CharString index="41">
            748 73 callgsubr
            -36 hlineto
            -207 296 270 193 rlineto
            40 -81 callgsubr
            -145 -79 callsubr
            20 0 35 hhcurveto
            -402 -288 48 288 -3 callsubr
            -164 -104 callsubr
            164 -52 callsubr
            -54 hlineto
            22 129 184 132 183 -261 rlineto
            -36 -20 0 -31 -5 hvcurveto
            -30 -5 25 0 15 hhcurveto
            126 -26 callsubr
            return
          </CharString>
          <CharString index="42">
            9 callgsubr
            12 73 rlineto
            31 5 -4 10 -34 hhcurveto
            return
          </CharString>
          <CharString index="43">
            -20 -97 callgsubr
            return
          </CharString>
          <CharString index="44">
            78 callsubr
            hintmask 11000101
            -88 callgsubr
            hintmask 11000110
            -22 callsubr
            hintmask 10001000
            -21 callsubr
            return
          </CharString>
          <CharString index="45">
            716 22 callgsubr
            38 callsubr
            54 hlineto
            -34 -202 rlineto
            -339 hlineto
            34 202 -3 callsubr
            return
          </CharString>
          <CharString index="46">
            -13 11 16 -21 34 hhcurveto
            27 31 163 callgsubr
            22 15 33 22 3 18 rrcurveto
            endchar
          </CharString>
          <CharString index="47">
            rmoveto
            12 71 -37 59 -61 30 62 36 37 57 9 54 rrcurveto
            74 13 -62 67 -115 hhcurveto
            -120 -78 -48 -69 -12 hvcurveto
            -33 -5 22 -14 20 hhcurveto
            21 26 17 28 5 hvcurveto
            2 14 -4 10 -3 3 rrcurveto
            31 37 71 0 9 hhcurveto
            68 44 -36 -45 -8 hvcurveto
            -5 -30 -21 -35 -30 -22 -37 -26 -25 -2 -36 -2 -58 -4 -15 0 -5 -29 rrcurveto
            46 callsubr
            46 hlineto
            hintmask 10010100
            99 40 -67 -58 -10 hvcurveto
            -61 -10 -67 -63 -91 hhcurveto
            -40 -75 11 47 -18 hvcurveto
            6 5 8 6 3 20 rrcurveto
            24 4 -15 20 -25 hhcurveto
            -23 -25 -15 -32 -5 hvcurveto
            -89 -15 87 -58 123 hhcurveto
            131 return
          </CharString>
          <CharString index="48">
            -57 callsubr
            32 190 rlineto
            31 5 -4 10 -34 hhcurveto
            -83 -104 callsubr
            177 hlineto
            15 25 0 30 5 hvcurveto
            return
          </CharString>
          <CharString index="49">
            -58 callgsubr
            -54 hlineto
            return
          </CharString>
          <CharString index="50">
            570 183 callsubr
            108 18 -56 38 -82 hhcurveto
            -58 -54 -21 -36 -45 hvcurveto
            return
          </CharString>
          <CharString index="51">
            30 -46 callgsubr
            return
          </CharString>
          <CharString index="52">
            201 -47 rmoveto
            73 437 -53 callsubr
            -92 23 callgsubr
            63 hlineto
            -69 -413 rlineto
            -37 -6 -21 -87 -60 hhcurveto
            -6 -21 1 4 -2 hvcurveto
            -1 3 rlineto
            51 9 -35 2 -9 hhcurveto
            -23 -25 -17 -29 -4 hvcurveto
            hintmask 10000000
            -46 -8 39 -30 73 hhcurveto
            105 51 108 73 12 hvcurveto
            return
          </CharString>
          <CharString index="53">
            hhcurveto
            -83 -105 callsubr
            return
          </CharString>
          <CharString index="54">
            rlineto
            31 5 -4 10 -34 hhcurveto
            return
          </CharString>
          <CharString index="55">
            -104 callgsubr
            -101 callgsubr
            return
          </CharString>
          <CharString index="56">
            -12 16 -16 hhcurveto
            -11 -7 -5 -6 -8 hvcurveto
            return
          </CharString>
          <CharString index="57">
            -25 0 -30 -5 hvcurveto
            return
          </CharString>
          <CharString index="58">
            884 22 callgsubr
            -96 hlineto
            -20 -23 0 -35 -21 hvcurveto
            -302 -501 -136 499 rlineto
            30 -8 -11 7 -33 hhcurveto
            -96 -104 callsubr
            164 -52 callsubr
            -54 hlineto
            81 484 rlineto
            1 hlineto
            135 -497 rlineto
            -12 3 7 -25 28 hhcurveto
            9 22 4 31 19 hvcurveto
            301 499 rlineto
            1 hlineto
            -81 -484 95 callgsubr
            164 -104 callgsubr
            return
          </CharString>
          <CharString index="59">
            -16 16 hhcurveto
            11 7 5 6 8 hvcurveto
            return
          </CharString>
          <CharString index="60">
            hlineto
            -83 callgsubr
            return
          </CharString>
          <CharString index="61">
            -75 callsubr
            endchar
          </CharString>
          <CharString index="62">
            541 73 callgsubr
            -35 hlineto
            -124 194 149 115 rlineto
            39 -81 callgsubr
            -164 -107 callgsubr
            40 hlineto
            -200 -154 59 354 -53 callsubr
            -70 -104 callsubr
            164 -52 callsubr
            -54 hlineto
            14 80 99 77 101 -157 rlineto
            -19 -90 callsubr
            126 -26 callsubr
            return
          </CharString>
          <CharString index="63">
            -87 callsubr
            endchar
          </CharString>
          <CharString index="64">
            99 callsubr
            78 callsubr
            hintmask 11010100
            -88 callgsubr
            hintmask 11011000
            -22 callsubr
            hintmask 10100000
            -21 callsubr
            return
          </CharString>
          <CharString index="65">
            778 300 rmoveto
            171 29 -121 140 -176 hhcurveto
            -322 hlineto
            -16 -24 0 -31 -5 hvcurveto
            -30 -5 25 0 15 hhcurveto
            54 hlineto
            -82 -489 86 callsubr
            82 489 192 callgsubr
            return
          </CharString>
          <CharString index="66">
            hlineto
            33 9 9 32 5 hvcurveto
            return
          </CharString>
          <CharString index="67">
            -8 3 -7 4 -5 rrcurveto
            -1 vlineto
            -5 5 7 -3 7 hhcurveto
            7 8 -14 callgsubr
            return
          </CharString>
          <CharString index="68">
            -515 -107 callgsubr
            return
          </CharString>
          <CharString index="69">
            127 128 callgsubr
            99 69 -12 69 -60 69 308 69 hintmask 11001100
            -26 callgsubr
            hintmask 00100000
            -33 -9 -8 -33 -6 hvcurveto
            hintmask 00010000
            -13 callgsubr
            hintmask 01001000
            51 callsubr
            hintmask 10100000
            -34 -6 22 0 19 hhcurveto
            450 -41 callsubr
            return
          </CharString>
          <CharString index="70">
            59 10 -23 32 -36 hhcurveto
            -29 -25 -23 -27 -5 hvcurveto
            -1 -6 -6 -42 52 -2 -12 -46 -31 -24 -16 -11 -9 -6 -10 -6 -2 -15 rrcurveto
            -14 -3 13 -17 17 hhcurveto
            22 79 59 89 15 hvcurveto
            return
          </CharString>
          <CharString index="71">
            rmoveto
            32 5 -23 0 -17 hhcurveto
            -298 187 callsubr
            297 hlineto
            16 24 0 31 6 hvcurveto
            endchar
          </CharString>
          <CharString index="72">
            2 callsubr
            -5 hvcurveto
            return
          </CharString>
          <CharString index="73">
            -95 callsubr
            -5 104 rmoveto
            -8 -1 -13 -32 -26 hhcurveto
            -7 -4 2 3 -6 hvcurveto
            143 callgsubr
            123 -60 13 -6 10 130 callgsubr
          </CharString>
          <CharString index="74">
            -6 61 0 60 0 60 14 60 -58 60 128 61 hstemhm
            73 69 35 69 -34 72 -38 72 59 70 -61 72 hintmask 0100110100100000
            746 -8 callsubr
            -38 -65 -11 -69 -69 hvcurveto
            80 -37 -94 0 -28 hhcurveto
            -42 -100 0 -73 -12 hvcurveto
            -30 -5 19 -16 24 hhcurveto
            16 28 10 36 7 hvcurveto
            2 8 1 1 15 2 rrcurveto
            hintmask 1001011010010000
            1 15 9 0 14 hhcurveto
            78 39 -35 -65 -10 hvcurveto
            -5 -30 -64 -2 -229 -7 -20 -122 rlinecurve
            -64 -11 51 -60 99 hhcurveto
            49 103 11 68 44 hvcurveto
            -66 46 68 -13 43 hhcurveto
            116 61 89 26 4 hvcurveto
            -46 142 rmoveto
            hintmask 0100111001010000
            -242 hlineto
            78 28 68 50 60 hhcurveto
            72 20 -62 -66 -6 hvcurveto
            -330 -124 rmoveto
            -2 -15 -4 -25 -46 -17 rrcurveto
            -14 -37 -39 -1 -11 hhcurveto
            -59 -36 28 36 6 hvcurveto
            hintmask 0011000000100000
            6 35 77 17 15 4 49 11 39 1 49 2 -5 -45 -1 -10 -1 -7 rrcurveto
            endchar
          </CharString>
          <CharString index="75">
            -31 -183 -58 callsubr
            return
          </CharString>
          <CharString index="76">
            -16 -2 -20 callgsubr
            return
          </CharString>
          <CharString index="77">
            rmoveto
            -56 callgsubr
            return
          </CharString>
          <CharString index="78">
            134 callsubr
            34 -21 53 -20 101 136 callsubr
            hintmask 0101010010000000
            5 callsubr
            hintmask 0010000001000000
            18 callsubr
            hintmask 1010000110000000
            -15 -2 103 callgsubr
            66 hlineto
            -38 -223 rlineto
            -51 -8 -62 -39 -70 hhcurveto
            -37 -22 3 12 -17 hvcurveto
            -9 7 -5 14 3 18 rrcurveto
            hintmask 0001000000000000
            49 292 rlineto
            hintmask 0010000000000000
            16 3 -11 12 -15 hhcurveto
            -107 hlineto
            hintmask 0001000000000000
            -16 -15 -12 -16 -3 hvcurveto
            -1 -5 rlineto
            hintmask 1010000100000000
            4 callsubr
            return
          </CharString>
          <CharString index="79">
            4 -26 hhcurveto
            -3 hlineto
            -48 -51 -30 -50 return
          </CharString>
          <CharString index="80">
            316 -24 callgsubr
            return
          </CharString>
          <CharString index="81">
            hlineto
            15 26 -95 callgsubr
            return
          </CharString>
          <CharString index="82">
            4 21 20 3 hvcurveto
            return
          </CharString>
          <CharString index="83">
            -52 callsubr
            -78 hlineto
            return
          </CharString>
          <CharString index="84">
            207 176 -86 callgsubr
            return
          </CharString>
          <CharString index="85">
            59 hlineto
            -82 -489 rlineto
            -59 -35 callsubr
            return
          </CharString>
          <CharString index="86">
            -30 -5 25 0 15 hhcurveto
            187 -104 callgsubr
            return
          </CharString>
          <CharString index="87">
            18 callgsubr
            hintmask 00100000
            -28 -35 -28 -45 callgsubr
            hintmask 00010000
            -51 callgsubr
            hintmask 00100000
            25 callsubr
            hintmask 00010000
            2 callgsubr
            hintmask 00100000
            -40 callgsubr
          </CharString>
          <CharString index="88">
            18 callgsubr
            hintmask 00001000
            -28 -35 -28 -45 callgsubr
            hintmask 00000100
            -51 callgsubr
            hintmask 00001000
            25 callsubr
            hintmask 00000100
            2 callgsubr
            hintmask 00001000
            -40 callgsubr
          </CharString>
          <CharString index="89">
            139 callsubr
            -6 -17 -12 -4 hvcurveto
            -20 -9 -68 0 -42 hhcurveto
            -43 -67 0 20 -1 hvcurveto
            12 -2 3 callsubr
            -3 69 callgsubr
          </CharString>
          <CharString index="90">
            5 callsubr
            hintmask 0010000010000000
            18 callsubr
            hintmask 1010001100000000
            -15 -2 103 callgsubr
            66 hlineto
            -38 -223 rlineto
            -51 -8 -62 -39 -70 hhcurveto
            -37 -22 3 12 -17 hvcurveto
            -9 7 -5 14 3 18 rrcurveto
            hintmask 0001000000000000
            49 292 rlineto
            hintmask 0010000000000000
            16 3 -11 12 -15 hhcurveto
            -107 hlineto
            hintmask 0001000000000000
            -16 -15 -12 -16 -3 hvcurveto
            -1 -5 rlineto
            hintmask 1010001000000000
            4 callsubr
            hintmask 0000010000000000
            return
          </CharString>
          <CharString index="91">
            -56 callsubr
            -54 hlineto
            return
          </CharString>
          <CharString index="92">
            hstemhm
            hintmask 00110000
            504 31 rmoveto
            30 5 -25 0 -15 hhcurveto
            -38 -8 4 4 -8 hvcurveto
            36 216 rlineto
            73 12 -42 82 -138 hhcurveto
            -42 -100 0 -73 -12 hvcurveto
            -30 -5 19 -16 24 hhcurveto
            17 27 10 36 7 hvcurveto
            2 8 1 1 16 2 rrcurveto
            1 12 13 0 12 hhcurveto
            73 45 -31 -71 -12 hvcurveto
            -180 -3 -120 -55 -16 -91 rrcurveto
            hintmask 11000000
            -70 -11 52 -64 97 hhcurveto
            66 53 20 18 29 hvcurveto
            6 -11 10 -6 11 -5 -44 -25 -46 -46 91 callsubr
            hintmask 00100000
            7 43 47 36 58 31 rrcurveto
            27 22 167 callgsubr
            -148 103 rmoveto
            -3 -22 -4 -23 -42 -18 rrcurveto
            hintmask 01000000
            -16 -38 -42 0 -7 hhcurveto
            -60 -33 35 38 6 hvcurveto
            8 44 72 41 157 5 rrcurveto
            return
          </CharString>
          <CharString index="93">
            36 callsubr
            204 hmoveto
            -43 callgsubr
            endchar
          </CharString>
          <CharString index="94">
            11 callsubr
            204 hmoveto
            39 callgsubr
          </CharString>
          <CharString index="95">
            54 -104 callgsubr
            return
          </CharString>
          <CharString index="96">
            185 -200 100 100 62 callgsubr
            -2 callgsubr
            -27 101 248 69 -37 69 hintmask 0100100010000000
            677 41 rmoveto
            15 89 89 callgsubr
            37 callgsubr
            -12 -69 rlineto
            -392 hlineto
            hintmask 0010010000000000
            -86 callsubr
            hintmask 0001001001000000
            -73 callsubr
            hintmask 0001010000000000
            -39 callsubr
            hintmask 0101101000000000
            -59 callgsubr
            544 -41 callsubr
            return
          </CharString>
          <CharString index="97">
            54 hlineto
            -82 -489 -58 callsubr
            return
          </CharString>
          <CharString index="98">
            147 callsubr
            718 73 callgsubr
            -50 hlineto
            -168 263 209 226 rlineto
            49 hlineto
            15 26 0 30 5 hvcurveto
            1 callgsubr
            22 hlineto
            -153 -168 -106 168 rlineto
            19 110 callgsubr
            -156 23 callgsubr
            49 hlineto
            145 -226 -244 -263 rlineto
            -49 hlineto
            -15 -26 100 callgsubr
            156 110 callgsubr
            -23 hlineto
            191 212 129 -212 rlineto
            -21 -107 callgsubr
            157 hlineto
            14 27 -95 callgsubr
            endchar
          </CharString>
          <CharString index="99">
            109 rmoveto
            28 5 -29 0 -6 hhcurveto
            -15 -11 -2 -20 -11 hvcurveto
            -60 -34 -52 0 -12 hhcurveto
            -72 -63 53 83 1 hvcurveto
            273 hlineto
            22 18 0 38 6 hvcurveto
            120 20 -48 91 -114 hhcurveto
            return
          </CharString>
          <CharString index="100">
            -225 -4 callsubr
            return
          </CharString>
          <CharString index="101">
            -5 -6 23 callsubr
            return
          </CharString>
          <CharString index="102">
            214 70 callsubr
            328 69 -50 69 hintmask 00101001
            698 167 rmoveto
            11 68 -53 65 -111 20 72 17 88 46 12 73 rrcurveto
            81 14 -87 74 -133 hhcurveto
            -323 -107 callgsubr
            hintmask 11110110
            -59 callgsubr
            351 hlineto
            136 111 81 86 14 hvcurveto
            -50 288 rmoveto
            -56 -9 -88 -51 -118 hhcurveto
            -166 hlineto
            34 202 rlineto
            198 hlineto
            hintmask 10010001
            96 61 -45 -50 -8 hvcurveto
            -19 -286 rmoveto
            -62 -10 -97 -46 -103 hhcurveto
            -200 hlineto
            hintmask 01001010
            38 226 rlineto
            216 hlineto
            99 68 -56 -62 -11 hvcurveto
            endchar
          </CharString>
          <CharString index="103">
            514 -89 callgsubr
            return
          </CharString>
          <CharString index="104">
            rlineto
            54 -52 callsubr
            return
          </CharString>
          <CharString index="105">
            -15 -2 11 -13 16 hhcurveto
            66 hlineto
            -44 -259 -6 -36 9 -34 26 -20 rlinecurve
            -21 29 36 -5 46 hhcurveto
            49 50 15 26 39 hvcurveto
            -1 -7 rlineto
            return
          </CharString>
          <CharString index="106">
            16 14 hhcurveto
            10 7 -9 -12 11 hvcurveto
            return
          </CharString>
          <CharString index="107">
            534 27 callsubr
            return
          </CharString>
          <CharString index="108">
            33 -2 21 -16 -4 -22 rrcurveto
            -24 -4 -23 -16 -98 hhcurveto
            -31 -25 0 -31 -6 hvcurveto
            -24 -4 19 -7 11 hhcurveto
            84 129 0 101 17 hvcurveto
            return
          </CharString>
          <CharString index="109">
            hlineto
            -16 -24 0 -31 return
          </CharString>
          <CharString index="110">
            17 -24 -19 -14 -12 -19 return
          </CharString>
          <CharString index="111">
            -2 callsubr
            hintmask 0100000000000000
            61 callgsubr
            return
          </CharString>
          <CharString index="112">
            570 28 rmoveto
            1 5 rlineto
            16 2 -11 12 -15 hhcurveto
            -66 hlineto
            51 304 48 13 42 36 8 50 rlinecurve
            29 5 -6 37 -38 hhcurveto
            return
          </CharString>
          <CharString index="113">
            rlineto
            42 -81 callgsubr
            -135 -94 callsubr
            34 hlineto
            return
          </CharString>
          <CharString index="114">
            -14 callgsubr
            4 7 return
          </CharString>
          <CharString index="115">
            25 25 4 hvcurveto
            return
          </CharString>
          <CharString index="116">
            -101 callgsubr
            -54 hlineto
            30 176 rlineto
            return
          </CharString>
          <CharString index="117">
            16 -13 13 -16 vhcurveto
            -4 hlineto
            -11 -10 -7 -9 -5 hvcurveto
            -33 -68 -47 -62 -58 -52 rrcurveto
            -6 -5 -3 -8 -9 vvcurveto
            -6 2 -6 4 -5 vhcurveto
            39 -51 25 -61 11 -66 rrcurveto
            -13 2 12 -11 15 hhcurveto
            4 hlineto
            16 13 13 20 hvcurveto
            -10 66 -22 62 -33 55 52 54 42 61 32 67 rrcurveto
            1 3 1 4 5 vvcurveto
            return
          </CharString>
          <CharString index="118">
            8 rmoveto
            -37 callsubr
            return
          </CharString>
          <CharString index="119">
            35 3 19 28 5 hvcurveto
            264 hlineto
            -204 -184 -71 -220 -18 -110 rrcurveto
            -14 -2 -6 -33 35 hhcurveto
            17 19 11 29 5 hvcurveto
            52 284 182 174 71 59 23 18 return
          </CharString>
          <CharString index="120">
            rlineto
            19 3 43 callsubr
            -3 -21 -20 -3 hvcurveto
            return
          </CharString>
          <CharString index="121">
            -56 callsubr
            -78 hlineto
            hintmask 01101001
            57 340 rlineto
            33 5 -5 8 -34 hhcurveto
            -28 hlineto
            -24 -5 -1 -20 -17 hvcurveto
            -285 -346 -12 -13 0 -2 -3 -20 rlinecurve
            -33 -6 8 -7 31 hhcurveto
            252 hlineto
            hintmask 10010010
            -20 -120 35 callsubr
            hintmask 01001001
            20 120 145 callgsubr
            -169 31 rmoveto
            -222 hlineto
            hintmask 01000100
            278 337 rlineto
            endchar
          </CharString>
          <CharString index="122">
            441 375 rmoveto
            28 4 -19 34 -50 hhcurveto
            -52 -45 -26 -35 -36 hvcurveto
            return
          </CharString>
          <CharString index="123">
            38 rmoveto
            3 17 rlineto
            19 3 -2 18 -29 hhcurveto
            hintmask 10110000
            -25 -12 -11 -20 -4 hvcurveto
            -206 hlineto
            184 88 68 33 52 44 11 69 rlinecurve
            110 19 -116 37 -105 hhcurveto
            -67 -123 -14 -95 -15 hvcurveto
            -27 -5 16 -19 24 hhcurveto
            22 20 19 20 6 hvcurveto
            2 8 -3 9 2 8 rrcurveto
            2 vlineto
            28 15 88 0 8 hhcurveto
            62 92 -16 -71 -12 hvcurveto
            -10 -60 -71 -31 -99 -48 -181 -88 rcurveline
            -12 -6 -22 -9 -4 -22 rrcurveto
            -28 -5 22 -2 16 hhcurveto
            348 hlineto
            26 15 9 29 4 hvcurveto
            endchar
          </CharString>
          <CharString index="124">
            rmoveto
            28 4 111 callgsubr
            -4 hvcurveto
            -28 -5 18 -22 28 hhcurveto
            28 26 22 28 5 hvcurveto
            return
          </CharString>
          <CharString index="125">
            13 callgsubr
            hintmask 0001000000000000
            -15 -15 -12 -16 -3 hvcurveto
            -1 -5 rlineto
            return
          </CharString>
          <CharString index="126">
            -48 -200 100 94 32 callsubr
            hstemhm
            158 101 hintmask 00111000
            455 109 rmoveto
            28 5 -29 0 -6 hhcurveto
            -16 -10 -2 -20 -11 hvcurveto
            -48 -28 -50 -12 -32 hhcurveto
            -75 -62 54 82 hvcurveto
            288 hlineto
            21 19 0 37 6 hvcurveto
            119 20 -51 93 -123 hhcurveto
            -118 -109 -102 -120 -20 hvcurveto
            hintmask 01011000
            -124 -20 82 -100 126 hhcurveto
            127 62 89 26 4 hvcurveto
            -47 142 rmoveto
            -256 hlineto
            75 26 67 53 66 hhcurveto
            50 56 -25 -103 -9 hvcurveto
            return
          </CharString>
          <CharString index="127">
            295 507 -90 callgsubr
            return
          </CharString>
          <CharString index="128">
            rmoveto
            101 17 -61 98 -118 hhcurveto
            -35 -45 -7 -22 201 callsubr
            240 -52 callsubr
            -269 hlineto
            -33 return
          </CharString>
          <CharString index="129">
            71 55 37 27 30 hvcurveto
            -3 -17 rlineto
            -31 -5 4 -10 34 5 callgsubr
            -135 167 rmoveto
            return
          </CharString>
          <CharString index="130">
            61 -55 61 157 61 100 61 return
          </CharString>
          <CharString index="131">
            0 61 214 61 214 98 callsubr
            return
          </CharString>
          <CharString index="132">
            -16 -3 13 -48 callsubr
            return
          </CharString>
          <CharString index="133">
            67 callgsubr
            -13 15 -20 hhcurveto
            0 -8 0 -11 190 callsubr
            -2 165 callgsubr
            143 -68 callgsubr
          </CharString>
          <CharString index="134">
            570 -87 callsubr
            return
          </CharString>
          <CharString index="135">
            hvcurveto
            12 -1 3 callsubr
            return
          </CharString>
          <CharString index="136">
            61 111 61 390 -20 return
          </CharString>
          <CharString index="137">
            185 0 62 callgsubr
            return
          </CharString>
          <CharString index="138">
            52 hlineto
            -41 -247 rlineto
            -102 -17 62 -27 47 hhcurveto
            67 66 54 77 13 hvcurveto
            return
          </CharString>
          <CharString index="139">
            61 0 60 76 60 128 61 return
          </CharString>
          <CharString index="140">
            -20 -18 -15 -20 -3 hvcurveto
            return
          </CharString>
          <CharString index="141">
            116 callgsubr
            35 -3 -3 -13 -6 -24 -34 -24 -6 -5 -6 65 callgsubr
            -2 9 -13 13 hhcurveto
            17 58 45 67 11 hvcurveto
            endchar
          </CharString>
          <CharString index="142">
            rlineto
            -62 -107 callgsubr
            180 -52 callsubr
            -62 hlineto
            return
          </CharString>
          <CharString index="143">
            580 rmoveto
            -43 callgsubr
            return
          </CharString>
          <CharString index="144">
            -60 -10 -69 -82 -85 hhcurveto
            -83 -54 73 87 15 hvcurveto
            91 15 86 70 86 hhcurveto
            70 50 -54 -59 -10 hvcurveto
            return
          </CharString>
          <CharString index="145">
            -177 -107 callgsubr
            return
          </CharString>
          <CharString index="146">
            31 rmoveto
            19 3 -12 11 -24 hhcurveto
            -93 hlineto
            58 347 rlineto
            20 3 -7 14 -21 hhcurveto
            -14 -11 -10 -8 -12 hvcurveto
            -32 -19 -36 -3 -33 -3 rrcurveto
            -12 hlineto
            -18 -16 -9 -18 -4 hvcurveto
            -3 vlineto
            -20 -4 11 -11 24 hhcurveto
            35 32 8 8 36 hvcurveto
            -49 -293 rlineto
            -94 hlineto
            -25 -14 -11 -19 -3 hvcurveto
            -25 -4 16 -6 22 hhcurveto
            259 hlineto
            22 14 12 19 3 hvcurveto
            endchar
          </CharString>
          <CharString index="147">
            157 callgsubr
            -24 -25 -25 return
          </CharString>
          <CharString index="148">
            -56 callsubr
            -91 hlineto
            87 520 rlineto
            16 3 4 25 -30 hhcurveto
            -13 -6 -5 -12 -12 hvcurveto
            -45 -41 -60 -2 -21 -1 -15 -1 -16 -8 -4 -22 rrcurveto
            hintmask 11010000
            -30 -5 27 0 8 hhcurveto
            28 46 8 16 32 hvcurveto
            -77 -463 rlineto
            -91 -107 callgsubr
            251 184 callsubr
          </CharString>
          <CharString index="149">
            23 -17 66 callgsubr
            -10 hvcurveto
            -1 -8 3 -7 4 -5 rrcurveto
            -1 vlineto
            -5 5 return
          </CharString>
          <CharString index="150">
            3 75 callsubr
            return
          </CharString>
          <CharString index="151">
            -9 -52 rlineto
            -42 -10 callgsubr
            hintmask 0100100000000000
            43 hlineto
            return
          </CharString>
          <CharString index="152">
            16 34 16 rlinecurve
            22 11 18 21 return
          </CharString>
          <CharString index="153">
            -31 -5 24 0 16 hhcurveto
            return
          </CharString>
          <CharString index="154">
            665 59 rmoveto
            29 24 -21 25 -7 8 -158 190 rcurveline
            222 190 9 8 29 25 -21 24 rlinecurve
            -20 25 -29 -25 -9 -8 -222 -190 rcurveline
            -158 190 -7 8 -21 25 -28 -25 rlinecurve
            -29 -24 21 -25 7 -8 158 -190 rcurveline
            -222 -190 -9 -8 -29 -25 21 -24 rlinecurve
            20 -25 29 25 9 8 return
          </CharString>
          <CharString index="155">
            -18 -3 19 0 6 hhcurveto
            20 32 5 9 23 hvcurveto
            -46 -277 rlineto
            -65 hlineto
            -12 -17 162 callgsubr
            18 0 11 hhcurveto
            180 hlineto
            11 18 0 18 3 hvcurveto
            return
          </CharString>
          <CharString index="156">
            74 callsubr
            -18 14 rrcurveto
            14 return
          </CharString>
          <CharString index="157">
            28 34 29 16 14 hhcurveto
            10 return
          </CharString>
          <CharString index="158">
            9 53 rlineto
            344 hlineto
            -497 -485 -13 -12 -2 -3 -2 -16 rlinecurve
            return
          </CharString>
          <CharString index="159">
            65 callsubr
            125 89 callsubr
            -17 return
          </CharString>
          <CharString index="160">
            hvcurveto
            44 callsubr
            hintmask 1001000000000000
            -52 -309 -58 callsubr
            hintmask 0100100100000000
            52 309 rlineto
            223 hlineto
            return
          </CharString>
          <CharString index="161">
            -19 23 -27 hhcurveto
            return
          </CharString>
          <CharString index="162">
            -16 -14 -13 -15 -3 hvcurveto
            -1 -5 rlineto
            return
          </CharString>
          <CharString index="163">
            20 4 -5 5 -24 hhcurveto
            -21 hlineto
            -17 -4 -1 -12 -11 hvcurveto
            -200 -215 -8 -7 0 -2 -2 -12 rlinecurve
            -19 -3 6 -5 22 hhcurveto
            182 hlineto
            -11 -64 rlineto
            -45 hlineto
            -11 -18 162 callgsubr
            18 0 11 hhcurveto
            130 hlineto
            10 18 0 18 3 hvcurveto
            19 3 -17 0 -11 hhcurveto
            -45 hlineto
            return
          </CharString>
          <CharString index="164">
            -82 -89 -23 -71 -12 hvcurveto
            -58 -10 54 -35 63 hhcurveto
            82 89 19 52 40 hvcurveto
            -33 62 58 -38 74 hhcurveto
            83 77 70 85 14 hvcurveto
            -425 -56 rmoveto
            -29 -24 -63 0 -55 hhcurveto
            -25 -28 2 21 4 hvcurveto
            hintmask 0001000000000000
            24 4 55 0 43 hhcurveto
            hintmask 0010000000000000
            32 28 -8 -10 29 hvcurveto
            endchar
          </CharString>
          <CharString index="165">
            114 683 rlineto
            12 2 6 35 -35 hhcurveto
            -35 -6 -35 -12 -2 hvcurveto
            -114 -683 rlineto
            -12 -2 -6 -35 35 hhcurveto
            35 6 35 12 2 hvcurveto
            return
          </CharString>
          <CharString index="166">
            hvcurveto
            44 callsubr
            hintmask 1001000100000000
            -52 -309 -71 callsubr
            hintmask 1001001000000000
            -101 callgsubr
            -54 hlineto
            return
          </CharString>
          <CharString index="167">
            105 callsubr
            -2 callgsubr
            return
          </CharString>
          <CharString index="168">
            302 56 callgsubr
            return
          </CharString>
          <CharString index="169">
            rmoveto
            -222 hlineto
            135 callsubr
            41 41 0 22 hhcurveto
            19 13 0 -2 19 hvcurveto
            -10 1 -13 10 -8 vhcurveto
            endchar
          </CharString>
          <CharString index="170">
            rmoveto
            35 6 -37 0 -14 hhcurveto
            -598 hlineto
            -14 -37 0 -35 -6 hvcurveto
            -35 -6 33 0 12 hhcurveto
            610 hlineto
            12 33 0 35 6 hvcurveto
            return
          </CharString>
          <CharString index="171">
            594 79 callgsubr
            return
          </CharString>
          <CharString index="172">
            0 75 callgsubr
            return
          </CharString>
          <CharString index="173">
            61 489 61 return
          </CharString>
          <CharString index="174">
            59 -22 11 -2 13 2 11 rlinecurve
            20 return
          </CharString>
          <CharString index="175">
            21 callgsubr
            endchar
          </CharString>
          <CharString index="176">
            rlineto
            78 13 66 0 29 hhcurveto
            -4 -1 3 -39 35 hhcurveto
            20 25 16 28 5 hvcurveto
            endchar
          </CharString>
          <CharString index="177">
            0 60 callsubr
            return
          </CharString>
          <CharString index="178">
            83 callgsubr
            hstemhm
            return
          </CharString>
          <CharString index="179">
            hlineto
            17 16 14 17 101 callsubr
            return
          </CharString>
          <CharString index="180">
            -200 100 100 66 callsubr
            return
          </CharString>
          <CharString index="181">
            rmoveto
            4 25 -10 23 return
          </CharString>
          <CharString index="182">
            22 -34 hhcurveto
            -35 return
          </CharString>
          <CharString index="183">
            591 rmoveto
            19 3 -13 16 -20 hhcurveto
            -11 -12 -6 -8 -7 hvcurveto
            -515 -571 -5 -6 -4 -7 -2 -8 rlinecurve
            -19 -3 13 -16 19 hhcurveto
            12 11 6 8 9 hvcurveto
            515 571 5 6 3 7 2 8 rlinecurve
            endchar
          </CharString>
          <CharString index="184">
            89 callgsubr
            -3 return
          </CharString>
          <CharString index="185">
            99 callgsubr
            0 69 return
          </CharString>
          <CharString index="186">
            rlineto
            48 -26 callsubr
            return
          </CharString>
          <CharString index="187">
            -35 hhcurveto
            -34 -4 -21 -18 -3 hvcurveto
            return
          </CharString>
          <CharString index="188">
            10 71 callgsubr
            return
          </CharString>
          <CharString index="189">
            hstemhm
            102 callsubr
            return
          </CharString>
          <CharString index="190">
            520 rmoveto
            -23 callgsubr
            return
          </CharString>
          <CharString index="191">
            141 callsubr
            hstemhm
            173 69 -59 69 -55 69 35 69 return
          </CharString>
          <CharString index="192">
            -191 -21 104 75 return
          </CharString>
          <CharString index="193">
            -106 callsubr
            322 hlineto
            178 165 136 164 27 hvcurveto
            -69 1 rmoveto
            -131 -22 -136 -109 -151 hhcurveto
            -181 hlineto
            return
          </CharString>
          <CharString index="194">
            hlineto
            -17 -16 -14 -17 -3 hvcurveto
            -17 -3 12 -14 17 hhcurveto
            return
          </CharString>
          <CharString index="195">
            121 69 164 69 13 69 228 69 return
          </CharString>
          <CharString index="196">
            61 119 callsubr
            return
          </CharString>
          <CharString index="197">
            20 4 -13 15 -20 hhcurveto
            -11 -4 -3 -9 -13 hvcurveto
            -79 -56 -13 -9 -6 -4 -3 -14 rlinecurve
            -14 -2 13 -24 19 hhcurveto
            9 3 2 9 13 hvcurveto
            79 56 11 8 11 7 2 16 rlinecurve
            return
          </CharString>
          <CharString index="198">
            -8 -47 -77 callgsubr
            return
          </CharString>
          <CharString index="199">
            61 511 61 return
          </CharString>
          <CharString index="200">
            69 11 81 41 76 hhcurveto
            74 73 -26 -64 -11 hvcurveto
            179 callgsubr
            199 callsubr
            101 17 -98 59 -113 hhcurveto
            -115 -117 -73 -107 -18 hvcurveto
            return
          </CharString>
          <CharString index="201">
            hvcurveto
            -44 -266 rlineto
            -18 -3 -4 -23 32 hhcurveto
            18 5 5 10 return
          </CharString>
          <CharString index="202">
            16 -3 -18 0 -8 156 callsubr
            -7 -42 rlineto
            return
          </CharString>
          <CharString index="203">
            19 3 43 callsubr
            -2 122 callgsubr
            return
          </CharString>
          <CharString index="204">
            70 416 rlineto
            30 hlineto
            16 25 167 callgsubr
            return
          </CharString>
          <CharString index="205">
            61 127 callsubr
            return
          </CharString>
          <CharString index="206">
            -165 43 callgsubr
            return
          </CharString>
          <CharString index="207">
            -194 -228 61 0 61 476 61 return
          </CharString>
          <CharString index="208">
            3 hvcurveto
            85 callgsubr
            return
          </CharString>
          <CharString index="209">
            232 180 callsubr
            return
          </CharString>
          <CharString index="210">
            363 267 rmoveto
            19 3 -17 0 -12 hhcurveto
            -65 hlineto
            52 312 rlineto
            9 1 3 15 -22 hhcurveto
            -9 -5 -3 -7 -8 hvcurveto
            -25 -31 -43 -1 -16 hhcurveto
            return
          </CharString>
          <CharString index="211">
            52 309 rlineto
            222 hlineto
            -52 -309 rlineto
            return
          </CharString>
          <CharString index="212">
            196 callgsubr
            202 61 return
          </CharString>
          <CharString index="213">
            21 5 25 rrcurveto
            endchar
          </CharString>
          <CharString index="214">
            rmoveto
            32 5 -23 0 -17 hhcurveto
            -122 188 callsubr
            121 hlineto
            16 24 167 callgsubr
            endchar
          </CharString>
          <CharString index="215">
            hlineto
            hintmask 0010000000000000
            55 callsubr
            return
          </CharString>
          <CharString index="216">
            -3 15 0 9 hhcurveto
            99 hlineto
            9 15 0 18 3 hvcurveto
            return
          </CharString>
          <CharString index="217">
            rlineto
            34 -26 callsubr
            return
          </CharString>
          <CharString index="218">
            hhcurveto
            35 -25 callsubr
            12 return
          </CharString>
          <CharString index="219">
            17 -21 34 hhcurveto
            27 return
          </CharString>
          <CharString index="220">
            778 300 rmoveto
            171 29 -121 140 -176 hhcurveto
            -322 -105 callsubr
            return
          </CharString>
          <CharString index="221">
            -28 hhcurveto
            -4 -4 -1 -2 -5 hvcurveto
            3 -13 vlineto
            6 -27 -21 0 -26 hhcurveto
            return
          </CharString>
          <CharString index="222">
            10 -6 62 317 61 -56 61 -21 62 return
          </CharString>
          <CharString index="223">
            173 callsubr
            -39 callsubr
            return
          </CharString>
          <CharString index="224">
            -6 callsubr
            48 64 return
          </CharString>
          <CharString index="225">
            181 callsubr
            35 hhcurveto
            return
          </CharString>
          <CharString index="226">
            hstemhm
            121 69 return
          </CharString>
          <CharString index="227">
            741 144 rmoveto
            19 3 -12 16 -20 hhcurveto
            200 callgsubr
            -46 -8 -40 -39 -44 hhcurveto
            -70 -55 34 31 -57 hvcurveto
            return
          </CharString>
          <CharString index="228">
            rlineto
            -268 hlineto
            -12 -35 0 -35 -6 hvcurveto
            -35 -6 35 0 12 hhcurveto
            return
          </CharString>
          <CharString index="229">
            -159 -102 118 137 23 hvcurveto
            141 23 145 115 156 hhcurveto
            159 102 -118 -137 -23 hvcurveto
            return
          </CharString>
          <CharString index="230">
            34 203 rlineto
            return
          </CharString>
          <CharString index="231">
            hlineto
            -81 -138 rlineto
            -9 -14 -1 -5 -3 vvcurveto
            -18 -3 12 -17 20 hhcurveto
            23 10 16 13 7 hvcurveto
            98 166 rlineto
            return
          </CharString>
          <CharString index="232">
            61 hstemhm
            80 69 187 69 7 69 -15 69 return
          </CharString>
          <CharString index="233">
            203 callsubr
            hintmask 01000000
            return
          </CharString>
          <CharString index="234">
            hstemhm
            194 callsubr
            return
          </CharString>
          <CharString index="235">
            -11 132 callgsubr
            return
          </CharString>
          <CharString index="236">
            6 33 33 3 33 hhcurveto
            49 45 -5 -11 46 hvcurveto
            -12 28 -8 -19 28 hhcurveto
            23 15 204 callgsubr
            endchar
          </CharString>
          <CharString index="237">
            -35 -6 21 0 return
          </CharString>
          <CharString index="238">
            -13 -2 8 -11 13 hhcurveto
            24 hlineto
            12 13 11 13 2 hvcurveto
            return
          </CharString>
          <CharString index="239">
            24 4 -17 21 -25 hhcurveto
            -28 -21 -23 -22 -4 186 callsubr
            return
          </CharString>
          <CharString index="240">
            69 -7 69 236 69 -35 69 hintmask 00101010
            return
          </CharString>
          <CharString index="241">
            68 -6 123 callgsubr
            return
          </CharString>
          <CharString index="242">
            8 46 3 21 3 20 57 22 rlinecurve
            16 return
          </CharString>
          <CharString index="243">
            -20 145 callsubr
            return
          </CharString>
          <CharString index="244">
            43 callgsubr
            32 return
          </CharString>
          <CharString index="245">
            4 -18 5 rrcurveto
            6 -18 -28 8 -21 hhcurveto
            -35 -6 -28 -5 -1 hvcurveto
            -13 -2 2 -21 31 hhcurveto
            21 return
          </CharString>
          <CharString index="246">
            rmoveto
            19 3 47 callgsubr
            return
          </CharString>
          <CharString index="247">
            -31 -24 209 callgsubr
            -5 return
          </CharString>
          <CharString index="248">
            185 callgsubr
            123 -20 return
          </CharString>
          <CharString index="249">
            -123 59 -23 11 -1 13 1 184 callgsubr
            return
          </CharString>
          <CharString index="250">
            61 203 61 return
          </CharString>
          <CharString index="251">
            hstemhm
            88 callsubr
            return
          </CharString>
          <CharString index="252">
            hstemhm
            129 69 265 69 -69 70 return
          </CharString>
          <CharString index="253">
            hstemhm
            -4 87 146 87 return
          </CharString>
          <CharString index="254">
            43 callgsubr
            hstem
            return
          </CharString>
          <CharString index="255">
            19 -23 27 hhcurveto
            31 return
          </CharString>
          <CharString index="256">
            171 callgsubr
            hstem
            return
          </CharString>
          <CharString index="257">
            hlineto
            146 callgsubr
            -16 -2 -12 -10 -3 -18 rrcurveto
            -16 -3 7 -14 20 hhcurveto
            return
          </CharString>
          <CharString index="258">
            -16 callsubr
            55 329 -53 callsubr
            return
          </CharString>
          <CharString index="259">
            143 59 25 11 7 13 1 11 rlinecurve
            endchar
          </CharString>
          <CharString index="260">
            13 -11 -17 21 -34 hhcurveto
            -27 -30 -16 -17 -26 hvcurveto
            -23 -15 -32 -22 -3 -18 rrcurveto
            return
          </CharString>
          <CharString index="261">
            146 callgsubr
            -17 -2 -11 -10 -3 -18 rrcurveto
            -18 -3 9 -13 23 hhcurveto
            return
          </CharString>
          <CharString index="262">
            -20 hstemhm
            25 56 0 56 322 56 0 56 return
          </CharString>
          <CharString index="263">
            hhcurveto
            -34 -4 -22 -19 -3 hvcurveto
            return
          </CharString>
          <CharString index="264">
            180 callgsubr
            hstemhm
            return
          </CharString>
          <CharString index="265">
            61 278 61 161 61 hstem
            return
          </CharString>
          <CharString index="266">
            -200 100 100 75 callgsubr
            return
          </CharString>
          <CharString index="267">
            hstemhm
            296 69 -11 69 -38 69 return
          </CharString>
          <CharString index="268">
            -15 -3 103 callgsubr
            return
          </CharString>
          <CharString index="269">
            9 52 -34 32 -46 13 return
          </CharString>
          <CharString index="270">
            169 callsubr
            29 return
          </CharString>
          <CharString index="271">
            hlineto
            24 18 7 24 4 hvcurveto
            25 151 rmoveto
            28 5 -21 3 -23 hhcurveto
            return
          </CharString>
          <CharString index="272">
            41 callgsubr
            50 64 return
          </CharString>
          <CharString index="273" raw="1">
            8b9a1bb4 060b  
          </CharString>
          <CharString index="274">
            -48 -203 54 204 54 -54 60 22 54 0 60 128 61 return
          </CharString>
          <CharString index="275">
            hlineto
            -13 103 rlineto
            111 -165 rmoveto
            -70 -149 -20 149 rlineto
            return
          </CharString>
          <CharString index="276">
            -147 -169 -28 hvcurveto
            -173 -29 130 -144 196 hhcurveto
            return
          </CharString>
          <CharString index="277">
            101 callgsubr
            54 210 callgsubr
            return
          </CharString>
          <CharString index="278">
            hstemhm
            46 675 return
          </CharString>
          <CharString index="279">
            172 -38 callgsubr
            return
          </CharString>
          <CharString index="280">
            35 -25 callsubr
            12 73 -53 callsubr
            return
          </CharString>
          <CharString index="281">
            3 -15 0 -9 hhcurveto
            -58 hlineto
            -12 -14 0 -21 -13 hvcurveto
            -181 return
          </CharString>
          <CharString index="282">
            192 callgsubr
            endchar
          </CharString>
          <CharString index="283">
            -200 100 89 92 callsubr
            hstemhm
            return
          </CharString>
          <CharString index="284">
            90 62 71 callsubr
            return
          </CharString>
          <CharString index="285">
            71 callgsubr
            hstemhm
            return
          </CharString>
          <CharString index="286">
            56 callgsubr
            hstemhm
            return
          </CharString>
          <CharString index="287">
            69 339 69 return
          </CharString>
          <CharString index="288">
            -20 -3 -4 -21 return
          </CharString>
          <CharString index="289">
            -1 hvcurveto
            -35 -5 17 -14 24 hhcurveto
            24 23 17 29 5 hvcurveto
            return
          </CharString>
          <CharString index="290">
            -16 callsubr
            39 230 rlineto
            return
          </CharString>
          <CharString index="291">
            -104 callgsubr
            endchar
          </CharString>
          <CharString index="292">
            rrcurveto
            -35 -6 22 -4 11 hhcurveto
            30 8 25 14 2 hvcurveto
            return
          </CharString>
          <CharString index="293">
            hvcurveto
            -25 -4 17 -20 24 hhcurveto
            28 22 22 23 4 hvcurveto
            return
          </CharString>
          <CharString index="294">
            3 callgsubr
            -6 196 callsubr
            return
          </CharString>
          <CharString index="295">
            3 callgsubr
            -5 196 callsubr
            return
          </CharString>
          <CharString index="296">
            rlineto
            118 callsubr
            34 3 18 35 6 hvcurveto
            return
          </CharString>
          <CharString index="297">
            197 callsubr
            -8 return
          </CharString>
          <CharString index="298">
            rrcurveto
            39 6 2 13 -40 hhcurveto
            -30 -11 -5 -36 -6 hvcurveto
            return
          </CharString>
          <CharString index="299" raw="1">
            827f961f 13087e96 0b 
          </CharString>
          <CharString index="300">
            61 321 61 113 61 hstemhm
            return
          </CharString>
          <CharString index="301">
            150 69 13 69 return
          </CharString>
          <CharString index="302">
            -16 hhcurveto
            -201 hlineto
            return
          </CharString>
          <CharString index="303">
            24 0 17 hhcurveto
            return
          </CharString>
          <CharString index="304">
            -5 vhcurveto
            -143 -60 -15 -6 -12 -7 callgsubr
            return
          </CharString>
          <CharString index="305">
            28 34 29 -1 callsubr
            return
          </CharString>
          <CharString index="306">
            19 19 16 19 3 hvcurveto
            return
          </CharString>
          <CharString index="307">
            69 32 78 67 69 vstem
            return
          </CharString>
          <CharString index="308">
            -45 hvcurveto
            32 190 rlineto
            return
          </CharString>
          <CharString index="309">
            19 3 -13 16 -19 hhcurveto
            return
          </CharString>
          <CharString index="310">
            65 -10 65 hstemhm
            return
          </CharString>
          <CharString index="311">
            56 -36 56 -46 56 22 56 -21 56 hintmask 01000110
            return
          </CharString>
          <CharString index="312">
            rcurveline
            -18 14 -13 17 15 13 11 14 2 vhcurveto
            return
          </CharString>
          <CharString index="313">
            56 callgsubr
            52 71 callsubr
            return
          </CharString>
          <CharString index="314">
            147 callsubr
            157 56 26 56 return
          </CharString>
          <CharString index="315">
            -10 -1 -11 -5 -2 -13 rrcurveto
            return
          </CharString>
          <CharString index="316">
            -5 26 0 15 hhcurveto
            return
          </CharString>
          <CharString index="317">
            8 3 5 6 hvcurveto
            return
          </CharString>
          <CharString index="318">
            hstemhm
            109 69 return
          </CharString>
          <CharString index="319">
            64 49 -20 hstemhm
            return
          </CharString>
          <CharString index="320">
            159 callsubr
            -55 61 return
          </CharString>
          <CharString index="321">
            68 0 185 callgsubr
            113 61 32 return
          </CharString>
          <CharString index="322">
            -46 callgsubr
            -330 hlineto
            return
          </CharString>
          <CharString index="323">
            -191 61 249 64 198 61 hstemhm
            return
          </CharString>
          <CharString index="324">
            -107 -6 141 callsubr
            51 return
          </CharString>
          <CharString index="325">
            -7 -5 2 3 return
          </CharString>
        <CharString name=".notdef">
          -235 endchar
        </CharString>
        <CharString name="A">
          41 callgsubr
          hstem
          46 675 vstem
          -107 callsubr
          endchar
        </CharString>
        <CharString name="AE">
          -32 callgsubr
        </CharString>
        <CharString name="AE.dup">
          -32 callgsubr
        </CharString>
        <CharString name="AEacute">
          418 0 61 122 61 42 143 callsubr
          63 71 callsubr
          431 69 -21 69 13 69 157 69 0 69 -37 69 hintmask 1010000100100000
          910 41 rmoveto
          15 89 89 callgsubr
          37 callgsubr
          -12 -69 rlineto
          -296 hlineto
          38 225 rlineto
          147 hlineto
          -41 -7 -3 -16 35 hhcurveto
          34 4 22 19 3 hvcurveto
          16 93 rlineto
          hintmask 1111001011010000
          96 callsubr
          -147 hlineto
          123 callsubr
          267 -65 callsubr
          -505 hlineto
          -15 -26 100 callgsubr
          17 hlineto
          -296 -489 rlineto
          -47 23 callgsubr
          159 -52 callsubr
          -37 hlineto
          74 122 rlineto
          209 hlineto
          hintmask 1101000110000000
          -21 -122 rlineto
          -30 88 callgsubr
          424 -41 callsubr
          -400 203 rmoveto
          -182 hlineto
          186 306 rlineto
          47 hlineto
          hintmask 0000110000000000
          137 202 rmoveto
          20 4 -13 -102 callsubr
          7 hvcurveto
          142 -68 callgsubr
        </CharString>
        <CharString name="Aacute">
          41 callgsubr
          71 -21 134 -67 callgsubr
          140 193 rmoveto
          20 4 -13 -102 callsubr
          7 hvcurveto
          142 -68 callgsubr
        </CharString>
        <CharString name="Abreve">
          165 callsubr
          49 -67 callgsubr
          -23 callsubr
          endchar
        </CharString>
        <CharString name="Abreveacute">
          165 callsubr
          69 64 -59 64 65 -20 171 callsubr
          hintmask 11100001
          -107 callsubr
          hintmask 00010110
          -23 callsubr
          -45 150 87 callgsubr
          hintmask 00001000
          -8 -2 2 -32 26 hhcurveto
          hintmask 00000100
          7 5 2 3 7 hvcurveto
          hintmask 00001000
          152 callsubr
        </CharString>
        <CharString name="Abrevedotbelow">
          -200 100 100 29 callsubr
          50 64 49 -20 171 callsubr
          -418 101 hintmask 01111110
          -107 callsubr
          -23 callsubr
          hintmask 10000001
          -274 -885 -96 callgsubr
        </CharString>
        <CharString name="Abrevegrave">
          165 callsubr
          49 -20 40 64 -59 64 171 callsubr
          hintmask 11100001
          -107 callsubr
          hintmask 00011100
          -23 callsubr
          -54 91 rmoveto
          -8 -2 -12 -32 -26 hhcurveto
          hintmask 00000010
          218 callsubr
          -5 hvcurveto
          hintmask 00000100
          142 callsubr
          hintmask 00000010
          123 -60 13 -6 11 130 callgsubr
        </CharString>
        <CharString name="Abrevehookabove">
          165 callsubr
          279 -67 callgsubr
          -23 callsubr
          -42 181 -99 callgsubr
        </CharString>
        <CharString name="Abrevetilde">
          165 callsubr
          89 65 -10 65 171 callsubr
          hintmask 11100010
          -107 callsubr
          hintmask 00010100
          -23 callsubr
          26 159 rmoveto
          16 3 -13 16 -16 hhcurveto
          -11 -7 -5 -6 -8 hvcurveto
          hintmask 00001000
          -28 -34 -29 -16 -14 hhcurveto
          -10 -6 9 12 -11 hvcurveto
          hintmask 00000100
          153 callsubr
          hintmask 00001000
          -16 -3 -20 callgsubr
          hintmask 00000100
          28 35 28 16 14 hhcurveto
          10 7 -9 -12 11 hvcurveto
          hintmask 00001000
          -61 callsubr
        </CharString>
        <CharString name="Acaron">
          41 callgsubr
          171 callsubr
          vstemhm
          -107 callsubr
          151 129 -69 callsubr
        </CharString>
        <CharString name="Acircumflex">
          41 callgsubr
          171 callsubr
          vstemhm
          -107 callsubr
          154 142 -95 callsubr
          endchar
        </CharString>
        <CharString name="Acircumflexacute">
          41 callgsubr
          296 -20 171 callsubr
          hintmask 11101000
          -107 callsubr
          hintmask 00010000
          154 142 -36 callgsubr
        </CharString>
        <CharString name="Acircumflexdotbelow">
          -200 100 100 29 callsubr
          171 callsubr
          -418 101 hintmask 01111000
          -107 callsubr
          154 142 -95 callsubr
          hintmask 10000100
          -221 -851 -96 callgsubr
        </CharString>
        <CharString name="Acircumflexgrave">
          41 callgsubr
          171 callsubr
          vstemhm
          -107 callsubr
          154 142 -34 callsubr
        </CharString>
        <CharString name="Acircumflexhookabove">
          41 callgsubr
          372 -20 171 callsubr
          hintmask 11101000
          -107 callsubr
          hintmask 00010000
          154 142 -95 callsubr
          109 194 -100 callgsubr
        </CharString>
        <CharString name="Acircumflextilde">
          41 callgsubr
          182 65 -10 65 171 callsubr
          hintmask 11100100
          -107 callsubr
          hintmask 00001000
          154 142 29 callgsubr
          hintmask 00010000
          -28 -35 -28 -45 callgsubr
          hintmask 00001000
          -51 callgsubr
          hintmask 00010000
          25 callsubr
          hintmask 00001000
          2 callgsubr
          hintmask 00010000
          -40 callgsubr
        </CharString>
        <CharString name="Adblgrave">
          41 callgsubr
          71 -21 133 -67 callgsubr
          158 132 -99 callsubr
        </CharString>
        <CharString name="Adieresis">
          41 callgsubr
          40 90 171 callsubr
          -370 91 106 91 hintmask 11101000
          -107 callsubr
          hintmask 00010110
          -29 129 -72 callsubr
        </CharString>
        <CharString name="Adotbelow">
          -200 100 100 29 callsubr
          171 callsubr
          -418 101 hintmask 01111000
          -107 callsubr
          hintmask 10000100
          -67 -709 -96 callgsubr
        </CharString>
        <CharString name="Agrave">
          41 callgsubr
          71 -21 134 -67 callgsubr
          129 134 -82 callsubr
        </CharString>
        <CharString name="Ahookabove">
          41 callgsubr
          72 -21 230 -67 callgsubr
          145 245 -100 callgsubr
        </CharString>
        <CharString name="Alpha">
          41 callgsubr
          hstem
          46 675 vstem
          -107 callsubr
          endchar
        </CharString>
        <CharString name="Amacron">
          41 callgsubr
          60 63 171 callsubr
          hintmask 11101000
          -107 callsubr
          hintmask 00010000
          214 135 -36 callsubr
        </CharString>
        <CharString name="Aogonek">
          -203 54 149 61 111 61 390 173 callgsubr
          hintmask 0101101000000000
          721 -56 callsubr
          -46 hlineto
          -101 528 rlineto
          34 -6 -20 0 -21 hhcurveto
          -19 hlineto
          -19 -22 0 -33 -18 hvcurveto
          -277 -529 rlineto
          -46 -90 callsubr
          159 -81 callgsubr
          hintmask 0110010010000000
          -40 hlineto
          59 111 rlineto
          277 hlineto
          21 -111 rlineto
          -40 -94 callsubr
          45 hlineto
          hintmask 1100000100000000
          -43 -25 -32 -36 91 callsubr
          7 43 40 36 58 31 rrcurveto
          33 hlineto
          hintmask 0010000010000000
          -102 callgsubr
          -187 203 rmoveto
          -233 hlineto
          170 326 rlineto
          endchar
        </CharString>
        <CharString name="Aogonekacute">
          -203 54 149 29 callsubr
          71 -21 134 173 callgsubr
          hintmask 0101001010000000
          721 -56 callsubr
          -46 hlineto
          -101 528 rlineto
          34 -6 -20 0 -21 hhcurveto
          -19 hlineto
          -19 -22 0 -33 -18 hvcurveto
          -277 -529 rlineto
          -46 -90 callsubr
          159 -81 callgsubr
          hintmask 0110000100100000
          -40 hlineto
          59 111 rlineto
          277 hlineto
          21 -111 rlineto
          -40 -94 callsubr
          45 hlineto
          hintmask 1100000001000000
          -43 -25 -32 -36 91 callsubr
          7 43 40 36 58 31 rrcurveto
          33 hlineto
          hintmask 0010000000100000
          -102 callgsubr
          -187 203 rmoveto
          -233 hlineto
          170 326 rlineto
          hintmask 0000110000000000
          140 193 rmoveto
          20 4 -13 -102 callsubr
          7 hvcurveto
          142 -68 callgsubr
        </CharString>
        <CharString name="Aring">
          0 61 111 61 390 37 58 37 171 callsubr
          hintmask 11101000
          -107 callsubr
          hintmask 00110000
          74 130 -46 callsubr
        </CharString>
        <CharString name="Aringacute">
          0 61 111 61 390 37 58 37 154 -80 callsubr
          hintmask 00111000
          74 130 26 callsubr
        </CharString>
        <CharString name="Atilde">
          41 callgsubr
          40 65 -10 65 171 callsubr
          hintmask 11100100
          -107 callsubr
          hintmask 00001000
          206 172 callsubr
          hintmask 00010000
          -25 callgsubr
          hintmask 00001000
          13 -10 -17 21 -34 hhcurveto
          -27 -31 -16 -17 -25 hvcurveto
          -23 -15 -33 -22 -3 -18 rrcurveto
          hintmask 00010000
          -31 callsubr
          hintmask 00001000
          28 35 28 -1 callsubr
          hintmask 00010000
          -61 callsubr
        </CharString>
        <CharString name="B">
          -5 callsubr
        </CharString>
        <CharString name="Beta">
          -5 callsubr
        </CharString>
        <CharString name="C">
          148 callgsubr
          109 69 549 69 vstem
          -80 callgsubr
          180 122 77 102 17 hvcurveto
          endchar
        </CharString>
        <CharString name="Cacute">
          206 callsubr
          109 69 549 69 hintmask 11001100
          -80 callgsubr
          180 122 77 102 17 hvcurveto
          hintmask 00110000
          -78 584 rmoveto
          20 4 -13 -102 callsubr
          7 hvcurveto
          142 -68 callgsubr
        </CharString>
        <CharString name="Ccaron">
          179 callsubr
          109 69 549 69 vstemhm
          -80 callgsubr
          180 122 77 102 17 hvcurveto
          -67 520 -69 callsubr
        </CharString>
        <CharString name="Ccedilla">
          179 callsubr
          109 69 178 69 -15 69 2 69 177 69 hintmask 11110010
          -80 callgsubr
          hintmask 10001100
          2 hlineto
          -3 -16 147 callgsubr
          rlinecurve
          33 -2 21 -16 -4 -22 rrcurveto
          hintmask 00010100
          -24 -4 -23 -16 -98 hhcurveto
          -31 -25 0 -31 -6 hvcurveto
          -24 -4 19 -7 11 hhcurveto
          84 129 0 101 17 hvcurveto
          hintmask 00001010
          162 callsubr
          1 3 rcurveline
          140 18 92 69 15 88 rrcurveto
          endchar
        </CharString>
        <CharString name="Ccircumflex">
          179 callsubr
          109 69 549 69 vstemhm
          -80 callgsubr
          180 122 77 102 17 hvcurveto
          -64 533 -95 callsubr
          endchar
        </CharString>
        <CharString name="Cdotaccent">
          56 callgsubr
          32 100 211 callsubr
          305 101 143 69 hintmask 11010100
          -80 callgsubr
          180 122 77 102 17 hvcurveto
          hintmask 00101000
          -143 536 6 callgsubr
        </CharString>
        <CharString name="Chi">
          -9 callsubr
        </CharString>
        <CharString name="D">
          273 147 callsubr
          194 callsubr
          408 69 vstem
          -42 callsubr
          endchar
        </CharString>
        <CharString name="Dcaron">
          273 0 61 489 98 callsubr
          408 69 vstemhm
          -42 callsubr
          -167 387 -69 callsubr
        </CharString>
        <CharString name="Dcroat">
          -12 callgsubr
        </CharString>
        <CharString name="Ddotbelow">
          273 73 callsubr
          203 callgsubr
          4 101 -92 69 408 69 hintmask 01110110
          -42 callsubr
          hintmask 10001000
          -385 -451 -96 callgsubr
        </CharString>
        <CharString name="Delta">
          360 0 67 556 -20 hstem
          60 760 vstem
          820 19 rmoveto
          1 3 0 4 -4 10 -210 552 rcurveline
          26 -10 -9 9 -36 hhcurveto
          -22 hlineto
          -25 -17 -2 -30 -22 hvcurveto
          -396 -553 -9 -12 0 -4 -1 -3 rlinecurve
          -19 -3 17 0 15 hhcurveto
          696 hlineto
          15 17 0 19 3 hvcurveto
          -94 48 rmoveto
          -556 hlineto
          363 509 rlineto
          endchar
        </CharString>
        <CharString name="Dlinebelow">
          273 -181 63 118 61 489 98 callsubr
          408 69 hintmask 01111100
          -42 callsubr
          hintmask 10000000
          -245 -451 -71 callgsubr
        </CharString>
        <CharString name="E">
          -84 callgsubr
          endchar
        </CharString>
        <CharString name="Eacute">
          30 callsubr
          63 -21 134 -20 -93 callgsubr
          hintmask 0001100000000000
          -95 711 rmoveto
          20 4 -13 -102 callsubr
          7 hvcurveto
          142 -68 callgsubr
        </CharString>
        <CharString name="Ebreve">
          30 callsubr
          42 64 49 -20 -93 callgsubr
          hintmask 0001100000000000
          -28 694 -86 callgsubr
          endchar
        </CharString>
        <CharString name="Ecaron">
          -84 callgsubr
          hintmask 00000000
          -84 647 -69 callsubr
        </CharString>
        <CharString name="Ecircumflex">
          -84 callgsubr
          hintmask 00000000
          -81 660 -95 callsubr
          endchar
        </CharString>
        <CharString name="Ecircumflexacute">
          30 callsubr
          288 -20 -1 callgsubr
          hintmask 1000100100000000
          677 41 rmoveto
          15 89 89 callgsubr
          37 callgsubr
          -12 -69 rlineto
          -392 hlineto
          hintmask 0100010000000000
          -86 callsubr
          hintmask 0010001010000000
          -73 callsubr
          hintmask 0010010000000000
          -39 callsubr
          hintmask 1010101000000000
          -59 callgsubr
          544 -41 callsubr
          hintmask 0001000000000000
          -81 660 -36 callgsubr
        </CharString>
        <CharString name="Ecircumflexdotbelow">
          -11 callsubr
          -81 660 -95 callsubr
          hintmask 1000000100000000
          -221 -851 -96 callgsubr
        </CharString>
        <CharString name="Ecircumflexgrave">
          -84 callgsubr
          hintmask 00000000
          -81 660 -34 callsubr
        </CharString>
        <CharString name="Ecircumflexhookabove">
          30 callsubr
          364 -20 -1 callgsubr
          hintmask 1000100100000000
          677 41 rmoveto
          15 89 89 callgsubr
          37 callgsubr
          -12 -69 rlineto
          -392 hlineto
          hintmask 0100010000000000
          -86 callsubr
          hintmask 0010001010000000
          -73 callsubr
          hintmask 0010010000000000
          -39 callsubr
          hintmask 1010101000000000
          -59 callgsubr
          544 -41 callsubr
          hintmask 0001000000000000
          -81 660 -95 callsubr
          109 194 -100 callgsubr
        </CharString>
        <CharString name="Ecircumflextilde">
          30 callsubr
          174 65 -10 65 -93 callgsubr
          hintmask 0000100000000000
          -81 660 29 callgsubr
          hintmask 0001000000000000
          -28 -35 -28 -45 callgsubr
          hintmask 0000100000000000
          -51 callgsubr
          hintmask 0001000000000000
          25 callsubr
          hintmask 0000100000000000
          2 callgsubr
          hintmask 0001000000000000
          -40 callgsubr
        </CharString>
        <CharString name="Edblgrave">
          30 callsubr
          63 171 callgsubr
          -93 callgsubr
          hintmask 0001100000000000
          -48 650 -99 callsubr
        </CharString>
        <CharString name="Edieresis">
          30 callsubr
          32 90 -2 callgsubr
          21 91 106 91 13 69 -37 69 hintmask 1000100001000000
          677 41 rmoveto
          15 89 89 callgsubr
          37 callgsubr
          -12 -69 rlineto
          -392 hlineto
          hintmask 0100010000000000
          -86 callsubr
          hintmask 0010001000100000
          -73 callsubr
          hintmask 0010010000000000
          -39 callsubr
          hintmask 1010101000000000
          -59 callgsubr
          544 -41 callsubr
          hintmask 0001000110000000
          -264 647 -72 callsubr
        </CharString>
        <CharString name="Edotaccent">
          30 callsubr
          43 100 -2 callgsubr
          115 101 106 69 -37 69 hintmask 1000100010000000
          677 41 rmoveto
          15 89 89 callgsubr
          37 callgsubr
          -12 -69 rlineto
          -392 hlineto
          hintmask 0100010000000000
          -86 callsubr
          hintmask 0010001001000000
          -73 callsubr
          hintmask 0010010000000000
          -39 callsubr
          hintmask 1010101000000000
          -59 callgsubr
          544 -41 callsubr
          hintmask 0001000100000000
          -160 663 6 callgsubr
        </CharString>
        <CharString name="Edotbelow">
          -11 callsubr
          hintmask 1000000100000000
          -302 -191 -96 callgsubr
        </CharString>
        <CharString name="Egrave">
          30 callsubr
          63 -21 134 -20 -93 callgsubr
          hintmask 0001100000000000
          -106 652 -82 callsubr
        </CharString>
        <CharString name="Ehookabove">
          30 callsubr
          64 -21 230 -20 -93 callgsubr
          hintmask 0001100000000000
          -91 763 -100 callgsubr
        </CharString>
        <CharString name="Emacron">
          30 callsubr
          52 63 -1 callgsubr
          hintmask 1000100100000000
          677 41 rmoveto
          15 89 89 callgsubr
          37 callgsubr
          -12 -69 rlineto
          -392 hlineto
          hintmask 0100010000000000
          -86 callsubr
          hintmask 0010001010000000
          -73 callsubr
          hintmask 0010010000000000
          -39 callsubr
          hintmask 1010101000000000
          -59 callgsubr
          544 -41 callsubr
          hintmask 0001000000000000
          -21 653 -36 callsubr
        </CharString>
        <CharString name="Eng">
          552 70 hstem
          704 70 vstem
          774 306 rmoveto
          173 29 -111 143 -171 hhcurveto
          -90 -94 -26 -49 -66 hvcurveto
          4 23 rlineto
          31 5 -4 10 -34 hhcurveto
          -83 -76 callgsubr
          61 364 rlineto
          90 28 120 37 110 hhcurveto
          132 85 -112 -134 -22 hvcurveto
          -18 -109 -52 -111 -85 -23 rrcurveto
          9 -7 -11 5 -12 hhcurveto
          -25 -22 202 callgsubr
          15 -20 25 hhcurveto
          142 101 157 160 27 hvcurveto
          endchar
        </CharString>
        <CharString name="Eogonek">
          185 -203 54 149 62 callgsubr
          -2 callgsubr
          312 69 -59 69 -37 69 hintmask 0100100010000000
          677 41 rmoveto
          15 89 89 callgsubr
          37 callgsubr
          -12 -69 rlineto
          -392 hlineto
          hintmask 0010010000000000
          -86 callsubr
          hintmask 0001001001000000
          123 callsubr
          363 hlineto
          -9 -53 rlineto
          hintmask 0000000100000000
          138 callgsubr
          hintmask 0001010001000000
          116 callsubr
          hintmask 1101101100000000
          -59 callgsubr
          416 hlineto
          -43 -25 -32 -36 91 callsubr
          7 43 40 36 58 31 rrcurveto
          47 137 callgsubr
        </CharString>
        <CharString name="Eogonekacute">
          185 -203 54 149 62 callgsubr
          63 -21 134 -20 -2 callgsubr
          312 69 -59 69 -37 69 hintmask 0100001000100000
          677 41 rmoveto
          15 89 89 callgsubr
          37 callgsubr
          -12 -69 rlineto
          -392 hlineto
          hintmask 0010000100000000
          -86 callsubr
          hintmask 0001000010010000
          123 callsubr
          363 hlineto
          -9 -53 rlineto
          hintmask 0000000001000000
          138 callgsubr
          hintmask 0001000100010000
          116 callsubr
          hintmask 1101001011000000
          -59 callgsubr
          416 hlineto
          -43 -25 -32 -36 91 callsubr
          7 43 40 36 58 31 rrcurveto
          47 -41 callsubr
          hintmask 0000110000000000
          -95 711 rmoveto
          20 4 -13 -102 callsubr
          7 hvcurveto
          142 -68 callgsubr
        </CharString>
        <CharString name="Epsilon">
          -84 callgsubr
          endchar
        </CharString>
        <CharString name="Ereversed">
          30 callsubr
          hstem
          68 69 21 69 290 69 13 69 vstem
          675 22 callgsubr
          -515 hlineto
          -34 -8 -10 -31 -5 hvcurveto
          -12 -73 rlineto
          118 callsubr
          34 4 22 19 3 hvcurveto
          9 53 rlineto
          363 hlineto
          -34 -203 rlineto
          -199 hlineto
          41 7 2 16 -35 hhcurveto
          -34 -3 -22 -19 -3 hvcurveto
          -16 -93 rlineto
          138 callgsubr
          35 3 16 41 7 hvcurveto
          199 hlineto
          -38 -225 rlineto
          -392 hlineto
          12 69 rlineto
          20 3 4 21 -35 156 callsubr
          -15 -89 rlineto
          -32 -6 6 -9 33 hhcurveto
          544 184 callsubr
        </CharString>
        <CharString name="Eta">
          70 callsubr
          257 69 13 69 hintmask 11100111
          -62 callsubr
          hintmask 00101000
          38 callsubr
          hintmask 10110100
          -10 callsubr
          hintmask 11001010
          38 226 rlineto
          339 hlineto
          -38 -226 -71 callsubr
          endchar
        </CharString>
        <CharString name="Eth">
          -12 callgsubr
        </CharString>
        <CharString name="Etilde">
          30 callsubr
          32 65 -10 65 -93 callgsubr
          hintmask 0000100000000000
          -29 690 -60 callgsubr
        </CharString>
        <CharString name="Euro">
          142 -11 62 0 62 98 62 66 62 97 62 0 62 hstemhm
          167 70 hintmask 01111010
          602 18 rmoveto
          15 91 rlineto
          15 3 -11 13 -16 hhcurveto
          -12 hlineto
          -14 -14 -10 -14 -5 hvcurveto
          -49 -17 -61 -13 -55 hhcurveto
          -59 -51 28 45 -32 hvcurveto
          -19 26 -11 29 -6 32 rrcurveto
          242 hlineto
          9 11 6 9 4 214 callgsubr
          -261 hlineto
          1 10 1 11 2 12 2 11 2 11 3 11 rrcurveto
          299 hlineto
          10 10 6 9 5 214 callgsubr
          -290 hlineto
          16 31 21 29 27 26 rrcurveto
          45 47 60 28 60 hhcurveto
          55 56 -13 -49 1 hvcurveto
          -14 1 10 -10 14 hhcurveto
          12 hlineto
          16 15 13 15 3 hvcurveto
          15 91 rlineto
          hintmask 10110110
          16 3 -11 13 -16 hhcurveto
          -4 hlineto
          -10 -10 -5 -8 -6 hvcurveto
          -13 -15 rlineto
          20 -34 -47 8 -46 hhcurveto
          -78 -79 -36 -58 -61 hvcurveto
          -39 -37 -30 -44 -21 -46 rrcurveto
          -40 hlineto
          -9 -10 -7 -9 -5 hvcurveto
          -8 -16 rlineto
          -15 -8 9 -15 16 hhcurveto
          33 hlineto
          -3 -11 -2 -11 -2 -11 -2 -11 -1 -12 -1 -10 rrcurveto
          -28 hlineto
          -10 -10 -7 -9 -4 hvcurveto
          -8 -16 rlineto
          -15 -8 9 -15 15 hhcurveto
          45 hlineto
          5 -47 16 -44 27 -37 rrcurveto
          -58 42 66 -36 78 hhcurveto
          47 49 9 19 41 hvcurveto
          8 -15 rlineto
          -8 4 8 -5 10 hhcurveto
          3 hlineto
          16 15 13 16 3 hvcurveto
          endchar
        </CharString>
        <CharString name="F">
          156 0 61 214 61 214 61 hstem
          194 callsubr
          339 69 cntrmask 11100000
          709 32 callgsubr
          -500 -104 callsubr
          201 -24 callsubr
          124 callgsubr
          193 hlineto
          -41 -7 -3 -16 35 hhcurveto
          34 4 22 19 3 hvcurveto
          16 93 77 callsubr
          122 callgsubr
          -193 hlineto
          124 callgsubr
          348 9 callgsubr
          endchar
        </CharString>
        <CharString name="G">
          302 -11 54 callgsubr
          hintmask 11111010
          -91 callgsubr
          hintmask 00000100
          -6 -36 rlineto
          hintmask 00000001
          118 callsubr
          hintmask 00000100
          34 4 22 19 3 hvcurveto
          hintmask 01000001
          28 168 rlineto
          32 -26 callsubr
          endchar
        </CharString>
        <CharString name="Gacute">
          135 callgsubr
          52 71 callsubr
          109 69 396 69 -6 69 -44 69 -66 69 hintmask 1110011010000000
          -91 callgsubr
          hintmask 0000000100000000
          -6 -36 rlineto
          hintmask 0000000001000000
          118 callsubr
          hintmask 0000000100000000
          34 4 22 19 3 hvcurveto
          hintmask 0100000001000000
          28 168 rlineto
          32 -26 callsubr
          hintmask 0001100000000000
          -172 513 rmoveto
          20 4 -13 -102 callsubr
          7 hvcurveto
          142 -68 callgsubr
        </CharString>
        <CharString name="Gamma">
          127 147 callsubr
          194 callsubr
          310 69 vstem
          680 32 callgsubr
          -471 -104 callsubr
          201 -24 callsubr
          82 489 rlineto
          319 9 callgsubr
          endchar
        </CharString>
        <CharString name="Gbreve">
          135 callgsubr
          31 64 49 -20 211 callsubr
          396 69 -6 69 -44 69 -66 69 hintmask 1110011010000000
          -91 callgsubr
          hintmask 0000000100000000
          -6 -36 rlineto
          hintmask 0000000001000000
          118 callsubr
          hintmask 0000000100000000
          34 4 22 19 3 hvcurveto
          hintmask 0100000001000000
          28 168 rlineto
          32 -26 callsubr
          hintmask 0001100000000000
          -105 496 -86 callgsubr
          endchar
        </CharString>
        <CharString name="Gcaron">
          302 -11 54 callgsubr
          hintmask 11111010
          -91 callgsubr
          hintmask 00000100
          -6 -36 rlineto
          hintmask 00000001
          118 callsubr
          hintmask 00000100
          34 4 22 19 3 hvcurveto
          hintmask 01000001
          28 168 rlineto
          32 -26 callsubr
          hintmask 00000000
          -161 449 -69 callsubr
        </CharString>
        <CharString name="Gcedilla">
          302 85 callsubr
          22 54 callgsubr
          hintmask 0011111010000000
          -91 callgsubr
          hintmask 0000000100000000
          -6 -36 rlineto
          hintmask 0000000001000000
          118 callsubr
          hintmask 0000000100000000
          34 4 22 19 3 hvcurveto
          hintmask 1101000001000000
          28 168 rlineto
          32 -26 callsubr
          -375 -339 -94 callgsubr
        </CharString>
        <CharString name="Gcircumflex">
          302 -11 54 callgsubr
          hintmask 11111010
          -91 callgsubr
          hintmask 00000100
          -6 -36 rlineto
          hintmask 00000001
          118 callsubr
          hintmask 00000100
          34 4 22 19 3 hvcurveto
          hintmask 01000001
          28 168 rlineto
          32 -26 callsubr
          hintmask 00000000
          -158 462 -95 callsubr
          endchar
        </CharString>
        <CharString name="Gcommaaccent">
          302 85 callsubr
          22 54 callgsubr
          hintmask 0011111010000000
          -91 callgsubr
          hintmask 0000000100000000
          -6 -36 rlineto
          hintmask 0000000001000000
          118 callsubr
          hintmask 0000000100000000
          34 4 22 19 3 hvcurveto
          hintmask 0001000001000000
          28 168 rlineto
          32 -26 callsubr
          hintmask 1100000000000000
          -375 -339 -94 callgsubr
        </CharString>
        <CharString name="Gdotaccent">
          135 callgsubr
          32 100 211 callsubr
          296 101 -1 69 -6 69 -44 69 -66 69 hintmask 1110101010000000
          -91 callgsubr
          hintmask 0000000100000000
          -6 -36 rlineto
          hintmask 0000000001000000
          118 callsubr
          hintmask 0000000100000000
          34 4 22 19 3 hvcurveto
          hintmask 0100000001000000
          28 168 rlineto
          32 -26 callsubr
          hintmask 0001010000000000
          -237 465 6 callgsubr
        </CharString>
        <CharString name="H">
          70 callsubr
          257 69 13 69 hintmask 11100111
          -62 callsubr
          hintmask 00101000
          38 callsubr
          hintmask 10110100
          -10 callsubr
          hintmask 11001010
          38 226 rlineto
          339 hlineto
          -38 -226 -71 callsubr
          endchar
        </CharString>
        <CharString name="H_uni0303">
          194 callgsubr
          32 65 -10 65 -2 callgsubr
          257 69 13 69 hintmask 1110000111000000
          -62 callsubr
          hintmask 0010001000000000
          38 callsubr
          hintmask 1010010100000000
          -10 callsubr
          hintmask 1100001010000000
          38 226 rlineto
          339 hlineto
          -38 -226 -71 callsubr
          hintmask 0000100000000000
          -39 701 -60 callgsubr
        </CharString>
        <CharString name="Hbar">
          0 196 callgsubr
          79 62 0 61 0 61 203 callgsubr
          -56 69 -44 69 -46 69 -58 69 -59 69 257 69 -8 69 -58 69 -59 69 hintmask 1000000000010000
          716 -16 callsubr
          hintmask 0010000000001000
          61 366 rlineto
          59 hlineto
          17 17 14 17 2 hvcurveto
          17 3 -11 14 -17 hhcurveto
          hintmask 0010000000000100
          -59 hlineto
          hintmask 0001000000000010
          10 61 -21 callgsubr
          hintmask 0000100000000010
          -92 callgsubr
          hintmask 0010000001000100
          -10 -61 rlineto
          -339 hlineto
          hintmask 0001000000100000
          10 61 -21 callgsubr
          hintmask 0000100100000000
          -101 callgsubr
          38 callsubr
          hintmask 0001000000100000
          54 hlineto
          hintmask 0010000001000000
          -10 -61 rlineto
          hintmask 0010001000000000
          -59 hlineto
          -17 -17 -14 -17 -3 hvcurveto
          -17 -2 11 -14 17 hhcurveto
          hintmask 0010000010000000
          59 hlineto
          hintmask 1000010000000000
          -61 -366 -58 callsubr
          hintmask 1100000100010000
          38 226 rlineto
          339 hlineto
          -38 -226 -71 callsubr
          -110 318 rmoveto
          -339 hlineto
          hintmask 0110000010001000
          13 79 rlineto
          339 hlineto
          endchar
        </CharString>
        <CharString name="Hbrevebelow">
          -206 64 49 -20 113 60 callsubr
          257 69 13 69 hintmask 0011100111000000
          -62 callsubr
          hintmask 0000101000000000
          38 callsubr
          hintmask 0010110100000000
          -10 callsubr
          hintmask 0011001010000000
          38 226 rlineto
          339 hlineto
          -38 -226 -71 callsubr
          hintmask 1100010000000000
          -181 -154 -18 callsubr
        </CharString>
        <CharString name="Hcircumflex">
          70 callsubr
          257 69 13 69 hintmask 11100111
          -62 callsubr
          hintmask 00101000
          38 callsubr
          hintmask 10110100
          -10 callsubr
          hintmask 11001010
          38 226 rlineto
          339 hlineto
          -38 -226 -71 callsubr
          hintmask 00000000
          -91 671 -95 callsubr
          endchar
        </CharString>
        <CharString name="Hdieresis">
          194 callgsubr
          32 90 -2 callgsubr
          50 91 106 91 -81 69 13 69 hintmask 1110001001100000
          -62 callsubr
          hintmask 0010010000000000
          38 callsubr
          hintmask 1010101000000000
          -10 callsubr
          hintmask 1100010001000000
          38 226 rlineto
          339 hlineto
          -38 -226 -71 callsubr
          hintmask 0001000110000000
          -274 658 -72 callsubr
        </CharString>
        <CharString name="Hdotbelow">
          -200 100 100 60 callsubr
          2 101 154 69 13 69 hintmask 0111001011000000
          -62 callsubr
          hintmask 0001010000000000
          38 callsubr
          hintmask 0101101000000000
          -10 callsubr
          hintmask 0110010010000000
          38 226 rlineto
          339 hlineto
          -38 -226 -71 callsubr
          hintmask 1000000100000000
          -312 -180 -96 callgsubr
        </CharString>
        <CharString name="I">
          -43 callsubr
          endchar
        </CharString>
        <CharString name="I_J">
          325 -11 61 -50 66 callsubr
          203 callgsubr
          184 89 184 69 cntrmask 00011100
          hintmask 01111100
          -88 callgsubr
          -22 callsubr
          -21 callsubr
          577 551 rmoveto
          30 -30 callgsubr
          -181 -94 callsubr
          82 hlineto
          -69 -410 rlineto
          hintmask 10111100
          -85 -14 -83 -5 -19 hhcurveto
          -8 -48 0 26 -24 hvcurveto
          5 5 4 5 3 16 rrcurveto
          24 4 -16 20 -25 hhcurveto
          -23 -24 -15 -32 -5 hvcurveto
          -63 -11 58 -47 100 hhcurveto
          89 90 54 91 15 hvcurveto
          97 callsubr
          endchar
        </CharString>
        <CharString name="Iacute">
          99 callsubr
          63 -21 134 -20 -63 callsubr
          hintmask 00110000
          94 722 rmoveto
          20 4 -13 -102 callsubr
          7 hvcurveto
          142 -68 callgsubr
        </CharString>
        <CharString name="Ibreve">
          99 callsubr
          42 64 49 -20 -63 callsubr
          hintmask 00110000
          161 705 -86 callgsubr
          endchar
        </CharString>
        <CharString name="Icaron">
          -43 callsubr
          hintmask 00000000
          105 658 -69 callsubr
        </CharString>
        <CharString name="Icircumflex">
          -43 callsubr
          hintmask 00000000
          108 671 -95 callsubr
          endchar
        </CharString>
        <CharString name="Idblgrave">
          99 callsubr
          63 171 callgsubr
          -63 callsubr
          hintmask 00110000
          141 661 -99 callsubr
        </CharString>
        <CharString name="Idieresis">
          99 callsubr
          32 90 hstemhm
          81 69 -3 91 -88 69 13 69 0 69 -26 91 hintmask 1100010100000000
          -88 callgsubr
          hintmask 1100011000000000
          -22 callsubr
          hintmask 1001000000000000
          -21 callsubr
          hintmask 0010100010000000
          -75 658 -72 callsubr
        </CharString>
        <CharString name="Idieresisacute">
          99 callsubr
          32 177 callsubr
          81 69 -3 91 -88 69 13 69 0 69 -26 91 hintmask 1100000101000000
          -88 callgsubr
          hintmask 1100000110000000
          -22 callsubr
          hintmask 1000010000000000
          -21 callsubr
          hintmask 0010101000100000
          -75 658 -90 callgsubr
          -8 185 rmoveto
          20 4 -13 15 -20 hhcurveto
          0 -8 0 -12 197 callsubr
          hintmask 0001000010000000
          -8 -1 165 callgsubr
          142 -68 callgsubr
        </CharString>
        <CharString name="Idotaccent">
          99 callsubr
          43 100 99 callgsubr
          -60 101 -41 69 hintmask 11001001
          -88 callgsubr
          hintmask 11001100
          -22 callsubr
          hintmask 10010000
          -21 callsubr
          hintmask 00100001
          29 674 rmoveto
          27 5 54 callsubr
          hintmask 00100010
          -31 -24 -25 -25 -5 40 callgsubr
          endchar
        </CharString>
        <CharString name="Idotbelow">
          -165 73 callsubr
          hstemhm
          81 69 -51 101 -50 69 13 69 0 69 hintmask 01100101
          -88 callgsubr
          hintmask 01100110
          -22 callsubr
          hintmask 01010000
          -21 callsubr
          hintmask 10001000
          -113 -180 -96 callgsubr
        </CharString>
        <CharString name="Igrave">
          99 callsubr
          63 -21 134 -20 -63 callsubr
          hintmask 00110000
          83 663 -82 callsubr
        </CharString>
        <CharString name="Ihookabove">
          99 callsubr
          64 -21 230 -20 -63 callsubr
          hintmask 00110000
          98 774 -100 callgsubr
        </CharString>
        <CharString name="Imacron">
          99 callsubr
          52 63 78 callsubr
          hintmask 11001010
          -88 callgsubr
          hintmask 11001100
          -22 callsubr
          hintmask 10010000
          -21 callsubr
          hintmask 00100000
          168 664 -36 callsubr
        </CharString>
        <CharString name="Imacron.alt">
          99 callsubr
          52 63 78 callsubr
          hintmask 11001010
          -88 callgsubr
          hintmask 11001100
          -22 callsubr
          hintmask 10010000
          -21 callsubr
          hintmask 00100000
          80 664 107 callgsubr
        </CharString>
        <CharString name="Iogonek">
          206 callgsubr
          78 callsubr
          hintmask 01101010
          -88 callgsubr
          hintmask 01101100
          -22 callsubr
          hintmask 11010000
          -30 -5 25 0 15 hhcurveto
          88 hlineto
          -38 -26 -37 -41 -7 -41 -77 callgsubr
          7 47 33 42 44 21 rrcurveto
          38 184 callsubr
        </CharString>
        <CharString name="Iogonekacute">
          206 callgsubr
          63 -21 134 -20 78 callsubr
          hintmask 0110001010000000
          -88 callgsubr
          hintmask 0110001100000000
          -22 callsubr
          hintmask 1100010000000000
          -30 -5 25 0 15 hhcurveto
          88 hlineto
          -38 -26 -37 -41 -7 -41 -77 callgsubr
          7 47 33 42 44 21 rrcurveto
          38 -104 callgsubr
          hintmask 0001100000000000
          94 722 rmoveto
          20 4 -13 -102 callsubr
          7 hvcurveto
          142 -68 callgsubr
        </CharString>
        <CharString name="Iota">
          -43 callsubr
          endchar
        </CharString>
        <CharString name="Itilde">
          99 callsubr
          32 65 -10 65 -63 callsubr
          hintmask 00010000
          160 701 -88 callsubr
        </CharString>
        <CharString name="J">
          10 128 callsubr
          159 callgsubr
          hintmask 11110000
          -29 callgsubr
          hintmask 01001000
          97 callsubr
          endchar
        </CharString>
        <CharString name="J_uni030C.cap">
          10 -11 61 403 -21 104 75 -61 61 159 callgsubr
          hintmask 10011100
          -29 callgsubr
          hintmask 00010010
          97 callsubr
          124 -37 109 callgsubr
          hintmask 01100000
          34 callsubr
        </CharString>
        <CharString name="Jacute">
          10 128 callsubr
          63 -21 134 -20 159 callgsubr
          hintmask 11001100
          -29 callgsubr
          hintmask 01000010
          97 callsubr
          hintmask 00110000
          4 171 rmoveto
          20 4 -13 -102 callsubr
          7 hvcurveto
          142 -68 callgsubr
        </CharString>
        <CharString name="Jcircumflex">
          10 128 callsubr
          159 callgsubr
          hintmask 11110000
          -29 callgsubr
          hintmask 01001000
          97 callsubr
          hintmask 00000000
          18 120 -95 callsubr
          endchar
        </CharString>
        <CharString name="K">
          273 207 callsubr
          vstem
          -66 callsubr
          endchar
        </CharString>
        <CharString name="Kappa">
          273 207 callsubr
          vstem
          -66 callsubr
          endchar
        </CharString>
        <CharString name="Kcedilla">
          273 136 callgsubr
          hstem
          157 56 26 56 vstem
          -66 callsubr
          -326 -130 -94 callgsubr
        </CharString>
        <CharString name="Kcommaaccent">
          273 126 callgsubr
          157 56 26 56 hintmask 00111100
          -66 callsubr
          hintmask 11000000
          -326 -130 -94 callgsubr
        </CharString>
        <CharString name="L">
          127 147 callsubr
          194 callsubr
          249 69 vstem
          -85 callsubr
          endchar
        </CharString>
        <CharString name="L_uni0303">
          127 137 callsubr
          65 -10 65 127 callsubr
          249 69 hintmask 11001110
          -85 callsubr
          hintmask 00010000
          14 690 -88 callsubr
        </CharString>
        <CharString name="Lacute">
          127 43 callgsubr
          63 -21 134 -20 127 callsubr
          249 69 hintmask 11001110
          -85 callsubr
          hintmask 00110000
          -52 711 rmoveto
          20 4 -13 -102 callsubr
          7 hvcurveto
          142 -68 callgsubr
        </CharString>
        <CharString name="Lambda">
          185 0 61 562 -20 hstem
          45 619 vstem
          664 -56 callsubr
          -35 hlineto
          -85 529 rlineto
          33 -5 -23 0 -18 hhcurveto
          -19 hlineto
          -18 -23 0 -33 -17 hvcurveto
          -261 -529 rlineto
          -35 -107 callgsubr
          150 -52 callsubr
          -42 hlineto
          244 494 79 -494 rlineto
          -42 -107 callgsubr
          150 184 callsubr
        </CharString>
        <CharString name="Lcaron">
          127 0 61 392 -21 104 75 -61 98 callsubr
          249 69 hintmask 10011110
          -85 callsubr
          -37 503 109 callgsubr
          hintmask 01100000
          34 callsubr
        </CharString>
        <CharString name="Lcedilla">
          127 136 callgsubr
          hstem
          194 callsubr
          249 69 vstem
          -85 callsubr
          -255 -141 -94 callgsubr
        </CharString>
        <CharString name="Lcommaaccent">
          127 126 callgsubr
          150 69 13 69 249 69 hintmask 00111110
          -85 callsubr
          hintmask 11000100
          -255 -141 -94 callgsubr
        </CharString>
        <CharString name="Ldot">
          127 0 61 206 100 183 98 callsubr
          196 101 -48 69 hintmask 11111010
          -85 callsubr
          -6 276 rmoveto
          178 callgsubr
          hintmask 01000100
          140 callsubr
          20 -23 27 hhcurveto
          31 24 8 callsubr
          endchar
        </CharString>
        <CharString name="Ldotbelow">
          127 73 callsubr
          203 callgsubr
          13 69 -56 101 204 69 hintmask 01111010
          -85 callsubr
          hintmask 10000100
          -258 -191 -96 callgsubr
        </CharString>
        <CharString name="Ldotbelowmacron">
          127 73 callsubr
          52 63 127 callsubr
          -56 101 204 69 hintmask 11101101
          -85 callsubr
          -258 -191 rmoveto
          178 callgsubr
          hintmask 10000010
          140 callsubr
          20 -23 27 hhcurveto
          31 24 8 callsubr
          hintmask 00010000
          146 844 -36 callsubr
        </CharString>
        <CharString name="Lslash">
          127 0 61 184 61 244 61 hstemhm
          119 69 -38 69 13 69 249 69 hintmask 11101110
          604 41 rmoveto
          15 89 rlineto
          20 3 4 21 -34 hhcurveto
          -35 -4 -20 -21 -3 hvcurveto
          -12 -69 rlineto
          -319 hlineto
          41 245 224 139 15 9 7 18 -8 14 rlinecurve
          1 vlineto
          -7 13 -17 4 -14 -9 -188 -118 rcurveline
          29 173 8 callgsubr
          hintmask 01110100
          -201 -105 callsubr
          -36 -214 -77 -50 -14 -9 -8 -18 7 -14 rlinecurve
          1 hlineto
          6 -13 17 -5 16 11 40 27 rcurveline
          hintmask 10001000
          -34 -204 -106 callsubr
          471 137 callgsubr
        </CharString>
        <CharString name="M">
          418 207 callsubr
          444 56 vstem
          -49 callsubr
          endchar
        </CharString>
        <CharString name="Mdotbelow">
          418 73 callsubr
          hstemhm
          157 56 26 56 96 101 247 56 hintmask 01111010
          -49 callsubr
          hintmask 10000100
          -392 -180 -96 callgsubr
        </CharString>
        <CharString name="Mu">
          418 207 callsubr
          444 56 vstem
          -49 callsubr
          endchar
        </CharString>
        <CharString name="N">
          147 callsubr
          201 callgsubr
          vstem
          -96 callsubr
          endchar
        </CharString>
        <CharString name="Nacute">
          43 callgsubr
          63 71 callsubr
          201 callgsubr
          hintmask 11001100
          -96 callsubr
          hintmask 00110000
          -190 172 rmoveto
          20 4 -13 -102 callsubr
          7 hvcurveto
          142 -68 callgsubr
        </CharString>
        <CharString name="Ncaron">
          128 callgsubr
          201 callgsubr
          vstemhm
          -96 callsubr
          -179 108 -69 callsubr
        </CharString>
        <CharString name="Ncedilla">
          136 callgsubr
          hstem
          201 callgsubr
          vstem
          -96 callsubr
          -393 -680 -94 callgsubr
        </CharString>
        <CharString name="Ncommaaccent">
          126 callgsubr
          201 callgsubr
          hintmask 00111100
          -96 callsubr
          hintmask 11000000
          -393 -680 -94 callgsubr
        </CharString>
        <CharString name="Ndotaccent">
          137 callsubr
          100 hstemhm
          157 56 230 101 102 56 hintmask 11010100
          -96 callsubr
          hintmask 00101000
          -257 113 6 callgsubr
        </CharString>
        <CharString name="Ndotbelow">
          73 callsubr
          hstemhm
          157 56 90 101 242 56 hintmask 01110100
          -96 callsubr
          hintmask 10001000
          -397 -730 -96 callgsubr
        </CharString>
        <CharString name="Ntilde">
          137 callsubr
          203 callsubr
          201 callgsubr
          hintmask 11001100
          -96 callsubr
          hintmask 00010000
          -124 151 -88 callsubr
        </CharString>
        <CharString name="Nu">
          147 callsubr
          201 callgsubr
          vstem
          -96 callsubr
          endchar
        </CharString>
        <CharString name="O">
          61 callsubr
          hstem
          -101 callsubr
          endchar
        </CharString>
        <CharString name="OE">
          -35 callgsubr
        </CharString>
        <CharString name="OE.dup">
          -35 callgsubr
        </CharString>
        <CharString name="Oacute">
          302 206 callsubr
          hintmask 11000000
          -101 callsubr
          hintmask 00110000
          -102 435 rmoveto
          20 4 -13 -102 callsubr
          7 hvcurveto
          142 -68 callgsubr
        </CharString>
        <CharString name="Obreve">
          61 callsubr
          31 212 callsubr
          hintmask 11000000
          -101 callsubr
          hintmask 00110000
          -35 418 -86 callgsubr
          endchar
        </CharString>
        <CharString name="Ocaron">
          61 callsubr
          hstemhm
          -101 callsubr
          -91 371 -69 callsubr
        </CharString>
        <CharString name="Ocircumflex">
          61 callsubr
          hstemhm
          -101 callsubr
          -88 384 -95 callsubr
          endchar
        </CharString>
        <CharString name="Ocircumflexacute">
          61 callsubr
          277 -20 hstemhm
          hintmask 11000000
          -101 callsubr
          hintmask 00100000
          -88 384 -36 callgsubr
        </CharString>
        <CharString name="Ocircumflexdotbelow">
          302 176 callsubr
          333 101 hintmask 01100000
          -101 callsubr
          -88 384 -95 callsubr
          hintmask 10010000
          -220 -851 -96 callgsubr
        </CharString>
        <CharString name="Ocircumflexgrave">
          61 callsubr
          hstemhm
          -101 callsubr
          -88 384 -34 callsubr
        </CharString>
        <CharString name="Ocircumflexhookabove">
          61 callsubr
          353 -20 hstemhm
          hintmask 11000000
          -101 callsubr
          hintmask 00100000
          -88 384 -95 callsubr
          109 194 -100 callgsubr
        </CharString>
        <CharString name="Ocircumflextilde">
          61 callsubr
          163 203 callsubr
          hintmask 11000000
          -101 callsubr
          hintmask 00010000
          -88 384 rmoveto
          -111 43 -6 2 -7 0 -6 -2 rlinecurve
          -125 -43 -38 -13 9 -54 37 11 rlinecurve
          115 33 103 -33 35 -11 27 54 -33 13 rlinecurve
          75 172 -20 callsubr
        </CharString>
        <CharString name="Odblgrave">
          61 callsubr
          52 171 callgsubr
          hstemhm
          hintmask 11000000
          -101 callsubr
          hintmask 00110000
          -55 374 -99 callsubr
        </CharString>
        <CharString name="Odieresis">
          61 callsubr
          21 90 hstemhm
          380 91 106 91 hintmask 11000000
          -101 callsubr
          hintmask 00111000
          -271 371 -72 callsubr
        </CharString>
        <CharString name="Odotbelow">
          302 176 callsubr
          333 101 hintmask 01100000
          -101 callsubr
          hintmask 10010000
          -308 -467 -96 callgsubr
        </CharString>
        <CharString name="Ograve">
          302 206 callsubr
          hintmask 11000000
          -101 callsubr
          hintmask 00110000
          -113 376 -82 callsubr
        </CharString>
        <CharString name="Ohookabove">
          61 callsubr
          53 157 callsubr
          hintmask 11000000
          -101 callsubr
          hintmask 00110000
          -97 487 -100 callgsubr
        </CharString>
        <CharString name="Ohorn">
          104 callgsubr
          89 70 callgsubr
          hintmask 01001000
          -63 callgsubr
          endchar
        </CharString>
        <CharString name="Ohornacute">
          104 callgsubr
          52 -21 58 -20 96 70 callgsubr
          hintmask 01000100
          -63 callgsubr
          hintmask 00001010
          -129 434 rmoveto
          20 4 -13 -102 callsubr
          7 hvcurveto
          142 -68 callgsubr
        </CharString>
        <CharString name="Ohorndotbelow">
          301 -200 100 89 140 callgsubr
          89 -20 hstemhm
          332 101 hintmask 00010000
          807 305 rmoveto
          14 86 -24 81 -55 57 rrcurveto
          hintmask 00100100
          -6 8 -8 7 -8 7 32 18 22 37 6 37 5 30 -5 37 -38 1 -31 -1 -24 -24 -4 -25 -3 -21 9 -19 18 -7 rrcurveto
          -10 -7 -9 -6 -9 hhcurveto
          hintmask 00010000
          -8 -8 -3 -5 -6 hvcurveto
          hintmask 00001000
          21 -44 -51 11 -54 hhcurveto
          hintmask 01010000
          -91 -94 -32 -61 -78 hvcurveto
          -72 -57 -53 -81 -14 -86 -14 -85 25 -81 54 -57 rrcurveto
          -61 58 82 -32 91 hhcurveto
          91 95 32 61 77 hvcurveto
          73 57 52 81 14 85 rrcurveto
          -67 13 rmoveto
          -12 -72 -41 -68 -61 -50 rrcurveto
          -50 -61 -76 -28 -74 hhcurveto
          -73 -66 28 50 -45 hvcurveto
          -43 50 -19 68 12 72 rrcurveto
          hintmask 00101000
          11 66 41 62 59 44 rrcurveto
          47 62 75 24 72 hhcurveto
          73 66 -24 -47 47 hvcurveto
          42 -44 22 -62 -11 -66 rrcurveto
          hintmask 10000010
          -307 -468 -96 callgsubr
        </CharString>
        <CharString name="Ohorngrave">
          104 callgsubr
          52 -21 58 -20 96 70 callgsubr
          hintmask 01000100
          -63 callgsubr
          hintmask 00001010
          -111 375 -82 callsubr
        </CharString>
        <CharString name="Ohornhookabove">
          104 callgsubr
          53 -21 57 -20 193 70 callgsubr
          hintmask 01000100
          -63 callgsubr
          hintmask 00001010
          -95 486 -100 callgsubr
        </CharString>
        <CharString name="Ohorntilde">
          104 callgsubr
          21 65 -10 65 -52 70 callgsubr
          hintmask 01001000
          -6 8 -8 7 -8 7 32 18 22 37 6 37 rrcurveto
          hintmask 00100010
          5 30 -5 37 -38 1 -31 -1 -24 -24 -4 -25 -3 -21 9 -19 18 -7 rrcurveto
          -10 -7 -9 -6 -9 hhcurveto
          -8 -8 -3 -5 -6 hvcurveto
          hintmask 00010000
          21 -44 -51 11 -54 hhcurveto
          hintmask 10100000
          -91 -94 -32 -61 -78 hvcurveto
          -72 -57 -53 -81 -14 -86 -14 -85 25 -81 54 -57 rrcurveto
          -61 58 82 -32 91 hhcurveto
          91 95 32 61 77 hvcurveto
          73 57 52 81 14 85 rrcurveto
          -67 13 rmoveto
          -12 -72 -41 -68 -61 -50 rrcurveto
          -50 -61 -76 -28 -74 hhcurveto
          -73 -66 28 50 -45 hvcurveto
          -43 50 -19 68 12 72 rrcurveto
          hintmask 01010000
          11 66 41 62 59 44 rrcurveto
          47 62 75 24 72 hhcurveto
          73 66 -24 -47 47 hvcurveto
          42 -44 22 -62 -11 -66 rrcurveto
          hintmask 00000100
          -63 413 -18 callgsubr
        </CharString>
        <CharString name="Ohungarumlaut">
          61 callsubr
          52 171 callgsubr
          hstemhm
          hintmask 11000000
          -101 callsubr
          hintmask 00110000
          -224 434 -73 callgsubr
        </CharString>
        <CharString name="Omacron">
          61 callsubr
          41 63 hstemhm
          hintmask 11000000
          -101 callsubr
          hintmask 00100000
          -28 377 -36 callsubr
        </CharString>
        <CharString name="Omega">
          -11 callgsubr
        </CharString>
        <CharString name="Omicron">
          61 callsubr
          hstem
          -101 callsubr
          endchar
        </CharString>
        <CharString name="Oogonek">
          61 callsubr
          hstem
          439 69 vstem
          809 305 rmoveto
          173 29 -130 144 -196 hhcurveto
          -198 -177 -147 -169 -28 hvcurveto
          -28 -166 118 -139 182 -11 -32 -26 -29 -36 -6 -36 -77 callgsubr
          6 41 25 36 35 23 185 16 158 140 27 159 rrcurveto
          -89 callsubr
          endchar
        </CharString>
        <CharString name="Oogonekacute">
          302 206 callsubr
          439 69 hintmask 11001000
          809 305 rmoveto
          173 29 -130 144 -196 hhcurveto
          -198 -177 -147 -169 -28 hvcurveto
          -28 -166 118 -139 182 -11 -32 -26 -29 -36 -6 -36 -77 callgsubr
          6 41 25 36 35 23 185 16 158 140 27 159 rrcurveto
          -89 callsubr
          hintmask 00110000
          -102 435 rmoveto
          20 4 -13 -102 callsubr
          7 hvcurveto
          142 -68 callgsubr
        </CharString>
        <CharString name="Orogate">
          302 809 305 rmoveto
          27 164 -115 137 -178 15 18 112 rcurveline
          17 -14 14 -17 -15 -13 -12 -14 -2 vhcurveto
          -20 -117 -185 -15 -159 -140 -27 -160 rlinecurve
          -27 -164 115 -137 178 -15 -18 -111 205 callsubr
          20 117 185 15 159 140 27 160 rlinecurve
          -89 callsubr
          endchar
        </CharString>
        <CharString name="Oslash">
          302 -85 61 13 92 callsubr
          74 -20 hstem
          109 56 588 56 vstem
          -49 callgsubr
          endchar
        </CharString>
        <CharString name="Oslash.dup">
          302 -85 61 13 92 callsubr
          74 -20 hstem
          109 56 588 56 vstem
          -49 callgsubr
          endchar
        </CharString>
        <CharString name="Oslashacute">
          302 -85 61 13 92 callsubr
          52 -21 43 -20 111 -20 hstemhm
          109 56 588 56 hintmask 11101011
          -49 callgsubr
          hintmask 00010100
          -113 446 rmoveto
          20 4 -13 -102 callsubr
          7 hvcurveto
          142 -68 callgsubr
        </CharString>
        <CharString name="Otilde">
          61 callsubr
          21 203 callsubr
          hintmask 11000000
          -101 callsubr
          hintmask 00010000
          -36 414 -88 callsubr
        </CharString>
        <CharString name="P">
          185 0 61 184 61 244 61 hstem
          194 callsubr
          342 69 vstem
          712 428 rmoveto
          97 17 -91 86 -142 hhcurveto
          -308 -76 callgsubr
          31 184 rlineto
          185 hlineto
          142 119 86 97 16 hvcurveto
          -69 hmoveto
          -65 -10 -95 -57 -110 hhcurveto
          -168 hlineto
          41 244 rlineto
          168 hlineto
          111 74 -57 -65 -11 hvcurveto
          endchar
        </CharString>
        <CharString name="Phi">
          0 61 93 61 181 61 93 61 211 callsubr
          176 69 -53 69 -59 69 -39 69 -59 69 -53 69 176 69 hintmask 0010000001000000
          750 305 rmoveto
          15 90 -141 57 -135 5 rrcurveto
          hintmask 0001000000100000
          16 93 8 callgsubr
          -225 -107 callgsubr
          78 hlineto
          hintmask 0010100001000000
          -16 -93 -141 -5 -156 -60 -14 -86 rlinecurve
          hintmask 0100001000000000
          -15 -90 141 -57 135 -5 rrcurveto
          hintmask 1000010000000000
          -16 -93 rlineto
          -78 -107 callgsubr
          225 -24 callsubr
          hintmask 0100101000010000
          16 93 141 5 156 60 14 86 rlinecurve
          -370 -90 rmoveto
          -66 2 -147 24 11 65 rrcurveto
          hintmask 0010000010000000
          10 61 147 27 75 2 rrcurveto
          hintmask 0100000100000000
          271 -90 rmoveto
          -11 -65 -155 -24 -66 -2 rrcurveto
          hintmask 0010000010010000
          30 181 74 -2 138 -27 -10 -61 rlinecurve
          endchar
        </CharString>
        <CharString name="Pi">
          147 callsubr
          194 callsubr
          257 69 13 69 vstem
          716 22 callgsubr
          -585 -76 callgsubr
          82 489 rlineto
          339 hlineto
          -82 -489 -71 callsubr
          endchar
        </CharString>
        <CharString name="Psi">
          302 0 61 93 61 207 61 67 61 hstemhm
          384 69 -53 69 -59 69 -13 69 hintmask 01100010
          833 452 rmoveto
          31 6 -25 0 -12 hhcurveto
          -47 -26 -21 -15 -16 hvcurveto
          -34 -28 -7 -37 -5 -25 -20 -95 -83 -40 -85 -7 rrcurveto
          hintmask 00010001
          56 335 8 callgsubr
          -225 -90 callsubr
          78 hlineto
          hintmask 01100010
          -56 -335 -93 8 -59 45 11 92 rlinecurve
          101 13 -64 22 -42 hhcurveto
          -11 -26 0 -31 -6 hvcurveto
          -4 -24 20 -5 3 -1 56 -5 -5 -35 -4 -30 -5 -42 12 -63 37 -34 rrcurveto
          hintmask 01000100
          47 -43 51 -11 59 -5 rrcurveto
          hintmask 10001000
          -16 -93 114 callgsubr
          hintmask 01100100
          16 93 130 10 110 64 26 126 rlinecurve
          5 25 8 38 52 5 17 2 13 9 3 19 rrcurveto
          endchar
        </CharString>
        <CharString name="Q">
          302 -118 -21 128 92 callsubr
          211 callsubr
          237 69 187 69 0 69 hintmask 11110100
          809 305 rmoveto
          173 29 -130 144 -196 hhcurveto
          -198 -177 163 callsubr
          34 3 10 41 hvcurveto
          5 2 3 0 0 vvcurveto
          12 -16 81 -109 rlineto
          -18 13 9 0 21 hhcurveto
          15 16 0 17 3 hvcurveto
          1 7 -11 14 -7 10 -88 119 rcurveline
          hintmask 01111010
          176 88 41 133 9 56 rrcurveto
          -69 1 rmoveto
          -16 -99 -78 -89 -100 -41 -40 51 -13 21 -9 11 rrcurveto
          10 -10 0 1 -23 hhcurveto
          -22 -10 0 -22 -4 hvcurveto
          65 -93 rlineto
          -31 -6 -33 0 0 vvcurveto
          122 callsubr
          endchar
        </CharString>
        <CharString name="R">
          24 callsubr
          261 69 0 69 1 69 cntrmask 11100000
          hintmask 11100101
          -48 callgsubr
          hintmask 11111011
          77 31 52 50 9 55 rrcurveto
          94 16 -115 74 -145 hhcurveto
          -268 -76 callgsubr
          36 214 rlineto
          143 hlineto
          57 45 -12 -11 20 hvcurveto
          36 -23 -2 -12 -10 -60 -10 -60 -4 -27 20 -36 rrcurveto
          -27 15 33 -18 41 hhcurveto
          71 52 57 48 8 hvcurveto
          -139 349 rmoveto
          -63 -11 -112 -44 -107 hhcurveto
          -136 hlineto
          124 callgsubr
          136 hlineto
          107 97 -44 -63 -10 hvcurveto
          endchar
        </CharString>
        <CharString name="Racute">
          24 callsubr
          261 69 0 69 1 69 cntrmask 11100000
          hintmask 11100101
          -48 callgsubr
          hintmask 11111011
          77 31 52 50 9 55 rrcurveto
          94 16 -115 74 -145 hhcurveto
          -268 -76 callgsubr
          36 214 rlineto
          143 hlineto
          57 45 -12 -11 20 hvcurveto
          36 -23 -2 -12 -10 -60 -10 -60 -4 -27 20 -36 rrcurveto
          -27 15 33 -18 41 hhcurveto
          71 52 57 48 8 hvcurveto
          -139 349 rmoveto
          -63 -11 -112 -44 -107 hhcurveto
          -136 hlineto
          124 callgsubr
          136 hlineto
          107 97 -44 -63 -10 hvcurveto
          hintmask 11100100
          -20 309 rmoveto
          20 4 -13 -102 callsubr
          7 hvcurveto
          142 -68 callgsubr
        </CharString>
        <CharString name="Rcaron">
          24 callsubr
          261 69 0 69 1 69 cntrmask 11100000
          hintmask 11100101
          -48 callgsubr
          hintmask 11111011
          77 31 52 50 9 55 rrcurveto
          94 16 -115 74 -145 hhcurveto
          -268 -76 callgsubr
          36 214 rlineto
          143 hlineto
          57 45 -12 -11 20 hvcurveto
          36 -23 -2 -12 -10 -60 -10 -60 -4 -27 20 -36 rrcurveto
          -27 15 33 -18 41 hhcurveto
          71 52 57 48 8 hvcurveto
          -139 349 rmoveto
          -63 -11 -112 -44 -107 hhcurveto
          -136 hlineto
          124 callgsubr
          136 hlineto
          107 97 -44 -63 -10 hvcurveto
          hintmask 11100000
          -9 245 -69 callsubr
        </CharString>
        <CharString name="Rcedilla">
          24 callsubr
          261 69 0 69 1 69 cntrmask 11100000
          hintmask 11100101
          -48 callgsubr
          hintmask 11111011
          77 31 52 50 9 55 rrcurveto
          94 16 -115 74 -145 hhcurveto
          -268 -76 callgsubr
          36 214 rlineto
          143 hlineto
          57 45 -12 -11 20 hvcurveto
          36 -23 -2 -12 -10 -60 -10 -60 -4 -27 20 -36 rrcurveto
          -27 15 33 -18 41 hhcurveto
          71 52 57 48 8 hvcurveto
          -139 349 rmoveto
          -63 -11 -112 -44 -107 hhcurveto
          -136 hlineto
          124 callgsubr
          136 hlineto
          107 97 -44 -63 -10 hvcurveto
          -223 -543 -94 callgsubr
        </CharString>
        <CharString name="Rcommaaccent">
          24 callsubr
          261 69 0 69 1 69 cntrmask 11100000
          hintmask 11100101
          -48 callgsubr
          hintmask 11111011
          77 31 52 50 9 55 rrcurveto
          94 16 -115 74 -145 hhcurveto
          -268 -76 callgsubr
          36 214 rlineto
          143 hlineto
          57 45 -12 -11 20 hvcurveto
          36 -23 -2 -12 -10 -60 -10 -60 -4 -27 20 -36 rrcurveto
          -27 15 33 -18 41 hhcurveto
          71 52 57 48 8 hvcurveto
          -139 349 rmoveto
          -63 -11 -112 -44 -107 hhcurveto
          -136 hlineto
          124 callgsubr
          136 hlineto
          107 97 -44 -63 -10 hvcurveto
          hintmask 11100000
          -223 -543 -94 callgsubr
        </CharString>
        <CharString name="Rdblgrave">
          24 callsubr
          261 69 0 69 1 69 cntrmask 11100000
          hintmask 11100101
          -48 callgsubr
          hintmask 11111011
          77 31 52 50 9 55 rrcurveto
          94 16 -115 74 -145 hhcurveto
          -268 -76 callgsubr
          36 214 rlineto
          143 hlineto
          57 45 -12 -11 20 hvcurveto
          36 -23 -2 -12 -10 -60 -10 -60 -4 -27 20 -36 rrcurveto
          -27 15 33 -18 41 hhcurveto
          71 52 57 48 8 hvcurveto
          -139 349 rmoveto
          -63 -11 -112 -44 -107 hhcurveto
          -136 hlineto
          124 callgsubr
          136 hlineto
          107 97 -44 -63 -10 hvcurveto
          hintmask 11100000
          -2 248 -99 callsubr
        </CharString>
        <CharString name="Rdotaccent">
          24 callsubr
          144 101 16 69 0 69 1 69 cntrmask 1110000000000000
          hintmask 1110001010000000
          -48 callgsubr
          hintmask 1111100110000000
          77 31 52 50 9 55 rrcurveto
          94 16 -115 74 -145 hhcurveto
          -268 -76 callgsubr
          36 214 rlineto
          143 hlineto
          57 45 -12 -11 20 hvcurveto
          36 -23 -2 -12 -10 -60 -10 -60 -4 -27 20 -36 rrcurveto
          -27 15 33 -18 41 hhcurveto
          71 52 57 48 8 hvcurveto
          -139 349 rmoveto
          -63 -11 -112 -44 -107 hhcurveto
          -136 hlineto
          124 callgsubr
          136 hlineto
          107 97 -44 -63 -10 hvcurveto
          hintmask 1110010000000000
          -85 261 6 callgsubr
        </CharString>
        <CharString name="Rdotbelow">
          24 callsubr
          2 101 158 69 0 69 1 69 cntrmask 1110000000000000
          hintmask 1110001010000000
          -48 callgsubr
          hintmask 1111100110000000
          77 31 52 50 9 55 rrcurveto
          94 16 -115 74 -145 hhcurveto
          -268 -76 callgsubr
          36 214 rlineto
          143 hlineto
          57 45 -12 -11 20 hvcurveto
          36 -23 -2 -12 -10 -60 -10 -60 -4 -27 20 -36 rrcurveto
          -27 15 33 -18 41 hhcurveto
          71 52 57 48 8 hvcurveto
          -139 349 rmoveto
          -63 -11 -112 -44 -107 hhcurveto
          -136 hlineto
          124 callgsubr
          136 hlineto
          107 97 -44 -63 -10 hvcurveto
          hintmask 1110010000000000
          -227 -593 -96 callgsubr
        </CharString>
        <CharString name="Rdotbelowmacron">
          24 callsubr
          2 101 158 69 0 69 1 69 cntrmask 1110000000000000
          hintmask 1110001010000000
          -48 callgsubr
          hintmask 1111110110000000
          77 31 52 50 9 55 rrcurveto
          94 16 -115 74 -145 hhcurveto
          -268 -76 callgsubr
          36 214 rlineto
          143 hlineto
          57 45 -12 -11 20 hvcurveto
          36 -23 -2 -12 -10 -60 -10 -60 -4 -27 20 -36 rrcurveto
          -27 15 33 -18 41 hhcurveto
          71 52 57 48 8 hvcurveto
          -139 349 rmoveto
          -63 -11 -112 -44 -107 hhcurveto
          -136 hlineto
          124 callgsubr
          136 hlineto
          107 97 -44 -63 -10 hvcurveto
          -227 -593 rmoveto
          25 callgsubr
          20 -23 27 hhcurveto
          31 24 8 callsubr
          hintmask 1110000000000000
          281 844 -36 callsubr
        </CharString>
        <CharString name="Rho">
          185 0 61 184 61 244 61 hstem
          194 callsubr
          342 69 vstem
          712 428 rmoveto
          97 17 -91 86 -142 hhcurveto
          -308 -76 callgsubr
          31 184 rlineto
          185 hlineto
          142 119 86 97 16 hvcurveto
          -69 hmoveto
          -65 -10 -95 -57 -110 hhcurveto
          -168 hlineto
          41 244 rlineto
          168 hlineto
          111 74 -57 -65 -11 hvcurveto
          endchar
        </CharString>
        <CharString name="S">
          68 148 callgsubr
          552 166 rmoveto
          -98 callsubr
          -42 51 82 -6 47 hhcurveto
          133 91 90 87 15 hvcurveto
          endchar
        </CharString>
        <CharString name="S_S">
          652 148 callgsubr
          552 166 rmoveto
          -98 callsubr
          -42 51 82 -6 47 hhcurveto
          133 91 90 87 15 hvcurveto
          583 hmoveto
          -98 callsubr
          -42 51 82 -6 47 hhcurveto
          133 91 90 87 15 hvcurveto
          endchar
        </CharString>
        <CharString name="Sacute">
          68 206 callsubr
          hintmask 11000000
          552 166 rmoveto
          -98 callsubr
          -42 51 82 -6 47 hhcurveto
          133 91 90 87 15 hvcurveto
          hintmask 00110000
          -29 586 rmoveto
          20 4 -13 -102 callsubr
          7 hvcurveto
          142 -68 callgsubr
        </CharString>
        <CharString name="Scaron">
          68 179 callsubr
          552 166 rmoveto
          -98 callsubr
          -42 51 82 -6 47 hhcurveto
          133 91 90 87 15 hvcurveto
          -18 522 -69 callsubr
        </CharString>
        <CharString name="Scedilla">
          68 148 callgsubr
          165 65 vstem
          552 166 rmoveto
          -98 callsubr
          43 -34 62 -11 46 -2 -3 -17 rcurveline
          147 callgsubr
          51 callgsubr
          1 2 rcurveline
          110 16 75 80 13 78 rrcurveto
          endchar
        </CharString>
        <CharString name="Scircumflex">
          68 179 callsubr
          552 166 rmoveto
          -98 callsubr
          -42 51 82 -6 47 hhcurveto
          133 91 90 87 15 hvcurveto
          -15 535 -95 callsubr
          endchar
        </CharString>
        <CharString name="Sdotbelow">
          68 176 callsubr
          216 101 hintmask 01100000
          552 166 rmoveto
          -98 callsubr
          -42 51 82 -6 47 hhcurveto
          133 91 90 87 15 hvcurveto
          hintmask 10010000
          -235 -316 -96 callgsubr
        </CharString>
        <CharString name="Sigma">
          0 63 487 61 hstemhm
          649 69 -5 69 hintmask 11100000
          706 41 rmoveto
          12 75 rlineto
          19 4 43 callsubr
          -3 -21 -20 -4 hvcurveto
          -8 -53 rlineto
          -461 hlineto
          219 217 rlineto
          14 14 2 11 0 vvcurveto
          2 11 -4 6 -6 8 -151 220 rcurveline
          466 hlineto
          hintmask 11010000
          -9 -53 rlineto
          -19 -3 -4 -22 34 hhcurveto
          173 callsubr
          -560 hlineto
          -16 -25 0 -31 -5 hvcurveto
          -2 -12 3 -4 6 -9 171 -250 rcurveline
          -254 -253 -10 -9 -5 -5 -1 -10 rlinecurve
          -28 -5 28 0 13 hhcurveto
          560 137 callgsubr
        </CharString>
        <CharString name="T">
          147 callsubr
          88 callsubr
          vstem
          -85 callgsubr
          endchar
        </CharString>
        <CharString name="T_uni0303">
          137 callsubr
          65 -10 65 144 callsubr
          hintmask 11001111
          -85 callgsubr
          hintmask 00010000
          -125 234 -88 callsubr
        </CharString>
        <CharString name="T_uni0308">
          137 callsubr
          90 119 callsubr
          161 91 -88 69 13 69 43 91 94 69 hintmask 1101011010000000
          -85 callgsubr
          hintmask 0010100100000000
          -360 191 -72 callsubr
        </CharString>
        <CharString name="Tau">
          147 callsubr
          88 callsubr
          vstem
          -85 callgsubr
          endchar
        </CharString>
        <CharString name="Tcaron">
          0 168 callgsubr
          vstemhm
          -85 callgsubr
          -180 191 -69 callsubr
        </CharString>
        <CharString name="Tcedilla">
          -211 62 149 61 489 89 callsubr
          164 69 -10 69 -46 69 228 69 hintmask 01111010
          802 32 callgsubr
          -600 hlineto
          -33 -9 -8 -33 -6 hvcurveto
          -13 callgsubr
          9 53 212 callgsubr
          -82 -489 rlineto
          -93 hlineto
          -14 -27 -67 callsubr
          26 0 15 hhcurveto
          94 hlineto
          -6 -30 147 callgsubr
          rlinecurve
          hintmask 11000100
          93 callgsubr
          13 rcurveline
          93 hlineto
          14 27 -95 callgsubr
          -42 callgsubr
          hintmask 01101011
          -93 74 callgsubr
          237 9 callgsubr
          endchar
        </CharString>
        <CharString name="Tdotbelow">
          73 callsubr
          hstemhm
          121 69 113 101 -50 69 13 69 228 69 hintmask 01110111
          -85 callgsubr
          hintmask 10001000
          -398 -647 -96 callgsubr
        </CharString>
        <CharString name="Theta">
          302 -11 61 222 67 222 61 hstem
          109 69 562 69 cntrmask 11100000
          809 305 rmoveto
          173 29 -130 144 -196 hhcurveto
          -198 -177 169 callsubr
          198 177 147 169 28 hvcurveto
          -69 1 rmoveto
          -141 -23 -145 -115 -156 hhcurveto
          122 callsubr
          -63 -24 rmoveto
          8 47 rlineto
          20 3 4 21 -35 hhcurveto
          -11 -21 0 -31 -7 hvcurveto
          -306 hlineto
          30 3 -20 1 -12 hhcurveto
          -35 37 callgsubr
          -8 -47 rlineto
          118 callsubr
          11 21 0 31 7 hvcurveto
          306 hlineto
          -30 -3 20 -1 12 hhcurveto
          35 -25 callsubr
          endchar
        </CharString>
        <CharString name="Thorn">
          127 0 61 98 196 callgsubr
          43 61 hstem
          639 333 rmoveto
          87 14 -71 87 -135 hhcurveto
          -152 hlineto
          7 43 rlineto
          51 187 callgsubr
          -172 hlineto
          -19 -24 -67 callsubr
          23 0 20 hhcurveto
          51 hlineto
          -82 -489 rlineto
          -51 hlineto
          -19 -24 -67 callsubr
          23 0 20 hhcurveto
          172 187 callgsubr
          -51 hlineto
          17 98 rlineto
          153 hlineto
          132 102 85 89 15 hvcurveto
          -70 hmoveto
          -57 -10 -80 -56 -107 hhcurveto
          -125 hlineto
          37 226 rlineto
          137 hlineto
          105 52 -58 -55 -9 hvcurveto
          endchar
        </CharString>
        <CharString name="Tlinebelow">
          -181 63 118 168 callgsubr
          hintmask 01111110
          -85 callgsubr
          hintmask 10000000
          -258 -647 -71 callgsubr
        </CharString>
        <CharString name="U">
          128 callsubr
          hstem
          102 callsubr
          vstem
          -103 callgsubr
          endchar
        </CharString>
        <CharString name="U_uni032F">
          -185 -21 49 64 82 132 callgsubr
          82 callsubr
          hintmask 00111100
          -103 callgsubr
          hintmask 11000000
          -258 -755 -17 callgsubr
        </CharString>
        <CharString name="Uacute">
          128 callsubr
          63 -21 134 -20 82 callsubr
          hintmask 11001100
          -103 callgsubr
          hintmask 00110000
          -174 172 rmoveto
          20 4 -13 -102 callsubr
          7 hvcurveto
          142 -68 callgsubr
        </CharString>
        <CharString name="Ubreve">
          128 callsubr
          42 64 49 -20 82 callsubr
          hintmask 11001100
          -103 callgsubr
          hintmask 00110000
          -107 155 -86 callgsubr
          endchar
        </CharString>
        <CharString name="Ucaron">
          128 callsubr
          82 callsubr
          vstemhm
          -103 callgsubr
          -163 108 -69 callsubr
        </CharString>
        <CharString name="Ucircumflex">
          128 callsubr
          82 callsubr
          vstemhm
          -103 callgsubr
          -160 121 -95 callsubr
          endchar
        </CharString>
        <CharString name="Udblgrave">
          128 callsubr
          63 171 callgsubr
          82 callsubr
          hintmask 11001100
          -103 callgsubr
          hintmask 00110000
          -127 111 -99 callsubr
        </CharString>
        <CharString name="Udieresis">
          128 callsubr
          32 90 134 callgsubr
          hintmask 11010010
          -103 callgsubr
          hintmask 00101100
          -6 callgsubr
          endchar
        </CharString>
        <CharString name="Udieresisacute">
          128 callsubr
          32 90 62 -21 134 -20 134 callgsubr
          hintmask 1100010010000000
          -103 callgsubr
          hintmask 0011101100000000
          -6 callgsubr
          -8 185 rmoveto
          20 4 -13 -102 callsubr
          7 hvcurveto
          142 -68 callgsubr
        </CharString>
        <CharString name="Udieresiscaron">
          128 callsubr
          32 90 134 callgsubr
          hintmask 11010010
          -103 callgsubr
          hintmask 00101100
          -6 callgsubr
          3 121 -69 callsubr
        </CharString>
        <CharString name="Udieresisgrave">
          128 callsubr
          32 90 62 -21 134 -20 134 callgsubr
          hintmask 1100010010000000
          -103 callgsubr
          hintmask 0011101100000000
          -6 callgsubr
          -19 126 -82 callsubr
        </CharString>
        <CharString name="Udotbelow">
          -200 100 89 132 callgsubr
          hstemhm
          232 69 25 101 213 69 hintmask 01110100
          -103 callgsubr
          hintmask 10001000
          -381 -730 -96 callgsubr
        </CharString>
        <CharString name="Ugrave">
          128 callsubr
          63 -21 134 -20 82 callsubr
          hintmask 11001100
          -103 callgsubr
          hintmask 00110000
          -185 113 -82 callsubr
        </CharString>
        <CharString name="Uhookabove">
          128 callsubr
          64 -21 230 -20 82 callsubr
          hintmask 11001100
          -103 callgsubr
          hintmask 00110000
          -170 224 -100 callgsubr
        </CharString>
        <CharString name="Uhorn">
          128 callsubr
          -28 61 67 97 callgsubr
          hintmask 01010010
          800 644 rmoveto
          5 30 -6 36 -37 1 -31 -1 -24 -24 -4 -25 -3 -19 7 -17 15 -9 -5 -4 -5 -3 -7 -3 rrcurveto
          3 -4 -5 2 -6 hhcurveto
          -107 hlineto
          hintmask 00100000
          55 callsubr
          hintmask 01000001
          -16 -2 10 -12 16 hhcurveto
          66 hlineto
          -58 -346 rlineto
          hintmask 10001010
          -7 -41 -24 -39 -36 -28 rrcurveto
          -30 -37 -46 -16 -45 hhcurveto
          -45 -40 16 30 -27 hvcurveto
          -26 28 -12 39 7 41 rrcurveto
          hintmask 01000100
          58 346 rlineto
          66 hlineto
          16 14 12 16 2 hvcurveto
          hintmask 00100000
          1 5 rlineto
          hintmask 01000000
          15 3 -10 13 195 callsubr
          hintmask 00100000
          55 callsubr
          hintmask 01000100
          -16 -2 10 -12 16 hhcurveto
          66 hlineto
          hintmask 10101001
          -58 -346 -10 -59 18 -55 38 -39 rlinecurve
          -41 38 56 -21 62 hhcurveto
          62 64 21 41 52 hvcurveto
          51 39 35 55 10 59 57 342 rcurveline
          46 13 40 38 7 47 rrcurveto
          endchar
        </CharString>
        <CharString name="Uhornacute">
          128 callsubr
          -28 61 30 -21 58 -20 96 97 callgsubr
          hintmask 0100100010000000
          -77 callsubr
          hintmask 0001010000000000
          -196 108 rmoveto
          20 4 -13 -102 callsubr
          7 hvcurveto
          142 -68 callgsubr
        </CharString>
        <CharString name="Uhorndotbelow">
          -200 100 89 132 callgsubr
          -28 61 67 -20 hstemhm
          174 69 -11 69 2 101 110 69 -2 69 hintmask 0010100010000000
          800 644 rmoveto
          5 30 -6 36 -37 1 -31 -1 -24 -24 -4 -25 -3 -19 7 -17 15 -9 -5 -4 -5 -3 -7 -3 rrcurveto
          3 -4 -5 2 -6 hhcurveto
          -107 hlineto
          hintmask 0001000000000000
          55 callsubr
          hintmask 0010000001000000
          -16 -2 10 -12 16 hhcurveto
          66 hlineto
          -58 -346 rlineto
          hintmask 0100010010000000
          -7 -41 -24 -39 -36 -28 rrcurveto
          -30 -37 -46 -16 -45 hhcurveto
          -45 -40 16 30 -27 hvcurveto
          -26 28 -12 39 7 41 rrcurveto
          hintmask 0010001000000000
          58 346 rlineto
          66 hlineto
          16 14 12 16 2 hvcurveto
          hintmask 0001000000000000
          1 5 rlineto
          hintmask 0010000000000000
          15 3 -10 13 195 callsubr
          hintmask 0001000000000000
          55 callsubr
          hintmask 0010001000000000
          -16 -2 10 -12 16 hhcurveto
          66 hlineto
          hintmask 0101010001000000
          -58 -346 -10 -59 18 -55 38 -39 rlinecurve
          -41 38 56 -21 62 hhcurveto
          62 64 21 41 52 hvcurveto
          51 39 35 55 10 59 57 342 rcurveline
          46 13 40 38 7 47 rrcurveto
          hintmask 1000000100000000
          -396 -794 -96 callgsubr
        </CharString>
        <CharString name="Uhorngrave">
          128 callsubr
          -28 61 30 -21 58 -20 96 97 callgsubr
          hintmask 0100100010000000
          -77 callsubr
          hintmask 0001010000000000
          -177 49 -82 callsubr
        </CharString>
        <CharString name="Uhornhookabove">
          128 callsubr
          -28 61 31 -21 57 -20 193 97 callgsubr
          hintmask 0100100010000000
          -77 callsubr
          hintmask 0001010000000000
          -162 160 -100 callgsubr
        </CharString>
        <CharString name="Uhorntilde">
          128 callsubr
          -28 61 -1 65 -10 65 -52 97 callgsubr
          hintmask 0100010010000000
          -77 callsubr
          hintmask 0000100000000000
          -100 87 -60 callgsubr
        </CharString>
        <CharString name="Uhungarumlaut">
          128 callsubr
          63 171 callgsubr
          82 callsubr
          hintmask 11001100
          -103 callgsubr
          hintmask 00110000
          -296 171 -73 callgsubr
        </CharString>
        <CharString name="Umacron">
          128 callsubr
          52 63 82 callsubr
          hintmask 11011000
          -103 callgsubr
          hintmask 00100000
          -100 114 -36 callsubr
        </CharString>
        <CharString name="Uogonek">
          -203 54 138 132 callgsubr
          hstem
          232 69 83 69 187 69 vstem
          808 580 rmoveto
          -92 callgsubr
          -57 -338 rlineto
          -114 -19 -105 -48 -72 hhcurveto
          -76 -85 50 112 18 hvcurveto
          57 338 rlineto
          54 hlineto
          15 25 0 30 5 hvcurveto
          -92 callgsubr
          -58 -344 -18 -111 72 -84 104 -18 rlinecurve
          -35 -26 -31 -37 -6 -38 -77 callgsubr
          6 40 25 36 34 23 128 4 119 91 20 122 58 344 rcurveline
          54 184 callsubr
        </CharString>
        <CharString name="Upsilon">
          302 0 61 509 52 hstemhm
          384 69 -27 69 276 69 hintmask 01010000
          840 492 rmoveto
          71 12 -63 59 -89 hhcurveto
          -108 -76 -97 -124 -40 hvcurveto
          -1 hlineto
          111 -1 -33 110 -117 hhcurveto
          -89 -83 -59 -71 -12 hvcurveto
          -31 -5 25 0 10 hhcurveto
          31 5 17 17 4 hvcurveto
          41 10 43 34 55 hhcurveto
          120 4 -160 -98 -16 hvcurveto
          hintmask 10100000
          -42 -251 114 callgsubr
          hintmask 01011000
          42 251 rlineto
          104 17 59 154 117 hhcurveto
          52 34 -31 -45 -3 hvcurveto
          -16 -1 -1 -17 31 hhcurveto
          10 25 167 callgsubr
          endchar
        </CharString>
        <CharString name="Uring">
          128 callsubr
          12 37 58 37 82 callsubr
          hintmask 11001100
          -103 callgsubr
          hintmask 00110000
          -240 109 -46 callsubr
        </CharString>
        <CharString name="Utilde">
          128 callsubr
          32 65 -10 65 82 callsubr
          hintmask 11001100
          -103 callgsubr
          hintmask 00010000
          -108 151 -88 callsubr
        </CharString>
        <CharString name="V">
          211 callgsubr
          hstem
          125 701 vstem
          826 50 callgsubr
          -154 88 callgsubr
          39 hlineto
          -278 -499 -113 499 rlineto
          39 110 callgsubr
          -154 -90 callsubr
          41 hlineto
          118 -522 rlineto
          -25 6 5 -11 38 hhcurveto
          19 hlineto
          24 18 1 34 19 hvcurveto
          292 523 rlineto
          41 184 callsubr
        </CharString>
        <CharString name="W">
          177 callgsubr
          hstem
          121 1001 vstem
          -74 callgsubr
          endchar
        </CharString>
        <CharString name="Wacute">
          177 callgsubr
          63 71 callsubr
          121 1001 hintmask 11001000
          -74 callgsubr
          hintmask 00110000
          -365 172 rmoveto
          20 4 -13 -102 callsubr
          7 hvcurveto
          142 -68 callgsubr
        </CharString>
        <CharString name="Wcircumflex">
          177 callgsubr
          hstemhm
          121 1001 vstemhm
          -74 callgsubr
          -351 121 -95 callsubr
          endchar
        </CharString>
        <CharString name="Wdieresis">
          177 callgsubr
          32 90 hstemhm
          121 1001 -625 91 106 91 hintmask 11010000
          -74 callgsubr
          hintmask 00101100
          -534 68 callsubr
        </CharString>
        <CharString name="Wgrave">
          177 callgsubr
          63 71 callsubr
          121 1001 hintmask 11001000
          -74 callgsubr
          hintmask 00110000
          -376 113 -82 callsubr
        </CharString>
        <CharString name="X">
          -9 callsubr
        </CharString>
        <CharString name="Xi">
          185 0 59 47 -20 176 -21 47 59 47 -20 157 -21 42 59 hstem
          142 69 461 69 vstem
          741 551 rmoveto
          3 19 -53 callsubr
          -518 hlineto
          -33 -9 -8 -33 -6 hvcurveto
          -3 -19 rlineto
          138 callgsubr
          35 3 20 22 4 hvcurveto
          461 hlineto
          -22 -4 -3 -20 35 hhcurveto
          34 4 22 19 3 hvcurveto
          -79 -510 rmoveto
          4 24 77 callsubr
          -19 -28 -5 hvcurveto
          -473 hlineto
          28 5 3 19 -35 156 callsubr
          -4 -24 rlineto
          -33 -6 7 -8 33 hhcurveto
          530 -41 callsubr
          -62 241 rmoveto
          12 71 rlineto
          20 3 4 21 -34 hhcurveto
          -35 -3 -19 -28 -5 hvcurveto
          -269 hlineto
          28 5 3 19 -35 hhcurveto
          -34 37 callgsubr
          -12 -71 rlineto
          181 callsubr
          34 hhcurveto
          35 3 19 28 5 hvcurveto
          269 hlineto
          -28 -5 -3 -19 35 hhcurveto
          34 -25 callsubr
          endchar
        </CharString>
        <CharString name="Y">
          10 callgsubr
          endchar
        </CharString>
        <CharString name="Yacute">
          43 callgsubr
          63 -21 134 -20 160 callsubr
          hintmask 01001010
          -70 callsubr
          hintmask 00110000
          -213 172 rmoveto
          20 4 -13 -102 callsubr
          7 hvcurveto
          142 -68 callgsubr
        </CharString>
        <CharString name="Ycircumflex">
          10 callgsubr
          hintmask 00000000
          -199 121 -95 callsubr
          endchar
        </CharString>
        <CharString name="Ydieresis">
          137 callsubr
          90 hstemhm
          296 69 -14 91 -88 69 -38 69 94 91 hintmask 01010010
          -70 callsubr
          hintmask 00101001
          -382 68 callsubr
        </CharString>
        <CharString name="Ydotbelow">
          73 callsubr
          hstemhm
          296 69 -62 101 -50 69 -38 69 hintmask 00110010
          824 580 rmoveto
          1 callgsubr
          23 hlineto
          -215 -236 -134 236 -31 callgsubr
          174 -306 rlineto
          hintmask 01000100
          -32 callsubr
          hintmask 00100010
          31 183 276 306 79 callsubr
          hintmask 10001000
          -420 -730 -96 callgsubr
        </CharString>
        <CharString name="Ygrave">
          43 callgsubr
          63 -21 134 -20 160 callsubr
          hintmask 01001010
          -70 callsubr
          hintmask 00110000
          -224 113 -82 callsubr
        </CharString>
        <CharString name="Yhookabove">
          43 callgsubr
          64 -21 230 -20 160 callsubr
          hintmask 01001010
          -70 callsubr
          hintmask 00110000
          -208 224 -100 callgsubr
        </CharString>
        <CharString name="Ytilde">
          137 callsubr
          65 -10 65 160 callsubr
          hintmask 01001010
          -70 callsubr
          hintmask 00010000
          -147 151 -88 callsubr
        </CharString>
        <CharString name="Z">
          -38 callsubr
          endchar
        </CharString>
        <CharString name="Zacute">
          127 43 callgsubr
          63 71 callsubr
          99 69 -12 69 -60 69 308 69 hintmask 11000011
          -26 callgsubr
          hintmask 00001000
          -33 -9 -8 -33 -6 hvcurveto
          hintmask 00000100
          -13 callgsubr
          hintmask 01000010
          51 callsubr
          hintmask 10001000
          -34 -6 22 0 19 hhcurveto
          450 -41 callsubr
          hintmask 00110000
          -44 711 rmoveto
          20 4 -13 -102 callsubr
          7 hvcurveto
          142 -68 callgsubr
        </CharString>
        <CharString name="Zcaron">
          -38 callsubr
          hintmask 00000000
          -33 647 -69 callsubr
        </CharString>
        <CharString name="Zdotaccent">
          127 43 callgsubr
          43 100 hstemhm
          99 69 -12 69 -60 69 153 101 54 69 hintmask 11000101
          -26 callgsubr
          hintmask 00010000
          -33 -9 -8 -33 -6 hvcurveto
          hintmask 00001000
          -13 callgsubr
          hintmask 01000100
          51 callsubr
          hintmask 10010000
          -34 -6 22 0 19 hhcurveto
          450 -41 callsubr
          hintmask 00100010
          -108 663 6 callgsubr
        </CharString>
        <CharString name="Zdotbelow">
          127 73 callsubr
          hstemhm
          99 69 -12 69 -60 69 11 101 196 69 hintmask 01100101
          -26 callgsubr
          hintmask 00010000
          -33 -9 -8 -33 -6 hvcurveto
          hintmask 00001000
          -13 callgsubr
          hintmask 00100100
          51 callsubr
          hintmask 01010000
          -34 -6 22 0 19 hhcurveto
          450 -41 callsubr
          hintmask 10000010
          -250 -191 -96 callgsubr
        </CharString>
        <CharString name="Zeta">
          -38 callsubr
          endchar
        </CharString>
        <CharString name="a">
          -6 callsubr
          -105 callgsubr
          endchar
        </CharString>
        <CharString name="aacute">
          -6 callsubr
          58 -21 134 -76 callsubr
          88 358 rmoveto
          20 3 -12 -102 callsubr
          6 hvcurveto
          143 59 26 11 6 13 2 11 rlinecurve
          endchar
        </CharString>
        <CharString name="abreve">
          117 callsubr
          49 -76 callsubr
          -22 callgsubr
          endchar
        </CharString>
        <CharString name="abreveacute">
          117 callsubr
          69 64 -59 64 65 -93 callsubr
          hintmask 00001011
          -22 callgsubr
          -45 150 rmoveto
          20 3 -12 15 -20 hhcurveto
          0 -8 0 -12 197 callsubr
          hintmask 00000100
          -8 -1 2 -32 26 hhcurveto
          hintmask 00000010
          7 5 2 3 6 hvcurveto
          hintmask 00000100
          143 -68 callgsubr
        </CharString>
        <CharString name="abrevedotbelow">
          -5 -200 100 94 23 callsubr
          48 64 49 -20 -33 callgsubr
          hintmask 01010110
          -16 -38 -42 0 -7 hhcurveto
          -60 -33 35 38 6 hvcurveto
          8 44 72 41 157 5 rrcurveto
          -22 callgsubr
          hintmask 10000001
          -247 -720 -96 callgsubr
        </CharString>
        <CharString name="abrevegrave">
          117 callsubr
          49 -20 40 64 -59 64 -105 callgsubr
          hintmask 00001110
          -22 callgsubr
          -55 91 rmoveto
          -8 -1 -12 -32 -26 hhcurveto
          hintmask 00000001
          218 callsubr
          -6 hvcurveto
          hintmask 00000010
          143 callgsubr
          hintmask 00000001
          123 -60 13 -6 10 130 callgsubr
        </CharString>
        <CharString name="abrevehookabove">
          117 callsubr
          279 -76 callsubr
          -22 callgsubr
          -43 181 rmoveto
          4 25 -10 42 callsubr
          6 -3 7 hhcurveto
          7 9 7 callsubr
          1 7 142 callgsubr
          10 5 15 9 20 hhcurveto
          21 14 -3 -6 9 hvcurveto
          4 -4 3 59 callgsubr
          -3 -5 -5 -2 vhcurveto
          -45 -22 -39 -30 -7 -45 -3 -18 rcurveline
          161 callsubr
          16 14 13 15 3 hvcurveto
          3 18 2 15 18 45 callsubr
          5 25 rrcurveto
          endchar
        </CharString>
        <CharString name="abrevetilde">
          117 callsubr
          89 65 -10 65 -105 callgsubr
          hintmask 00001010
          -22 callgsubr
          26 159 -38 callgsubr
          hintmask 00000100
          -28 -35 -28 -45 callgsubr
          hintmask 00000010
          -51 callgsubr
          hintmask 00000100
          -31 callsubr
          hintmask 00000010
          198 callsubr
          hintmask 00000100
          -13 10 112 callsubr
          31 16 17 25 hvcurveto
          23 15 33 22 3 18 rrcurveto
          endchar
        </CharString>
        <CharString name="acaron">
          -6 callsubr
          -105 callgsubr
          hintmask 00000000
          113 338 -54 callgsubr
        </CharString>
        <CharString name="acircumflex">
          -6 callsubr
          -105 callgsubr
          hintmask 00000000
          109 314 -69 callgsubr
          endchar
        </CharString>
        <CharString name="acircumflexacute">
          -6 callsubr
          292 -93 callsubr
          hintmask 00001000
          103 316 -65 callgsubr
          5 163 rmoveto
          20 4 -13 -102 callsubr
          7 hvcurveto
          142 -68 callgsubr
        </CharString>
        <CharString name="acircumflexdotbelow">
          -5 -200 100 94 23 callsubr
          -33 callgsubr
          hintmask 01010000
          -16 -38 -42 0 -7 hhcurveto
          -60 -33 35 38 6 hvcurveto
          8 44 72 41 157 5 rrcurveto
          109 314 -69 callgsubr
          hintmask 10000100
          -199 -682 -96 callgsubr
        </CharString>
        <CharString name="acircumflexgrave">
          -6 callsubr
          -105 callgsubr
          hintmask 00000000
          103 316 -34 callgsubr
        </CharString>
        <CharString name="acircumflexhookabove">
          -6 callsubr
          368 -93 callsubr
          hintmask 00001000
          103 316 -64 callgsubr
        </CharString>
        <CharString name="acircumflextilde">
          -6 callsubr
          178 65 -10 65 -105 callgsubr
          hintmask 00000100
          103 316 -65 callgsubr
          76 172 -18 callgsubr
        </CharString>
        <CharString name="acute">
          10 498 83 callgsubr
          hstem
          465 576 rmoveto
          20 3 -12 -102 callsubr
          6 hvcurveto
          143 59 26 11 6 13 2 11 rlinecurve
          endchar
        </CharString>
        <CharString name="acute.cap">
          10 493 83 callgsubr
          hstem
          464 571 rmoveto
          20 4 -13 -102 callsubr
          7 hvcurveto
          142 -68 callgsubr
        </CharString>
        <CharString name="acute.dup">
          10 498 83 callgsubr
          hstem
          465 576 rmoveto
          20 3 -12 -102 callsubr
          6 hvcurveto
          143 59 26 11 6 13 2 11 rlinecurve
          endchar
        </CharString>
        <CharString name="acute.ts1">
          10 499 171 callgsubr
          21 -20 hstemhm
          hintmask 00100000
          504 576 rmoveto
          18 3 -12 18 -20 hhcurveto
          hintmask 11000000
          -6 -1 -13 -2 -15 -8 -13 -5 rlinecurve
          -45 -18 -97 -26 -5 -33 rrcurveto
          -22 -4 12 -19 22 hhcurveto
          16 2 19 10 16 7 86 35 rcurveline
          22 10 29 6 5 28 rrcurveto
          endchar
        </CharString>
        <CharString name="adblgrave">
          -6 callsubr
          59 -21 133 -76 callsubr
          135 298 -99 callsubr
        </CharString>
        <CharString name="adieresis">
          -6 callsubr
          59 90 hstemhm
          218 91 76 91 hintmask 01010100
          -106 callgsubr
          hintmask 00001110
          -61 326 -47 callgsubr
        </CharString>
        <CharString name="adotbelow">
          -5 -200 100 94 23 callsubr
          -33 callgsubr
          hintmask 01010000
          -16 -38 -42 0 -7 hhcurveto
          -60 -33 35 38 6 hvcurveto
          8 44 72 41 157 5 rrcurveto
          hintmask 10000100
          -90 -368 -96 callgsubr
        </CharString>
        <CharString name="ae">
          -33 callsubr
        </CharString>
        <CharString name="ae.dup">
          -33 callsubr
        </CharString>
        <CharString name="aeacute">
          -6 61 0 60 0 60 14 60 -58 60 128 61 58 71 callsubr
          73 69 35 69 -34 72 -38 72 59 70 -61 72 hintmask 0100110001001000
          746 -8 callsubr
          -38 -65 -11 -69 -69 hvcurveto
          80 -37 -94 0 -28 hhcurveto
          -42 -100 0 -73 -12 hvcurveto
          -30 -5 19 -16 24 hhcurveto
          16 28 10 36 7 hvcurveto
          2 8 1 1 15 2 rrcurveto
          hintmask 1001010010100100
          1 15 9 0 14 hhcurveto
          78 39 -35 -65 -10 hvcurveto
          -5 -30 -64 -2 -229 -7 -20 -122 rlinecurve
          -64 -11 51 -60 99 hhcurveto
          49 103 11 68 44 hvcurveto
          -66 46 68 -13 43 hhcurveto
          116 61 89 26 4 hvcurveto
          -46 142 rmoveto
          hintmask 0100110010010100
          -242 hlineto
          78 28 68 50 60 hhcurveto
          72 20 -62 -66 -6 hvcurveto
          -330 -124 rmoveto
          -2 -15 -4 -25 -46 -17 rrcurveto
          -14 -37 -39 -1 -11 hhcurveto
          -59 -36 28 36 6 hvcurveto
          hintmask 0011000000001000
          6 35 77 17 15 4 49 11 39 1 49 2 -5 -45 -1 -10 -1 -7 rrcurveto
          hintmask 0000001100000000
          212 449 rmoveto
          20 3 -12 -102 callsubr
          6 hvcurveto
          143 59 26 11 6 13 2 11 rlinecurve
          endchar
        </CharString>
        <CharString name="agrave">
          -6 callsubr
          58 -21 134 -76 callsubr
          77 299 rmoveto
          -62 callgsubr
        </CharString>
        <CharString name="ahookabove">
          -6 callsubr
          10 -21 230 -76 callsubr
          85 361 -99 callgsubr
        </CharString>
        <CharString name="amacron">
          -6 callsubr
          73 63 -105 callgsubr
          hintmask 00001000
          166 326 -71 callgsubr
        </CharString>
        <CharString name="ampersand">
          302 -11 61 56 143 callsubr
          130 61 hstem
          243 69 79 69 79 69 cntrmask 00001110
          831 79 callgsubr
          -212 -107 callgsubr
          76 hlineto
          -90 -116 -44 -57 -74 -62 -7 7 -69 70 -32 87 112 72 60 53 10 61 rrcurveto
          63 10 -29 74 -79 hhcurveto
          -61 -85 -47 -96 -16 hvcurveto
          -8 -49 2 -56 14 -52 -120 -75 rcurveline
          -32 -21 -37 -38 -8 -50 rrcurveto
          -88 -15 77 -61 103 hhcurveto
          69 69 26 43 61 hvcurveto
          -55 71 56 -14 50 hhcurveto
          94 65 62 55 9 hvcurveto
          5 32 -28 0 0 vvcurveto
          -24 -7 -22 -11 -2 hvcurveto
          -38 -12 -49 -17 -41 hhcurveto
          -39 -49 13 36 -47 hvcurveto
          8 7 26 23 34 38 21 22 20 23 19 24 106 134 rcurveline
          69 -104 callgsubr
          -371 85 rmoveto
          -7 -39 -86 -59 -51 -31 -14 61 9 58 1 4 rrcurveto
          63 10 59 19 27 hhcurveto
          45 12 -45 -31 -5 hvcurveto
          -69 -387 rmoveto
          -13 -21 -56 -35 -71 hhcurveto
          -68 -47 39 51 8 hvcurveto
          8 46 41 23 97 57 15 -39 21 -33 16 -23 22 -33 30 -35 5 -5 rrcurveto
          endchar
        </CharString>
        <CharString name="anglearc">
          302 -23 -21 700 -20 hstem
          616 70 vstem
          764 35 rmoveto
          2 14 -7 13 -11 5 -123 57 rcurveline
          29 58 22 62 10 62 10 62 0 62 -11 58 143 57 rcurveline
          13 5 11 13 2 14 rrcurveto
          202 callsubr
          -5 -5 -1 -2 -4 hvcurveto
          -143 -57 -11 32 -14 30 -18 29 rlinecurve
          8 -4 -10 5 -11 hhcurveto
          -20 -17 -16 -19 -3 hvcurveto
          -2 -8 1 -8 4 -6 15 -23 12 -25 9 -27 -464 -186 rcurveline
          -12 -5 -12 -13 -2 -14 -2 -14 7 -13 11 -5 402 -186 rcurveline
          -19 -27 -20 -25 -23 -23 -6 -6 -3 -8 -2 -8 rrcurveto
          -19 -3 13 -16 20 hhcurveto
          11 10 5 8 8 hvcurveto
          28 29 24 30 21 32 124 -57 rcurveline
          -2 3 5 -1 5 hhcurveto
          199 callsubr
          -148 271 rmoveto
          -9 -53 -17 -52 -26 -49 -331 154 rcurveline
          383 154 9 -49 0 -52 -9 -53 rlinecurve
          endchar
        </CharString>
        <CharString name="angleleft">
          -107 -62 -21 777 -20 21 -20 hstemhm
          hintmask 00100000
          341 -49 rmoveto
          3 17 -11 21 -4 17 -82 279 rcurveline
          -2 6 -5 8 1 7 1 4 2 3 3 3 9 16 rcurveline
          40 62 151 240 4 7 5 8 3 8 rlinecurve
          3 vlineto
          202 callsubr
          hintmask 11000000
          -6 -1 -21 -3 -10 -18 -9 -16 rlinecurve
          -69 -107 -64 -109 -71 -106 -6 -10 -6 -9 -2 -11 -3 -18 13 -26 6 -21 85 -287 rcurveline
          -18 4 7 -18 22 hhcurveto
          19 19 16 18 3 hvcurveto
          endchar
        </CharString>
        <CharString name="angleright">
          -107 -62 -21 778 -20 hstem
          343 307 rmoveto
          2 9 -4 9 -2 8 -57 191 rcurveline
          -40 135 rlineto
          17 -3 -8 19 -21 hhcurveto
          0 -5 0 -2 -1 vhcurveto
          -18 -3 -14 -15 -3 -17 -3 -17 9 -18 6 -15 83 -282 rcurveline
          2 -6 4 -8 -1 -7 -1 -8 -9 -9 -4 -7 -60 -99 -68 -98 -58 -99 -7 -10 -8 -10 -3 -11 rrcurveto
          -3 vlineto
          -19 -3 13 -16 20 hhcurveto
          22 1 11 18 11 17 205 324 rcurveline
          6 10 6 9 2 11 rrcurveto
          endchar
        </CharString>
        <CharString name="aogonek">
          -5 -203 54 143 61 -55 61 318 61 -15 callsubr
          endchar
        </CharString>
        <CharString name="aogonekacute">
          -5 -203 54 143 61 -55 61 318 61 58 -21 134 -20 -15 callsubr
          hintmask 00001100
          88 358 rmoveto
          20 3 -12 -102 callsubr
          6 hvcurveto
          143 59 26 11 6 13 2 11 rlinecurve
          endchar
        </CharString>
        <CharString name="aring">
          -6 callsubr
          52 37 58 37 -105 callgsubr
          hintmask 00001100
          29 340 -46 callsubr
        </CharString>
        <CharString name="aringacute">
          -6 callsubr
          52 37 58 37 154 -93 callsubr
          hintmask 00001110
          29 340 26 callgsubr
        </CharString>
        <CharString name="asciicircum">
          10 527 538 rmoveto
          -150 79 -7 3 -9 0 -7 -3 rlinecurve
          -176 -79 -38 -17 15 -52 37 15 rlinecurve
          162 65 140 -65 32 -15 33 52 -32 17 rlinecurve
          endchar
        </CharString>
        <CharString name="asciitilde">
          10 494 334 -38 callgsubr
          -25 callgsubr
          13 -10 -17 21 -34 hhcurveto
          -27 -31 -16 -17 -25 hvcurveto
          -23 -15 -33 -22 -3 -18 rrcurveto
          -31 callsubr
          28 35 28 -1 callsubr
          -61 callsubr
        </CharString>
        <CharString name="asciitilde.low">
          10 453 88 -38 callgsubr
          -25 callgsubr
          13 -10 -17 21 -34 hhcurveto
          -27 -31 -16 -17 -25 hvcurveto
          -23 -15 -33 -22 -3 -18 rrcurveto
          -31 callsubr
          28 35 28 -1 callsubr
          -61 callsubr
        </CharString>
        <CharString name="asterisk">
          10 111 -21 431 -20 hstemhm
          251 66 -8 66 hintmask 01010000
          492 214 rmoveto
          3 17 -11 9 -2 1 -22 17 -62 33 -24 14 118 59 rcurveline
          13 7 14 7 3 19 rrcurveto
          4 1 5 29 -40 hhcurveto
          -136 -72 6 26 12 66 5 29 rlinecurve
          9 1 6 33 -33 hhcurveto
          -33 -6 -33 -9 -1 hvcurveto
          -5 -29 -10 -66 -2 -26 -98 63 rcurveline
          9 -12 -2 0 -7 hhcurveto
          -20 -16 -18 -15 -3 hvcurveto
          -3 -19 10 -6 12 -7 99 -59 rcurveline
          -118 -59 -13 -7 -14 -6 -3 -20 rlinecurve
          -4 -1 -5 -29 40 hhcurveto
          136 72 rlineto
          hintmask 10100000
          -6 -26 -12 -66 -5 -29 rrcurveto
          -9 -1 -6 -33 33 hhcurveto
          33 6 33 9 1 hvcurveto
          5 29 10 66 2 26 56 -34 -34 20 63 -42 rrcurveto
          -16 24 2 0 8 hhcurveto
          20 16 18 15 3 hvcurveto
          endchar
        </CharString>
        <CharString name="asterisk.math">
          10 113 -21 430 -20 hstemhm
          209 64 36 64 -20 64 40 64 hintmask 00001100
          491 217 rmoveto
          3 17 -11 11 -15 7 -24 15 rcurveline
          -22 13 -22 16 -24 10 rrcurveto
          2 vlineto
          28 10 27 16 26 13 29 15 rcurveline
          18 7 14 11 3 17 rrcurveto
          16 3 -10 19 -20 hhcurveto
          -14 -14 -10 -7 -13 hvcurveto
          -33 -19 -34 -17 -33 -19 rrcurveto
          hintmask 11110000
          6 36 8 37 6 36 3 15 rcurveline
          17 3 -5 21 -25 hhcurveto
          -19 -16 -13 -22 -4 hvcurveto
          -1 -10 -3 -13 -2 -13 -1 -13 rlinecurve
          -5 -33 -3 -15 -1 -15 -3 -15 rlinecurve
          -27 19 -28 17 -27 19 rrcurveto
          7 -11 -10 10 -14 hhcurveto
          -20 -16 -19 -16 -3 hvcurveto
          -3 -17 12 -11 14 -7 25 -15 rcurveline
          22 -13 21 -16 24 -10 rrcurveto
          -2 vlineto
          -28 -10 -26 -16 -26 -13 -30 -15 rcurveline
          -17 -7 -15 -11 -3 -17 rrcurveto
          -16 -2 9 -19 20 hhcurveto
          14 14 10 7 13 hvcurveto
          33 19 34 17 33 19 -2 -15 -4 -15 -2 -15 -6 -33 rcurveline
          -3 -13 -2 -13 -2 -13 -2 -10 rcurveline
          -22 -3 11 -13 19 hhcurveto
          25 12 21 17 3 hvcurveto
          2 15 6 36 4 37 6 36 rlinecurve
          hintmask 00001000
          27 -19 28 -17 27 -19 rrcurveto
          -7 11 10 -10 14 hhcurveto
          20 17 19 16 2 hvcurveto
          endchar
        </CharString>
        <CharString name="at">
          185 -6 61 51 61 277 61 -33 61 23 61 hstemhm
          109 56 150 56 99 56 -45 56 hintmask 1001110000000000
          654 80 rmoveto
          28 5 -28 0 -10 hhcurveto
          -15 -2 0 -10 -18 hvcurveto
          -36 -70 -61 -7 -39 hhcurveto
          -165 -108 117 133 22 hvcurveto
          139 23 151 112 160 hhcurveto
          34 33 -6 -17 26 hvcurveto
          20 -12 14 -17 10 -32 rrcurveto
          hintmask 0010001010000000
          24 -31 -36 9 -32 hhcurveto
          -106 -98 -91 -108 -18 hvcurveto
          hintmask 1100110100000000
          -114 -19 73 -86 101 hhcurveto
          82 117 62 148 25 hvcurveto
          114 19 9 187 -213 hhcurveto
          -192 -180 -141 -170 -28 hvcurveto
          -170 -28 129 -142 197 hhcurveto
          83 75 25 29 56 hvcurveto
          19 9 12 6 2 17 rrcurveto
          -18 226 rmoveto
          hintmask 0100001010000000
          -79 -13 -72 -60 -70 hhcurveto
          -76 -46 64 74 12 hvcurveto
          hintmask 0010000100000000
          79 13 72 60 70 hhcurveto
          76 46 -64 -74 -12 hvcurveto
          endchar
        </CharString>
        <CharString name="atilde">
          -6 callsubr
          44 65 -10 65 -105 callgsubr
          hintmask 00000100
          156 354 -19 callsubr
        </CharString>
        <CharString name="b">
          68 -6 193 callsubr
          244 69 0 69 123 69 hintmask 11110100
          77 callgsubr
          31 187 -68 callsubr
          -85 -509 189 callsubr
          35 callgsubr
          hintmask 01001100
          106 callgsubr
        </CharString>
        <CharString name="backslash">
          10 458 -48 rmoveto
          1 8 -2 10 -2 6 -216 691 rcurveline
          10 -3 -5 17 -22 hhcurveto
          -20 -18 -17 -18 -3 hvcurveto
          -1 -8 2 -10 2 -6 216 -691 rcurveline
          -10 3 5 -17 22 hhcurveto
          20 18 17 18 3 hvcurveto
          endchar
        </CharString>
        <CharString name="baht">
          214 194 callgsubr
          hstem
          316 62 -52 62 -52 62 cntrmask 00011100
          698 167 rmoveto
          11 68 -53 65 -111 20 72 17 88 46 12 73 rrcurveto
          81 14 -87 74 -133 hhcurveto
          -21 hlineto
          10 62 rlineto
          85 callgsubr
          -18 -15 -14 -17 -3 hvcurveto
          -10 -62 rlineto
          -240 -104 callsubr
          240 hlineto
          -10 -62 rlineto
          -17 -3 10 -14 18 hhcurveto
          17 17 204 callgsubr
          10 62 rlineto
          49 hlineto
          136 111 81 86 14 hvcurveto
          -50 288 rmoveto
          -9 -54 -81 -49 -112 -4 34 202 rcurveline
          19 hlineto
          96 61 -45 -50 -8 hvcurveto
          -264 -107 rmoveto
          -117 hlineto
          34 202 rlineto
          117 hlineto
          211 -381 rmoveto
          -62 -10 -97 -46 -103 hhcurveto
          -21 hlineto
          38 226 rlineto
          37 hlineto
          99 68 -56 -62 -11 hvcurveto
          -293 -108 rmoveto
          -117 hlineto
          38 226 rlineto
          117 hlineto
          endchar
        </CharString>
        <CharString name="bar">
          10 221 70 44 70 vstem
          291 -36 rmoveto
          58 callsubr
          endchar
        </CharString>
        <CharString name="bigcircle">
          96 0 57 497 57 hstem
          51 57 497 57 vstem
          -50 callgsubr
          endchar
        </CharString>
        <CharString name="blanksymbol">
          68 -6 193 callsubr
          244 69 -43 69 -26 69 123 69 hintmask 01010000
          77 callgsubr
          12 75 116 88 8 5 5 9 2 9 rlinecurve
          85 callgsubr
          hintmask 00101000
          -8 -7 -3 -4 -7 hvcurveto
          -69 -53 5 30 -68 callsubr
          -12 -70 -95 -72 -8 -5 -5 -9 -2 -9 rlinecurve
          -17 -3 12 -14 17 hhcurveto
          8 8 3 4 5 hvcurveto
          49 37 -59 -357 189 callsubr
          hintmask 10010010
          35 callgsubr
          hintmask 01000110
          106 callgsubr
        </CharString>
        <CharString name="braceleft">
          218 callgsubr
          cntrmask 11100000
          458 -52 rmoveto
          29 5 -25 1 -9 hhcurveto
          -135 3 6 36 5 31 27 161 rcurveline
          4 25 4 41 -50 30 46 25 21 33 5 25 22 132 rcurveline
          4 25 7 40 4 8 rrcurveto
          38 24 89 2 35 hhcurveto
          6 21 6 24 4 hvcurveto
          31 5 -24 0 -18 hhcurveto
          -70 -111 -13 -88 -32 hvcurveto
          -2 -6 -8 -50 -5 -28 -15 -90 rcurveline
          -6 -36 -3 -15 -38 -16 rrcurveto
          -15 -39 -50 -1 -23 hhcurveto
          -6 -21 -6 -24 -4 hvcurveto
          -30 -5 24 -1 10 hhcurveto
          26 -1 108 -3 -7 -54 -27 -166 rcurveline
          -5 -30 -8 -45 47 -29 rrcurveto
          -23 38 54 -7 48 hhcurveto
          18 24 167 callgsubr
          endchar
        </CharString>
        <CharString name="braceright">
          218 callgsubr
          196 69 57 69 cntrmask 11100000
          518 305 rmoveto
          30 5 -24 1 -10 hhcurveto
          -24 1 -109 2 7 56 28 167 rcurveline
          4 28 8 45 -47 29 rrcurveto
          26 -44 -62 4 -35 hhcurveto
          -17 -25 0 -31 -5 hvcurveto
          -26 -5 19 -4 14 hhcurveto
          137 -2 -6 -36 -5 -33 -27 -161 rcurveline
          -7 -40 10 -32 39 -23 -61 -32 -10 -47 -1 -4 -29 -178 rcurveline
          -5 -29 -6 -36 -146 -2 rrcurveto
          -6 -21 -6 -24 -4 hvcurveto
          -31 -5 25 0 17 hhcurveto
          87 98 20 81 29 hvcurveto
          2 6 8 50 5 28 15 90 rcurveline
          6 36 3 15 38 16 rrcurveto
          15 39 48 1 24 hhcurveto
          6 21 6 24 4 hvcurveto
          endchar
        </CharString>
        <CharString name="bracketleft">
          -218 -83 61 655 61 hstem
          264 -53 -46 callgsubr
          -54 hlineto
          110 655 -3 callsubr
          -83 hlineto
          -33 -9 -9 -32 -5 hvcurveto
          -116 -695 rlineto
          -31 -5 4 -10 34 5 callgsubr
          endchar
        </CharString>
        <CharString name="bracketright">
          -218 -83 61 655 61 hstem
          179 -42 rmoveto
          116 695 -70 callgsubr
          -110 -655 95 callgsubr
          83 137 callgsubr
        </CharString>
        <CharString name="breve">
          10 488 64 49 -20 hstem
          0 callsubr
          endchar
        </CharString>
        <CharString name="breve.cap">
          10 472 64 49 -20 hstem
          0 callgsubr
          endchar
        </CharString>
        <CharString name="breve.ts1">
          127 497 69 46 -20 21 -20 hstemhm
          hintmask 10100000
          652 582 rmoveto
          17 3 -10 14 -19 hhcurveto
          -11 -10 -5 -9 -7 hvcurveto
          -9 -10 3 -18 -62 -5 rrcurveto
          -4 -43 -43 0 -43 hhcurveto
          -36 hlineto
          -47 -53 2 17 -17 hvcurveto
          hintmask 11000000
          9 -10 7 22 -26 hhcurveto
          -3 -2 0 -1 -3 hvcurveto
          -18 -3 -8 -13 -2 -14 rrcurveto
          -75 -13 118 -9 69 22 17 1 7 hhcurveto
          52 hlineto
          78 106 7 77 13 hvcurveto
          endchar
        </CharString>
        <CharString name="brokenbar">
          10 221 70 -30 70 -36 70 -30 70 hintmask 00010000
          365 407 rmoveto
          40 240 rlineto
          12 2 6 35 -35 hhcurveto
          -35 -6 -35 -12 -2 hvcurveto
          hintmask 00100000
          -40 -240 rlineto
          -18 -3 14 -13 19 hhcurveto
          19 18 13 18 3 hvcurveto
          -74 -443 rmoveto
          hintmask 01000000
          40 240 rlineto
          18 3 -14 13 -19 hhcurveto
          -19 -18 -13 -18 -3 hvcurveto
          hintmask 10000000
          -40 -240 rlineto
          -12 -2 -6 -35 35 hhcurveto
          35 6 35 12 2 hvcurveto
          endchar
        </CharString>
        <CharString name="bullet">
          302 96 276 hstem
          309 276 117 callgsubr
          endchar
        </CharString>
        <CharString name="c">
          -48 71 callgsubr
          hstem
          80 69 192 84 vstem
          -37 callgsubr
          endchar
        </CharString>
        <CharString name="cacute">
          -48 71 callgsubr
          58 71 callsubr
          80 69 192 84 hintmask 11001100
          -37 callgsubr
          hintmask 00110000
          5 467 rmoveto
          20 3 -12 -102 callsubr
          6 hvcurveto
          143 59 26 11 6 13 2 11 rlinecurve
          endchar
        </CharString>
        <CharString name="caron">
          10 490 556 -54 callgsubr
        </CharString>
        <CharString name="caron.cap">
          10 475 507 -69 callsubr
        </CharString>
        <CharString name="caron.ts1">
          127 498 -21 141 -20 hstem
          636 576 rmoveto
          18 3 -6 24 -22 hhcurveto
          -8 -7 -3 -3 -8 hvcurveto
          -24 -9 -45 -17 -46 -16 -45 -19 rlinecurve
          -5 -1 -6 -3 -5 -1 rrcurveto
          -10 -18 10 6 -11 hvcurveto
          -38 17 -42 14 -37 20 rrcurveto
          3 -5 -6 2 -7 hhcurveto
          -3 hlineto
          -19 -1 -16 -22 -3 -18 -4 -24 27 -5 30 -13 129 -52 rcurveline
          -2 6 8 -4 8 hhcurveto
          8 8 4 3 9 hvcurveto
          142 51 28 10 36 5 4 26 rlinecurve
          endchar
        </CharString>
        <CharString name="ccaron">
          -48 178 callsubr
          80 69 192 84 vstemhm
          -37 callgsubr
          30 447 -54 callgsubr
        </CharString>
        <CharString name="ccedilla">
          -48 178 callsubr
          80 69 121 69 -19 69 -48 84 hintmask 11110100
          -9 callgsubr
          21 39 0 -9 182 callsubr
          73 12 -104 0 -45 hhcurveto
          -172 -82 -136 -88 -15 hvcurveto
          -19 -116 71 -99 118 -7 -4 -21 rcurveline
          147 callgsubr
          rrcurveto
          hintmask 00001000
          93 callgsubr
          10 rcurveline
          97 22 36 73 2 14 rrcurveto
          endchar
        </CharString>
        <CharString name="ccircumflex">
          -48 178 callsubr
          80 69 192 84 vstemhm
          -37 callgsubr
          26 423 -69 callgsubr
          endchar
        </CharString>
        <CharString name="cdotaccent">
          -48 71 callgsubr
          54 100 hstemhm
          80 69 148 101 -57 84 hintmask 11010100
          -9 callgsubr
          hintmask 11011000
          21 13 0 -9 25 hvcurveto
          -35 -5 17 -14 24 hhcurveto
          24 23 17 29 5 hvcurveto
          73 12 -104 0 -45 hhcurveto
          -172 -82 -136 -88 -15 hvcurveto
          -120 -20 77 -102 126 hhcurveto
          139 50 98 17 3 hvcurveto
          hintmask 00101000
          -57 435 -28 callgsubr
        </CharString>
        <CharString name="cedilla">
          45 callgsubr
        </CharString>
        <CharString name="cedilla.dup">
          45 callgsubr
        </CharString>
        <CharString name="cent">
          -48 -5 61 323 61 hstemhm
          80 69 67 62 -53 62 12 62 -53 62 -29 84 hintmask 11000001
          455 109 rmoveto
          28 5 -29 0 -6 hhcurveto
          -16 -10 -2 -20 -11 hvcurveto
          -7 -12 -23 -40 -61 -7 54 323 rcurveline
          21 27 -1 -8 182 callsubr
          hintmask 01000100
          67 11 -87 6 -49 hhcurveto
          hintmask 00000010
          9 53 rlineto
          85 callgsubr
          -17 -16 -14 -17 -3 hvcurveto
          hintmask 00101100
          -9 -57 -138 -24 -68 -117 -13 -79 rlinecurve
          -18 -107 60 -94 103 -18 rrcurveto
          hintmask 00010000
          -9 -59 rlineto
          144 callgsubr
          hintmask 10101000
          9 57 121 10 45 88 2 16 rlinecurve
          -219 -47 rmoveto
          -61 19 -38 60 12 75 7 41 36 91 96 25 rrcurveto
          endchar
        </CharString>
        <CharString name="cent.oldstyle">
          -48 -6 61 -58 61 320 61 hstemhm
          80 69 180 69 -57 84 hintmask 10000100
          455 109 rmoveto
          28 5 -29 0 -6 hhcurveto
          -16 -10 -2 -20 -11 hvcurveto
          -13 -8 -27 -47 -74 hhcurveto
          hintmask 01111000
          -9 -10 1 2 -8 hvcurveto
          118 320 rlineto
          15 14 -3 -5 182 callsubr
          9 55 -55 13 -48 4 17 47 rcurveline
          20 7 -11 18 -20 hhcurveto
          -15 -14 -11 -14 -5 hvcurveto
          -22 -60 -158 -10 -77 -129 -14 -84 rlinecurve
          -15 -88 37 -78 71 -35 -26 -71 rcurveline
          -19 -8 12 -18 20 hhcurveto
          15 14 11 14 6 hvcurveto
          23 65 rlineto
          hintmask 10010000
          -2 11 11 -1 12 hhcurveto
          139 50 98 17 3 hvcurveto
          -149 268 rmoveto
          -108 -296 -38 29 -20 49 9 57 rlinecurve
          7 44 40 99 110 18 rrcurveto
          endchar
        </CharString>
        <CharString name="centigrade">
          477 -11 62 384 61 5 61 -1 62 -61 61 hstemhm
          83 70 93 70 644 70 hintmask 11001001
          960 170 rmoveto
          1 6 rlineto
          19 2 -12 8 -21 hhcurveto
          -39 10 -24 -33 -20 hvcurveto
          -76 -36 -124 -19 -59 hhcurveto
          -132 -146 84 172 28 hvcurveto
          157 26 166 98 139 hhcurveto
          83 102 -35 -92 5 hvcurveto
          -24 2 6 -10 24 hhcurveto
          34 4 22 19 3 hvcurveto
          24 144 rlineto
          24 4 -9 13 -20 hhcurveto
          -19 -10 -15 -15 -9 hvcurveto
          hintmask 11010111
          -7 -11 -8 -10 -5 -11 rrcurveto
          45 -53 -75 17 -74 hhcurveto
          -172 -198 -119 -205 -34 hvcurveto
          -183 -31 159 -127 172 hhcurveto
          97 198 32 149 24 hvcurveto
          -644 326 rmoveto
          61 10 -39 55 -72 hhcurveto
          -7 hlineto
          -61 -7 -54 -50 -10 -60 rrcurveto
          -61 -11 39 -55 72 hhcurveto
          7 hlineto
          61 7 55 50 10 60 rrcurveto
          -71 -1 rmoveto
          -24 -4 -26 -22 -24 hhcurveto
          -23 -16 19 22 1 hvcurveto
          1 6 rlineto
          24 4 25 22 24 hhcurveto
          hintmask 00100010
          23 16 -19 -22 hvcurveto
          endchar
        </CharString>
        <CharString name="circumflex">
          10 486 532 -69 callgsubr
          endchar
        </CharString>
        <CharString name="circumflex.cap">
          10 478 520 -95 callsubr
          endchar
        </CharString>
        <CharString name="circumflex.dup">
          10 486 532 -69 callgsubr
          endchar
        </CharString>
        <CharString name="colon">
          -223 0 100 231 100 hstemhm
          104 100 -44 100 hintmask 11010000
          260 381 17 callsubr
          -56 -331 rmoveto
          28 5 181 callgsubr
          hintmask 10100000
          31 callgsubr
          endchar
        </CharString>
        <CharString name="colonmonetary">
          561 61 211 callsubr
          198 62 -54 62 -51 62 22 62 -43 62 167 69 hintmask 10001101
          727 168 rmoveto
          33 6 -24 0 -11 hhcurveto
          -10 -22 0 -29 -7 hvcurveto
          -6 -24 -10 -38 -71 -32 -32 -15 -43 -9 -40 -3 84 508 rcurveline
          41 -4 36 -11 25 -17 54 -35 2 -40 3 -28 rrcurveto
          -23 1 19 0 9 112 callgsubr
          4 hvcurveto
          23 139 rlineto
          16 3 4 25 -30 hhcurveto
          -19 -7 -10 -15 -9 hvcurveto
          -12 -15 0 -2 -13 -20 -30 27 -56 26 -76 7 rrcurveto
          hintmask 01010010
          9 53 rlineto
          85 callgsubr
          -17 -16 -14 -17 -3 hvcurveto
          -8 -52 -192 -10 -162 -143 -27 -162 rlinecurve
          -27 -160 111 -145 191 -11 rrcurveto
          hintmask 00100000
          -8 -52 rlineto
          144 callgsubr
          hintmask 01010101
          8 52 159 10 106 73 16 95 rlinecurve
          -332 -117 rmoveto
          -151 14 -87 114 21 127 21 127 128 114 152 13 rrcurveto
          hintmask 00001000
          endchar
        </CharString>
        <CharString name="comma">
          -223 -118 -21 239 -20 hstem
          210 10 rmoveto
          64 10 -25 26 -32 hhcurveto
          -30 -24 -23 -27 -5 hvcurveto
          -1 -6 -5 -40 48 -4 -5 -17 -8 -33 -45 -32 -8 -6 -9 -6 -2 -14 rrcurveto
          -14 -2 12 -17 17 hhcurveto
          22 77 60 89 15 hvcurveto
          endchar
        </CharString>
        <CharString name="copyleft">
          96 0 57 497 57 hstem
          51 57 175 57 265 57 vstem
          -50 callgsubr
          -85 hmoveto
          75 13 -56 66 -90 hhcurveto
          -42 -37 -14 -14 -20 hvcurveto
          -3 9 1 1 -3 7 rrcurveto
          6 -2 -2 5 -8 hhcurveto
          -14 -2 -11 -7 -1 hvcurveto
          -11 -63 rlineto
          -8 -1 -2 -10 16 hhcurveto
          4 9 0 10 4 hvcurveto
          5 13 7 18 29 15 rrcurveto
          10 18 24 6 23 hhcurveto
          74 46 -54 -60 -10 hvcurveto
          -60 -10 -63 -54 -76 hhcurveto
          -21 -24 4 8 -16 hvcurveto
          -27 14 1 17 1 11 rrcurveto
          13 1 -9 0 -5 hhcurveto
          -5 -11 0 -15 -2 hvcurveto
          -45 -8 43 -35 80 hhcurveto
          92 78 67 75 12 hvcurveto
          endchar
        </CharString>
        <CharString name="copyright">
          96 0 57 291 57 149 57 hstem
          51 57 497 57 vstem
          -50 callgsubr
          -135 -62 rmoveto
          15 2 -11 0 -5 hhcurveto
          -4 -10 0 -13 -3 hvcurveto
          -3 -11 -4 -17 -32 -14 rrcurveto
          -9 -18 -26 -4 -21 hhcurveto
          -76 -45 54 61 10 hvcurveto
          60 10 64 54 74 hhcurveto
          24 21 -6 -9 15 hvcurveto
          24 -16 1 -18 1 -12 rrcurveto
          -11 1 8 0 4 hhcurveto
          16 2 10 9 1 hvcurveto
          11 62 rlineto
          7 1 2 11 -14 hhcurveto
          -8 -3 -4 -7 -4 hvcurveto
          -6 -7 -1 -1 -5 -9 rrcurveto
          15 -16 -30 13 -43 hhcurveto
          -90 -78 -66 -75 -13 hvcurveto
          -75 -12 54 -67 92 hhcurveto
          80 55 35 45 8 hvcurveto
          endchar
        </CharString>
        <CharString name="copyright.alt">
          233 -159 57 634 57 hstem
          36 57 76 49 338 49 122 57 vstem
          784 215 rmoveto
          230 38 -120 144 -230 hhcurveto
          -229 -169 -144 -230 -38 hvcurveto
          -229 -38 120 -145 229 hhcurveto
          230 169 145 229 38 hvcurveto
          -57 hmoveto
          -194 -32 -143 -123 -195 hhcurveto
          -194 -102 123 194 32 hvcurveto
          195 32 144 122 194 hhcurveto
          195 101 -122 -195 -32 hvcurveto
          -122 -97 rmoveto
          24 4 -17 0 -8 hhcurveto
          -7 -15 0 -21 -6 hvcurveto
          -4 -17 -6 -27 -51 -22 rrcurveto
          -13 -28 -41 -7 -34 hhcurveto
          -119 -71 85 96 16 hvcurveto
          95 16 101 84 116 hhcurveto
          37 34 -9 -15 23 hvcurveto
          39 -24 1 -29 2 -19 rrcurveto
          -16 1 13 0 6 hhcurveto
          25 3 14 14 2 hvcurveto
          16 98 rlineto
          12 2 3 17 -21 hhcurveto
          -14 -4 -7 -10 -7 hvcurveto
          -8 -11 0 -1 -9 -14 rrcurveto
          22 -25 -49 21 -68 hhcurveto
          -142 -122 -104 -118 -20 hvcurveto
          -118 -20 86 -106 145 hhcurveto
          127 86 54 72 12 hvcurveto
          endchar
        </CharString>
        <CharString name="currency">
          302 73 70 326 70 hstem
          226 70 327 70 vstem
          665 59 rmoveto
          29 24 -21 25 -7 8 -42 51 rcurveline
          35 39 25 48 9 52 9 52 -9 48 -23 39 60 51 rcurveline
          9 8 29 25 -21 24 -20 25 -29 -25 -9 -8 -60 -51 rcurveline
          29 -34 -45 16 -52 hhcurveto
          -52 -50 -17 -28 -44 hvcurveto
          -43 51 -7 8 -21 25 -28 -25 rlinecurve
          -29 -24 21 -25 7 -8 42 -52 rcurveline
          -34 -38 -25 -48 -9 -52 -9 -52 9 -48 22 -38 -60 -52 rcurveline
          -9 -8 -29 -25 21 -24 20 -25 29 25 9 8 61 51 rcurveline
          -28 34 44 -17 52 hhcurveto
          52 51 16 29 44 hvcurveto
          42 -51 208 callgsubr
          -42 247 rmoveto
          -90 -15 -85 -73 -91 hhcurveto
          -90 -61 73 90 15 hvcurveto
          90 15 85 73 90 hhcurveto
          91 61 -73 -90 -15 hvcurveto
          endchar
        </CharString>
        <CharString name="cwm">
          -515 endchar
        </CharString>
        <CharString name="cwmascender">
          -515 endchar
        </CharString>
        <CharString name="cwmcapital">
          -515 endchar
        </CharString>
        <CharString name="d">
          68 -6 61 -55 185 callgsubr
          113 125 callsubr
          hintmask 01000001
          570 -56 callsubr
          hintmask 01010110
          -54 hlineto
          85 509 -70 callgsubr
          hintmask 10101001
          -28 -164 38 callgsubr
          hintmask 01000010
          22 callsubr
          hintmask 10101100
          37 callsubr
          endchar
        </CharString>
        <CharString name="dagger">
          -71 -195 -21 613 67 241 -20 hstemhm
          170 67 -13 67 -54 67 -5 67 hintmask 01000100
          459 430 154 callgsubr
          5 20 5 28 22 65 rrcurveto
          hintmask 01110010
          11 37 13 37 6 37 rrcurveto
          8 1 6 33 -33 hhcurveto
          -34 -6 -32 -9 -1 hvcurveto
          -6 -35 -1 -58 -24 vvcurveto
          -46 -3 -32 -4 -29 vhcurveto
          -10 1 -20 138 callsubr
          31 8 6 22 hvcurveto
          3 1 26 7 20 2 -6 -25 -6 -20 -9 -25 rrcurveto
          hintmask 11001010
          -26 -72 -2 -8 -9 -53 -25 -151 -17 -168 -7 -95 rrcurveto
          -14 -1 0 -6 11 hhcurveto
          12 1 5 13 4 hvcurveto
          14 50 12 53 11 51 14 63 22 103 16 96 9 54 2 7 -3 71 -1 23 1 21 2 27 11 -1 19 -4 19 -5 rrcurveto
          -6 18 27 -8 21 hhcurveto
          35 7 28 5 1 hvcurveto
          endchar
        </CharString>
        <CharString name="daggerdbl">
          -71 -184 -21 194 66 389 67 194 -20 hstem
          223 67 0 67 0 67 cntrmask 00001110
          467 477 154 callgsubr
          6 30 13 34 5 14 12 33 13 40 5 28 rrcurveto
          7 1 6 32 -34 hhcurveto
          -10 -24 -3 -36 -6 hvcurveto
          -3 -20 -1 -29 1 -35 rrcurveto
          -41 1 -28 -4 -26 vhcurveto
          -11 1 -19 138 callsubr
          30 8 6 22 hvcurveto
          4 1 26 7 20 2 -6 -30 -13 -34 -5 -14 -11 -33 -14 -40 -5 -28 185 callsubr
          4 20 0 29 -1 35 rrcurveto
          41 0 28 3 26 vhcurveto
          11 -1 19 -4 18 -5 rrcurveto
          -6 18 28 -8 21 hhcurveto
          35 7 28 5 1 hvcurveto
          -76 -455 rmoveto
          17 3 -10 16 -21 hhcurveto
          -20 -17 -3 -8 -33 hvcurveto
          -27 -8 -7 -2 -23 -2 7 28 8 24 14 42 20 56 4 23 1 5 rrcurveto
          35 6 -21 4 -11 hhcurveto
          -30 -9 -25 -14 -2 hvcurveto
          -5 -29 1 -43 -34 vvcurveto
          2 -11 -1 -31 -3 -30 -22 2 -3 1 -38 11 rrcurveto
          9 -31 -17 0 -7 hhcurveto
          -25 -12 -20 -13 -2 hvcurveto
          -15 -3 7 -18 24 hhcurveto
          24 25 6 4 12 hvcurveto
          41 10 7 1 17 2 -7 -28 -8 -24 -14 -42 -20 -56 -4 -23 -1 -5 185 callsubr
          5 29 -1 43 34 vvcurveto
          -1 11 0 31 3 30 23 -2 3 -1 38 -11 rrcurveto
          -9 31 18 0 5 hhcurveto
          24 13 18 15 3 hvcurveto
          endchar
        </CharString>
</ttFont>
